<svg width="71" height="66" viewBox="0 0 71 66" fill="none" xmlns="http://www.w3.org/2000/svg">
<rect x="0.782104" y="0.75" width="68.5" height="64.5" rx="6.75" fill="white"/>
<rect x="0.782104" y="0.75" width="68.5" height="64.5" rx="6.75" stroke="#68BCFF" stroke-width="1.5"/>
<path d="M50.959 23.6653C50.959 32.2793 43.976 39.2623 35.362 39.2623C26.748 39.2623 19.765 32.2793 19.765 23.6653C19.765 15.0514 26.748 8.06836 35.362 8.06836C43.976 8.06836 50.959 15.0514 50.959 23.6653ZM22.1175 23.6653C22.1175 30.9801 28.0472 36.9099 35.362 36.9099C42.6767 36.9099 48.6065 30.9801 48.6065 23.6653C48.6065 16.3506 42.6767 10.4208 35.362 10.4208C28.0472 10.4208 22.1175 16.3506 22.1175 23.6653Z" fill="#68BCFF"/>
<circle cx="35.4379" cy="9.04735" r="1.76415" fill="#FFFEFD"/>
<path d="M38.4848 9.04716C38.4848 10.7301 37.1206 12.0943 35.4377 12.0943C33.7548 12.0943 32.3905 10.7301 32.3905 9.04716C32.3905 7.36426 33.7548 6 35.4377 6C37.1206 6 38.4848 7.36426 38.4848 9.04716ZM33.9402 9.04716C33.9402 9.87418 34.6106 10.5446 35.4377 10.5446C36.2647 10.5446 36.9351 9.87418 36.9351 9.04716C36.9351 8.22014 36.2647 7.54971 35.4377 7.54971C34.6106 7.54971 33.9402 8.22014 33.9402 9.04716Z" fill="#68BCFF"/>
<circle cx="35.4379" cy="37.5181" r="1.76415" fill="#FFFEFD"/>
<path d="M38.4848 37.5179C38.4848 39.2008 37.1206 40.565 35.4377 40.565C33.7548 40.565 32.3905 39.2008 32.3905 37.5179C32.3905 35.835 33.7548 34.4707 35.4377 34.4707C37.1206 34.4707 38.4848 35.835 38.4848 37.5179ZM33.9402 37.5179C33.9402 38.3449 34.6106 39.0153 35.4377 39.0153C36.2647 39.0153 36.9351 38.3449 36.9351 37.5179C36.9351 36.6908 36.2647 36.0204 35.4377 36.0204C34.6106 36.0204 33.9402 36.6908 33.9402 37.5179Z" fill="#68BCFF"/>
<circle cx="50.2938" cy="23.4067" r="1.76415" fill="#FFFEFD"/>
<path d="M53.3408 23.4065C53.3408 25.0894 51.9765 26.4537 50.2936 26.4537C48.6107 26.4537 47.2465 25.0894 47.2465 23.4065C47.2465 21.7236 48.6107 20.3594 50.2936 20.3594C51.9765 20.3594 53.3408 21.7236 53.3408 23.4065ZM48.7962 23.4065C48.7962 24.2336 49.4666 24.904 50.2936 24.904C51.1206 24.904 51.7911 24.2336 51.7911 23.4065C51.7911 22.5795 51.1206 21.9091 50.2936 21.9091C49.4666 21.9091 48.7962 22.5795 48.7962 23.4065Z" fill="#68BCFF"/>
<circle cx="21.0795" cy="23.6548" r="1.76415" fill="#FFFEFD"/>
<path d="M24.1264 23.4065C24.1264 25.0894 22.7622 26.4537 21.0793 26.4537C19.3964 26.4537 18.0321 25.0894 18.0321 23.4065C18.0321 21.7236 19.3964 20.3594 21.0793 20.3594C22.7622 20.3594 24.1264 21.7236 24.1264 23.4065ZM19.5818 23.4065C19.5818 24.2336 20.2522 24.904 21.0793 24.904C21.9063 24.904 22.5767 24.2336 22.5767 23.4065C22.5767 22.5795 21.9063 21.9091 21.0793 21.9091C20.2522 21.9091 19.5818 22.5795 19.5818 23.4065Z" fill="#68BCFF"/>
<circle cx="24.7938" cy="13.2563" r="1.76415" fill="#FFFEFD"/>
<path d="M27.8408 13.2561C27.8408 14.939 26.4765 16.3033 24.7936 16.3033C23.1107 16.3033 21.7465 14.939 21.7465 13.2561C21.7465 11.5732 23.1107 10.209 24.7936 10.209C26.4765 10.209 27.8408 11.5732 27.8408 13.2561ZM23.2962 13.2561C23.2962 14.0832 23.9666 14.7536 24.7936 14.7536C25.6206 14.7536 26.2911 14.0832 26.2911 13.2561C26.2911 12.4291 25.6206 11.7587 24.7936 11.7587C23.9666 11.7587 23.2962 12.4291 23.2962 13.2561Z" fill="#68BCFF"/>
<circle cx="46.3329" cy="33.5571" r="1.76415" fill="#FFFEFD"/>
<path d="M49.3798 33.5569C49.3798 35.2398 48.0156 36.6041 46.3327 36.6041C44.6498 36.6041 43.2855 35.2398 43.2855 33.5569C43.2855 31.874 44.6498 30.5098 46.3327 30.5098C48.0156 30.5098 49.3798 31.874 49.3798 33.5569ZM44.8352 33.5569C44.8352 34.3839 45.5057 35.0544 46.3327 35.0544C47.1597 35.0544 47.8301 34.3839 47.8301 33.5569C47.8301 32.7299 47.1597 32.0595 46.3327 32.0595C45.5057 32.0595 44.8352 32.7299 44.8352 33.5569Z" fill="#68BCFF"/>
<circle cx="46.3329" cy="13.2563" r="1.76415" fill="#FFFEFD"/>
<path d="M49.3798 13.2561C49.3798 14.939 48.0156 16.3033 46.3327 16.3033C44.6498 16.3033 43.2855 14.939 43.2855 13.2561C43.2855 11.5732 44.6498 10.209 46.3327 10.209C48.0156 10.209 49.3798 11.5732 49.3798 13.2561ZM44.8352 13.2561C44.8352 14.0832 45.5057 14.7536 46.3327 14.7536C47.1597 14.7536 47.8301 14.0832 47.8301 13.2561C47.8301 12.4291 47.1597 11.7587 46.3327 11.7587C45.5057 11.7587 44.8352 12.4291 44.8352 13.2561Z" fill="#68BCFF"/>
<circle cx="24.2967" cy="33.5571" r="1.76415" fill="#FFFEFD"/>
<path d="M27.3437 33.5569C27.3437 35.2398 25.9794 36.6041 24.2965 36.6041C22.6136 36.6041 21.2494 35.2398 21.2494 33.5569C21.2494 31.874 22.6136 30.5098 24.2965 30.5098C25.9794 30.5098 27.3437 31.874 27.3437 33.5569ZM22.7991 33.5569C22.7991 34.3839 23.4695 35.0544 24.2965 35.0544C25.1236 35.0544 25.794 34.3839 25.794 33.5569C25.794 32.7299 25.1236 32.0595 24.2965 32.0595C23.4695 32.0595 22.7991 32.7299 22.7991 33.5569Z" fill="#68BCFF"/>
<path d="M9.2571 53.2645H9.7296C9.9196 53.2645 10.0771 53.2395 10.2021 53.1895C10.3271 53.1345 10.4346 53.0495 10.5246 52.9345L13.5171 49.147C13.6421 48.987 13.7721 48.877 13.9071 48.817C14.0471 48.752 14.2221 48.7195 14.4321 48.7195H16.1721L12.5196 53.227C12.3046 53.502 12.0821 53.697 11.8521 53.812C12.0171 53.872 12.1646 53.957 12.2946 54.067C12.4296 54.172 12.5571 54.312 12.6771 54.487L16.4421 59.5645H14.6646C14.4246 59.5645 14.2446 59.532 14.1246 59.467C14.0096 59.397 13.9121 59.297 13.8321 59.167L10.7646 55.162C10.6696 55.027 10.5596 54.932 10.4346 54.877C10.3096 54.822 10.1296 54.7945 9.8946 54.7945H9.2571V59.5645H7.2396V48.7195H9.2571V53.2645ZM20.0787 51.7495C20.6487 51.7495 21.1662 51.842 21.6312 52.027C22.1012 52.212 22.5012 52.4745 22.8312 52.8145C23.1662 53.1545 23.4237 53.5695 23.6037 54.0595C23.7837 54.5495 23.8737 55.097 23.8737 55.702C23.8737 56.312 23.7837 56.862 23.6037 57.352C23.4237 57.842 23.1662 58.2595 22.8312 58.6045C22.5012 58.9495 22.1012 59.2145 21.6312 59.3995C21.1662 59.5845 20.6487 59.677 20.0787 59.677C19.5037 59.677 18.9812 59.5845 18.5112 59.3995C18.0412 59.2145 17.6387 58.9495 17.3037 58.6045C16.9737 58.2595 16.7162 57.842 16.5312 57.352C16.3512 56.862 16.2612 56.312 16.2612 55.702C16.2612 55.097 16.3512 54.5495 16.5312 54.0595C16.7162 53.5695 16.9737 53.1545 17.3037 52.8145C17.6387 52.4745 18.0412 52.212 18.5112 52.027C18.9812 51.842 19.5037 51.7495 20.0787 51.7495ZM20.0787 58.252C20.7187 58.252 21.1912 58.037 21.4962 57.607C21.8062 57.177 21.9612 56.547 21.9612 55.717C21.9612 54.887 21.8062 54.2545 21.4962 53.8195C21.1912 53.3845 20.7187 53.167 20.0787 53.167C19.4287 53.167 18.9462 53.387 18.6312 53.827C18.3212 54.262 18.1662 54.892 18.1662 55.717C18.1662 56.542 18.3212 57.172 18.6312 57.607C18.9462 58.037 19.4287 58.252 20.0787 58.252ZM30.1169 53.8345C29.9069 53.5795 29.6769 53.3995 29.4269 53.2945C29.1819 53.1895 28.9169 53.137 28.6319 53.137C28.3519 53.137 28.0994 53.1895 27.8744 53.2945C27.6494 53.3995 27.4569 53.5595 27.2969 53.7745C27.1369 53.9845 27.0144 54.2545 26.9294 54.5845C26.8444 54.9095 26.8019 55.2945 26.8019 55.7395C26.8019 56.1895 26.8369 56.572 26.9069 56.887C26.9819 57.197 27.0869 57.452 27.2219 57.652C27.3569 57.847 27.5219 57.9895 27.7169 58.0795C27.9119 58.1645 28.1294 58.207 28.3694 58.207C28.7544 58.207 29.0819 58.127 29.3519 57.967C29.6219 57.807 29.8769 57.5795 30.1169 57.2845V53.8345ZM31.9694 48.4195V59.5645H30.8369C30.5919 59.5645 30.4369 59.452 30.3719 59.227L30.2144 58.4845C29.9044 58.8395 29.5469 59.127 29.1419 59.347C28.7419 59.567 28.2744 59.677 27.7394 59.677C27.3194 59.677 26.9344 59.5895 26.5844 59.4145C26.2344 59.2395 25.9319 58.987 25.6769 58.657C25.4269 58.322 25.2319 57.9095 25.0919 57.4195C24.9569 56.9295 24.8894 56.3695 24.8894 55.7395C24.8894 55.1695 24.9669 54.6395 25.1219 54.1495C25.2769 53.6595 25.4994 53.2345 25.7894 52.8745C26.0794 52.5145 26.4269 52.2345 26.8319 52.0345C27.2369 51.8295 27.6919 51.727 28.1969 51.727C28.6269 51.727 28.9944 51.7945 29.2994 51.9295C29.6044 52.0645 29.8769 52.247 30.1169 52.477V48.4195H31.9694ZM40.4277 51.8695V59.5645H39.2952C39.0502 59.5645 38.8952 59.452 38.8302 59.227L38.7027 58.612C38.3877 58.932 38.0402 59.192 37.6602 59.392C37.2802 59.587 36.8327 59.6845 36.3177 59.6845C35.8977 59.6845 35.5252 59.6145 35.2002 59.4745C34.8802 59.3295 34.6102 59.127 34.3902 58.867C34.1702 58.607 34.0027 58.2995 33.8877 57.9445C33.7777 57.5845 33.7227 57.1895 33.7227 56.7595V51.8695H35.5752V56.7595C35.5752 57.2295 35.6827 57.5945 35.8977 57.8545C36.1177 58.1095 36.4452 58.237 36.8802 58.237C37.2002 58.237 37.5002 58.167 37.7802 58.027C38.0602 57.882 38.3252 57.6845 38.5752 57.4345V51.8695H40.4277ZM44.117 48.4195V54.802H44.462C44.587 54.802 44.6845 54.787 44.7545 54.757C44.8295 54.722 44.9045 54.6545 44.9795 54.5545L46.892 52.192C46.972 52.087 47.0595 52.007 47.1545 51.952C47.2545 51.897 47.382 51.8695 47.537 51.8695H49.232L46.8395 54.727C46.6695 54.952 46.4845 55.1245 46.2845 55.2445C46.3895 55.3195 46.482 55.407 46.562 55.507C46.647 55.607 46.727 55.7145 46.802 55.8295L49.367 59.5645H47.6945C47.5495 59.5645 47.4245 59.542 47.3195 59.497C47.2145 59.447 47.127 59.3595 47.057 59.2345L45.092 56.317C45.022 56.202 44.9495 56.127 44.8745 56.092C44.7995 56.057 44.687 56.0395 44.537 56.0395H44.117V59.5645H42.2645V48.4195H44.117ZM52.1297 48.4195V54.802H52.4747C52.5997 54.802 52.6972 54.787 52.7672 54.757C52.8422 54.722 52.9172 54.6545 52.9922 54.5545L54.9047 52.192C54.9847 52.087 55.0722 52.007 55.1672 51.952C55.2672 51.897 55.3947 51.8695 55.5497 51.8695H57.2447L54.8522 54.727C54.6822 54.952 54.4972 55.1245 54.2972 55.2445C54.4022 55.3195 54.4947 55.407 54.5747 55.507C54.6597 55.607 54.7397 55.7145 54.8147 55.8295L57.3797 59.5645H55.7072C55.5622 59.5645 55.4372 59.542 55.3322 59.497C55.2272 59.447 55.1397 59.3595 55.0697 59.2345L53.1047 56.317C53.0347 56.202 52.9622 56.127 52.8872 56.092C52.8122 56.057 52.6997 56.0395 52.5497 56.0395H52.1297V59.5645H50.2772V48.4195H52.1297ZM64.9199 51.8695V59.5645H63.7874C63.5424 59.5645 63.3874 59.452 63.3224 59.227L63.1949 58.612C62.8799 58.932 62.5324 59.192 62.1524 59.392C61.7724 59.587 61.3249 59.6845 60.8099 59.6845C60.3899 59.6845 60.0174 59.6145 59.6924 59.4745C59.3724 59.3295 59.1024 59.127 58.8824 58.867C58.6624 58.607 58.4949 58.2995 58.3799 57.9445C58.2699 57.5845 58.2149 57.1895 58.2149 56.7595V51.8695H60.0674V56.7595C60.0674 57.2295 60.1749 57.5945 60.3899 57.8545C60.6099 58.1095 60.9374 58.237 61.3724 58.237C61.6924 58.237 61.9924 58.167 62.2724 58.027C62.5524 57.882 62.8174 57.6845 63.0674 57.4345V51.8695H64.9199Z" fill="#68BCFF"/>
</svg>
