<svg width="32" height="32" viewBox="0 0 32 32" fill="none" xmlns="http://www.w3.org/2000/svg">
<path d="M15.333 28.6663V22.2103L10.333 27.1437L9.38901 26.1997L15.333 20.2557V16.6663H11.7437L5.79967 22.6103L4.85567 21.6663L9.78901 16.6663H3.33301V15.333H9.78901L4.85567 10.333L5.79967 9.38901L11.7437 15.333H15.333V11.7437L9.38901 5.79967L10.333 4.85567L15.333 9.78901V3.33301H16.6663V9.78901L21.6663 4.85567L22.6103 5.79967L16.6663 11.7437V15.333H20.2557L26.1997 9.38901L27.1437 10.333L22.2103 15.333H28.6663V16.6663H22.2103L27.1437 21.6663L26.1997 22.6103L20.2557 16.6663H16.6663V20.2557L22.6103 26.1997L21.6663 27.1437L16.6663 22.2103V28.6663H15.333Z" fill="#2196F3"/>
</svg>
