<svg width="32" height="32" viewBox="0 0 32 32" fill="none" xmlns="http://www.w3.org/2000/svg">
<path d="M9.33301 18.667C11.5463 18.667 13.333 16.8803 13.333 14.667C13.333 12.4537 11.5463 10.667 9.33301 10.667C7.11967 10.667 5.33301 12.4537 5.33301 14.667C5.33301 16.8803 7.11967 18.667 9.33301 18.667ZM9.33301 13.3337C10.0663 13.3337 10.6663 13.9337 10.6663 14.667C10.6663 15.4003 10.0663 16.0003 9.33301 16.0003C8.59967 16.0003 7.99967 15.4003 7.99967 14.667C7.99967 13.9337 8.59967 13.3337 9.33301 13.3337ZM25.333 9.33366H14.6663V20.0003H3.99967V6.66699H1.33301V26.667H3.99967V22.667H27.9997V26.667H30.6663V14.667C30.6663 11.7203 28.2797 9.33366 25.333 9.33366ZM27.9997 20.0003H17.333V12.0003H25.333C26.7997 12.0003 27.9997 13.2003 27.9997 14.667V20.0003Z" fill="#2196F3"/>
</svg>
