<svg width="32" height="33" viewBox="0 0 32 33" fill="none" xmlns="http://www.w3.org/2000/svg">
<path d="M28.0003 28.5H4.00033C3.6467 28.5 3.30756 28.3595 3.05752 28.1095C2.80747 27.8594 2.66699 27.5203 2.66699 27.1667V17.1493C2.66697 16.9588 2.70778 16.7705 2.78667 16.5971C2.86556 16.4237 2.9807 16.2692 3.12433 16.144L8.00033 11.892V5.83333C8.00033 5.47971 8.1408 5.14057 8.39085 4.89052C8.6409 4.64048 8.98004 4.5 9.33366 4.5H28.0003C28.3539 4.5 28.6931 4.64048 28.9431 4.89052C29.1932 5.14057 29.3337 5.47971 29.3337 5.83333V27.1667C29.3337 27.5203 29.1932 27.8594 28.9431 28.1095C28.6931 28.3595 28.3539 28.5 28.0003 28.5ZM12.0003 25.8333H16.0003V17.756L10.667 13.1053L5.33366 17.756V25.8333H9.33366V20.5H12.0003V25.8333ZM18.667 25.8333H26.667V7.16667H10.667V10.0027C10.979 10.0027 11.2923 10.112 11.543 10.332L18.2097 16.144C18.3533 16.2692 18.4684 16.4237 18.5473 16.5971C18.6262 16.7705 18.667 16.9588 18.667 17.1493V25.8333ZM21.3337 15.1667H24.0003V17.8333H21.3337V15.1667ZM21.3337 20.5H24.0003V23.1667H21.3337V20.5ZM21.3337 9.83333H24.0003V12.5H21.3337V9.83333ZM16.0003 9.83333H18.667V12.5H16.0003V9.83333Z" fill="#2196F3"/>
</svg>
