<svg width="32" height="32" viewBox="0 0 32 32" fill="none" xmlns="http://www.w3.org/2000/svg">
<path d="M9.33366 2.66699C7.86699 2.66699 6.66699 3.86699 6.66699 5.33366V25.3337C6.66699 26.0409 6.94794 26.7192 7.44804 27.2193C7.94814 27.7194 8.62641 28.0003 9.33366 28.0003V29.3337H12.0003V28.0003H20.0003V29.3337H22.667V28.0003C24.147 28.0003 25.3337 26.8137 25.3337 25.3337V5.33366C25.3337 4.62641 25.0527 3.94814 24.5526 3.44804C24.0525 2.94794 23.3742 2.66699 22.667 2.66699H9.33366ZM9.33366 5.33366H22.667V9.33366H9.33366V5.33366ZM9.33366 12.0003H22.667V16.0003H9.33366V12.0003ZM9.33366 18.667H14.667V25.3337H9.33366V18.667ZM17.3337 18.667H22.667V25.3337H17.3337V18.667ZM10.667 20.0003V24.0003H13.3337V20.0003H10.667ZM18.667 20.0003V24.0003H21.3337V20.0003H18.667Z" fill="#2196F3"/>
</svg>
