<svg width="32" height="32" viewBox="0 0 32 32" fill="none" xmlns="http://www.w3.org/2000/svg">
<path d="M9.33398 12H9.34732M22.334 16H29.334L24.6673 25.3333L20.5473 19.5733" stroke="#2196F3" stroke-width="2" stroke-linecap="round" stroke-linejoin="round"/>
<path d="M2.66699 25.3332H7.68033C8.1773 25.3367 8.66535 25.2012 9.08942 24.942C9.51349 24.6829 9.85669 24.3104 10.0803 23.8666L12.0003 19.9999M2.66699 27.9999V22.6666M24.0003 12.6666L18.667 23.3332L4.81366 16.3999C3.8941 15.9367 3.19546 15.1281 2.87062 14.1511C2.54577 13.1741 2.62118 12.1081 3.08033 11.1866L4.92033 7.46655C5.14966 7.00952 5.46678 6.60213 5.85358 6.26767C6.24037 5.9332 6.68927 5.67821 7.17462 5.51725C7.65998 5.35629 8.17228 5.29252 8.68229 5.32957C9.19229 5.36663 9.69 5.50379 10.147 5.73322L24.0003 12.6666Z" stroke="#2196F3" stroke-width="2" stroke-linecap="round" stroke-linejoin="round"/>
</svg>
