<svg width="25" height="25" viewBox="0 0 25 25" fill="none" xmlns="http://www.w3.org/2000/svg">
<path d="M19.364 18.5411C19.4337 18.6108 19.489 18.6935 19.5267 18.7845C19.5644 18.8756 19.5838 18.9732 19.5838 19.0717C19.5838 19.1703 19.5644 19.2678 19.5267 19.3589C19.489 19.4499 19.4337 19.5326 19.364 19.6023C19.2944 19.672 19.2116 19.7273 19.1206 19.765C19.0296 19.8027 18.932 19.8221 18.8334 19.8221C18.7349 19.8221 18.6373 19.8027 18.5463 19.765C18.4552 19.7273 18.3725 19.672 18.3028 19.6023L12.0834 13.382L5.86405 19.6023C5.72332 19.7431 5.53245 19.8221 5.33342 19.8221C5.1344 19.8221 4.94353 19.7431 4.8028 19.6023C4.66207 19.4616 4.58301 19.2707 4.58301 19.0717C4.58301 18.8727 4.66207 18.6818 4.8028 18.5411L11.0231 12.3217L4.8028 6.10233C4.66207 5.9616 4.58301 5.77073 4.58301 5.57171C4.58301 5.37268 4.66207 5.18181 4.8028 5.04108C4.94353 4.90035 5.1344 4.82129 5.33342 4.82129C5.53245 4.82129 5.72332 4.90035 5.86405 5.04108L12.0834 11.2614L18.3028 5.04108C18.4435 4.90035 18.6344 4.82129 18.8334 4.82129C19.0324 4.82129 19.2233 4.90035 19.364 5.04108C19.5048 5.18181 19.5838 5.37268 19.5838 5.57171C19.5838 5.77073 19.5048 5.9616 19.364 6.10233L13.1437 12.3217L19.364 18.5411Z" fill="#8B8B8B"/>
</svg>
