<svg width="32" height="32" viewBox="0 0 32 32" fill="none" xmlns="http://www.w3.org/2000/svg">
<path d="M26.3329 13.3334C26.3329 13.0682 26.2275 12.8139 26.04 12.6263C25.8525 12.4388 25.5981 12.3334 25.3329 12.3334C25.0677 12.3334 24.8133 12.4388 24.6258 12.6263C24.4382 12.8139 24.3329 13.0682 24.3329 13.3334H26.3329ZM7.66622 13.3334C7.66622 13.0682 7.56086 12.8139 7.37333 12.6263C7.18579 12.4388 6.93144 12.3334 6.66622 12.3334C6.401 12.3334 6.14665 12.4388 5.95911 12.6263C5.77158 12.8139 5.66622 13.0682 5.66622 13.3334H7.66622ZM27.2929 16.7068C27.3844 16.805 27.4948 16.8838 27.6175 16.9385C27.7402 16.9931 27.8726 17.0225 28.0069 17.0249C28.1411 17.0273 28.2745 17.0026 28.399 16.9523C28.5235 16.902 28.6366 16.8271 28.7316 16.7321C28.8266 16.6372 28.9014 16.5241 28.9517 16.3996C29.002 16.275 29.0267 16.1417 29.0243 16.0074C29.022 15.8731 28.9926 15.7407 28.9379 15.618C28.8833 15.4954 28.8045 15.385 28.7062 15.2934L27.2929 16.7068ZM15.9996 4.0001L16.7062 3.29343C16.5187 3.10616 16.2646 3.00098 15.9996 3.00098C15.7346 3.00098 15.4804 3.10616 15.2929 3.29343L15.9996 4.0001ZM3.29289 15.2934C3.19464 15.385 3.11584 15.4954 3.06118 15.618C3.00652 15.7407 2.97713 15.8731 2.97477 16.0074C2.9724 16.1417 2.9971 16.275 3.04739 16.3996C3.09768 16.5241 3.17254 16.6372 3.2675 16.7321C3.36246 16.8271 3.47557 16.902 3.60009 16.9523C3.72461 17.0026 3.85798 17.0273 3.99225 17.0249C4.12652 17.0225 4.25894 16.9931 4.3816 16.9385C4.50427 16.8838 4.61467 16.805 4.70622 16.7068L3.29289 15.2934ZM9.33289 29.0001H22.6662V27.0001H9.33289V29.0001ZM26.3329 25.3334V13.3334H24.3329V25.3334H26.3329ZM7.66622 25.3334V13.3334H5.66622V25.3334H7.66622ZM28.7062 15.2934L16.7062 3.29343L15.2929 4.70676L27.2929 16.7068L28.7062 15.2934ZM15.2929 3.29343L3.29289 15.2934L4.70622 16.7068L16.7062 4.70676L15.2929 3.29343ZM22.6662 29.0001C23.6387 29.0001 24.5713 28.6138 25.2589 27.9262C25.9466 27.2385 26.3329 26.3059 26.3329 25.3334H24.3329C24.3329 26.2534 23.5862 27.0001 22.6662 27.0001V29.0001ZM9.33289 27.0001C8.41289 27.0001 7.66622 26.2534 7.66622 25.3334H5.66622C5.66622 26.3059 6.05253 27.2385 6.74016 27.9262C7.4278 28.6138 8.36043 29.0001 9.33289 29.0001V27.0001Z" fill="#2196F3"/>
<path d="M18.777 16.3329H18.6692C18.7844 15.9459 18.8077 15.5374 18.7372 15.1398C18.6666 14.7423 18.5042 14.3667 18.2629 14.043C18.0216 13.7193 17.708 13.4565 17.3471 13.2754C16.9862 13.0943 16.588 13 16.1843 13C15.7805 13 15.3823 13.0943 15.0215 13.2754C14.6606 13.4565 14.347 13.7193 14.1056 14.043C13.8643 14.3667 13.7019 14.7423 13.6314 15.1398C13.5608 15.5374 13.5841 15.9459 13.6994 16.3329H13.5915C13.2016 16.3331 12.8167 16.4212 12.4656 16.5907C12.1144 16.7602 11.806 17.0068 11.5633 17.312C11.3207 17.6172 11.15 17.9732 11.0639 18.3535C10.9779 18.7338 10.9787 19.1287 11.0664 19.5086C11.1541 19.8885 11.3263 20.2438 11.5703 20.548C11.8143 20.8522 12.1237 21.0974 12.4756 21.2654C12.8275 21.4334 13.2127 21.5199 13.6026 21.5184C13.9925 21.5169 14.3771 21.4275 14.7277 21.2568L14.348 22.5231C14.3314 22.5784 14.328 22.6368 14.338 22.6937C14.348 22.7506 14.3711 22.8043 14.4056 22.8506C14.44 22.897 14.4848 22.9346 14.5364 22.9605C14.588 22.9865 14.645 23 14.7027 23H17.6659C17.7236 23 17.7805 22.9865 17.8321 22.9605C17.8837 22.9346 17.9285 22.897 17.963 22.8506C17.9974 22.8043 18.0206 22.7506 18.0306 22.6937C18.0406 22.6368 18.0371 22.5784 18.0205 22.5231L17.6409 21.2568C17.9914 21.4275 18.376 21.5169 18.7659 21.5184C19.1559 21.5199 19.5411 21.4334 19.893 21.2654C20.2448 21.0974 20.5543 20.8522 20.7983 20.548C21.0423 20.2438 21.2145 19.8885 21.3022 19.5086C21.3898 19.1287 21.3907 18.7338 21.3046 18.3535C21.2186 17.9732 21.0479 17.6172 20.8052 17.312C20.5625 17.0068 20.2541 16.7602 19.903 16.5907C19.5518 16.4212 19.167 16.3331 18.777 16.3329ZM18.777 20.7776C18.4704 20.7776 18.1686 20.7014 17.8987 20.5559C17.6288 20.4105 17.3993 20.2003 17.2306 19.9442C17.1815 19.8704 17.1075 19.8166 17.0221 19.7926C16.9367 19.7687 16.8455 19.7762 16.7651 19.8139C16.6848 19.8515 16.6206 19.9167 16.5843 19.9976C16.5479 20.0786 16.5419 20.1699 16.5672 20.2549L17.1691 22.2578H15.2013L15.8032 20.2549C15.8301 20.1693 15.825 20.0768 15.7888 19.9947C15.7526 19.9125 15.6879 19.8463 15.6066 19.8084C15.5252 19.7704 15.4329 19.7632 15.3467 19.7882C15.2605 19.8132 15.1863 19.8687 15.1379 19.9442C14.9465 20.2341 14.6775 20.4643 14.3615 20.6085C14.0456 20.7528 13.6954 20.8053 13.351 20.76C13.0067 20.7147 12.682 20.5736 12.414 20.3525C12.1461 20.1315 11.9457 19.8396 11.8357 19.5102C11.7257 19.1807 11.7106 18.827 11.7921 18.4893C11.8736 18.1517 12.0484 17.8438 12.2965 17.6007C12.5447 17.3577 12.8562 17.1893 13.1954 17.1149C13.5347 17.0404 13.8881 17.0629 14.2152 17.1797C14.2886 17.206 14.3685 17.2084 14.4434 17.1866C14.5183 17.1648 14.5844 17.1199 14.6323 17.0583C14.6802 16.9967 14.7074 16.9216 14.71 16.8436C14.7127 16.7656 14.6907 16.6888 14.6471 16.6241C14.4598 16.3454 14.3519 16.021 14.3347 15.6857C14.3176 15.3503 14.3919 15.0166 14.5498 14.7203C14.7077 14.4239 14.9432 14.1761 15.2311 14.0033C15.519 13.8305 15.8485 13.7392 16.1843 13.7392C16.5201 13.7392 16.8495 13.8305 17.1374 14.0033C17.4253 14.1761 17.6608 14.4239 17.8187 14.7203C17.9766 15.0166 18.051 15.3503 18.0338 15.6857C18.0167 16.021 17.9087 16.3454 17.7214 16.6241C17.6779 16.6888 17.6558 16.7656 17.6585 16.8436C17.6612 16.9216 17.6884 16.9967 17.7363 17.0583C17.7842 17.1199 17.8503 17.1648 17.9252 17.1866C18.0001 17.2084 18.0799 17.206 18.1534 17.1797C18.4074 17.0898 18.678 17.0565 18.9463 17.082C19.2146 17.1075 19.474 17.1912 19.7066 17.3274C19.9391 17.4635 20.1392 17.6487 20.2928 17.8702C20.4463 18.0916 20.5497 18.3438 20.5958 18.6094C20.6418 18.8749 20.6293 19.1472 20.5592 19.4074C20.4891 19.6676 20.3631 19.9094 20.1899 20.1158C20.0167 20.3223 19.8006 20.4885 19.5566 20.6028C19.3125 20.7171 19.0465 20.7767 18.777 20.7776Z" fill="#2196F3"/>
</svg>
