<svg width="32" height="32" viewBox="0 0 32 32" fill="none" xmlns="http://www.w3.org/2000/svg">
<path d="M10.6671 25.6662H11.944V16.3062C12.6258 16.1685 13.1944 15.8531 13.6499 15.3601C14.1054 14.8661 14.3331 14.2609 14.3331 13.5444V8.33289C14.3331 8.17785 14.2797 8.04641 14.1728 7.93856C14.0649 7.83167 13.9335 7.77822 13.7784 7.77822C13.6224 7.77822 13.4905 7.83167 13.3827 7.93856C13.2758 8.04641 13.2223 8.17785 13.2223 8.33289V12.945H11.8617V8.33289C11.8617 8.17785 11.8077 8.04641 11.6999 7.93856C11.593 7.83167 11.4616 7.77822 11.3056 7.77822C11.1496 7.77822 11.0181 7.83167 10.9112 7.93856C10.8034 8.04641 10.7494 8.17785 10.7494 8.33289V12.945H9.38878V8.33289C9.38878 8.17785 9.33533 8.04641 9.22844 7.93856C9.12059 7.83167 8.98867 7.77822 8.83267 7.77822C8.67763 7.77822 8.54619 7.83167 8.43833 7.93856C8.33144 8.04641 8.278 8.17785 8.278 8.33289V13.5444C8.278 14.2609 8.50574 14.8661 8.96122 15.3601C9.4167 15.8541 9.98485 16.1695 10.6657 16.3062L10.6671 25.6662ZM19.3338 25.6662H20.6107V16.6616C21.3868 16.3688 22.0021 15.8291 22.4567 15.0423C22.9112 14.2546 23.1384 13.3138 23.1384 12.2199C23.1384 10.9391 22.837 9.87893 22.2342 9.03922C21.6314 8.19856 20.8774 7.77822 19.9722 7.77822C19.067 7.77822 18.313 8.19856 17.7102 9.03922C17.1074 9.87989 16.806 10.9401 16.806 12.2199C16.806 13.3138 17.0333 14.2546 17.4878 15.0423C17.9423 15.8291 18.5576 16.3683 19.3338 16.6601V25.6662ZM5.33278 29C4.66833 29 4.11367 28.7776 3.66878 28.3327C3.22293 27.8868 3 27.3317 3 26.6672V5.33278C3 4.66833 3.22293 4.11367 3.66878 3.66878C4.11367 3.22293 4.66833 3 5.33278 3H26.6672C27.3317 3 27.8863 3.22293 28.3312 3.66878C28.7771 4.11367 29 4.66833 29 5.33278V26.6672C29 27.3317 28.7776 27.8863 28.3327 28.3312C27.8868 28.7771 27.3317 29 26.6672 29H5.33278ZM5.33278 27.5556H26.6672C26.8887 27.5556 27.0924 27.4631 27.2782 27.2782C27.4631 27.0924 27.5556 26.8887 27.5556 26.6672V5.33278C27.5556 5.1113 27.4631 4.90763 27.2782 4.72178C27.0924 4.53689 26.8887 4.44444 26.6672 4.44444H5.33278C5.1113 4.44444 4.90763 4.53689 4.72178 4.72178C4.53689 4.90763 4.44444 5.1113 4.44444 5.33278V26.6672C4.44444 26.8887 4.53689 27.0924 4.72178 27.2782C4.90763 27.4631 5.1113 27.5556 5.33278 27.5556Z" fill="#2196F3"/>
</svg>
