<svg width="32" height="32" viewBox="0 0 32 32" fill="none" xmlns="http://www.w3.org/2000/svg">
<path d="M10.1375 13.1553C10.1375 13.1553 9.8362 12.9833 9.62109 11.0024H12.6349C12.6349 11.0024 12.506 12.6816 12.0322 13.1553" fill="#2196F3"/>
<path d="M16.862 24.7513H15.1398V14.8491L7.38867 14.806V13.1704H24.6109V14.806L16.8598 14.8491L16.862 24.7513Z" fill="#2196F3"/>
<path d="M21.1826 18.3289L21.1759 24.7511H19.451L19.4648 16.6089H28.0781V7.52441H29.8004V24.7466H28.0781V18.3333L21.1826 18.3289ZM3.93902 18.3333V24.7466H2.2168V7.52441H3.93902V16.6089H12.5524V24.7466H10.8301V18.3333H3.93902Z" fill="#2196F3"/>
<path d="M10.1326 13.1556C10.1326 13.1556 9.83035 12.9832 9.61523 11.0005H12.6339C12.6339 11.0005 12.5046 12.6814 12.0303 13.1556" stroke="#2196F3" stroke-width="0.5" stroke-miterlimit="10" stroke-linecap="round" stroke-linejoin="round"/>
<path d="M16.8614 24.7512H15.1365V14.8357L7.37207 14.7926V13.1548H24.621V14.7926L16.8565 14.8357L16.8614 24.7512Z" stroke="#2196F3" stroke-width="0.5" stroke-miterlimit="10" stroke-linecap="round" stroke-linejoin="round"/>
<path d="M10.3951 8.97351C10.3951 8.97351 10.6538 8.11129 10.3951 7.24951M11.5996 8.97351C11.5996 8.97351 11.8582 8.19751 11.5996 7.46507M21.1685 18.3291L21.1729 24.7513H19.448V16.6046H28.0747V7.51129H29.7991V24.7513H28.0747V18.3291H21.1685ZM12.5507 16.6046V24.7513H10.8258V18.3291H3.92801V24.7157L2.20312 24.7513V7.51129H3.92801V16.6046H12.5507Z" stroke="#2196F3" stroke-width="0.5" stroke-miterlimit="10" stroke-linecap="round" stroke-linejoin="round"/>
</svg>
