<svg width="32" height="33" viewBox="0 0 32 33" fill="none" xmlns="http://www.w3.org/2000/svg">
<path d="M15.4932 24.5C14.3174 24.5 13.2124 24.2776 12.1782 23.8328C11.1446 23.3879 10.2459 22.7821 9.482 22.0154C8.71757 21.2482 8.11293 20.3489 7.6681 19.3176C7.2227 18.2862 7 17.1826 7 16.0068C7 14.8185 7.22242 13.7078 7.66725 12.6748C8.11208 11.6412 8.71785 10.7402 9.48455 9.9718C10.2518 9.2034 11.1511 8.59933 12.1824 8.1596C13.2138 7.71987 14.3177 7.5 15.4941 7.5C16.6841 7.5 17.7958 7.71987 18.8294 8.1596C19.8636 8.59933 20.764 9.20255 21.5307 9.96925C22.2975 10.736 22.9007 11.6364 23.3404 12.6706C23.7801 13.7047 24 14.8165 24 16.0059C24 17.1824 23.7801 18.2862 23.3404 19.3176C22.9007 20.3489 22.2966 21.2482 21.5282 22.0154C20.7598 22.7821 19.8588 23.3879 18.8252 23.8328C17.7922 24.2776 16.6815 24.5 15.4932 24.5ZM15.5 23.65C17.6392 23.65 19.4491 22.9096 20.9298 21.4289C22.4105 19.9482 23.1506 18.1386 23.15 16C23.15 13.8608 22.4096 12.0512 20.9289 10.571C19.4482 9.09092 17.6386 8.35057 15.5 8.35C13.3608 8.35 11.5512 9.09035 10.071 10.571C8.59092 12.0517 7.85057 13.8614 7.85 16C7.85 18.1392 8.59035 19.9491 10.071 21.4298C11.5517 22.9105 13.3614 23.6506 15.5 23.65Z" fill="#2196F3"/>
<circle cx="15.2883" cy="15.7863" r="2.55" fill="#FF3B3C"/>
<path d="M25.4969 3.44418C25.466 3.16976 25.2186 2.9723 24.9442 3.00313L20.4723 3.50551C20.1979 3.53634 20.0004 3.78379 20.0313 4.05821C20.0621 4.33262 20.3095 4.53009 20.584 4.49926L24.5589 4.05269L25.0055 8.02769C25.0363 8.30211 25.2838 8.49957 25.5582 8.46874C25.8326 8.43791 26.0301 8.19046 25.9993 7.91605L25.4969 3.44418ZM20.3908 10.0775L25.3908 3.81187L24.6092 3.18813L19.6092 9.45375L20.3908 10.0775Z" fill="#2196F3"/>
<path d="M6.67992 29.6818C6.75784 29.9467 7.03577 30.0983 7.30069 30.0204L11.6178 28.7507C11.8828 28.6727 12.0344 28.3948 11.9564 28.1299C11.8785 27.865 11.6006 27.7134 11.3357 27.7913L7.49821 28.92L6.36954 25.0825C6.29162 24.8176 6.0137 24.666 5.74877 24.7439C5.48385 24.8218 5.33226 25.0997 5.41017 25.3647L6.67992 29.6818ZM10.5611 22.2606L6.72066 29.3013L7.59855 29.7801L11.4389 22.7394L10.5611 22.2606Z" fill="#2196F3"/>
</svg>
