<svg width="32" height="32" viewBox="0 0 32 32" fill="none" xmlns="http://www.w3.org/2000/svg">
<path d="M24.1067 9.33323C23.9315 9.31865 23.7551 9.33886 23.5878 9.39271C23.4204 9.44655 23.2653 9.53297 23.1315 9.64698C22.9977 9.76099 22.8877 9.90034 22.8079 10.057C22.7282 10.2137 22.6802 10.3846 22.6667 10.5599L22.2 16.6266C21.5835 16.4357 21.0304 16.0808 20.6 15.5999C20.4749 15.458 20.321 15.3444 20.1486 15.2666C19.9762 15.1887 19.7892 15.1485 19.6 15.1485C19.4109 15.1485 19.2239 15.1887 19.0515 15.2666C18.879 15.3444 18.7252 15.458 18.6 15.5999C18.2691 15.9595 17.8672 16.2466 17.4197 16.4429C16.9721 16.6393 16.4887 16.7406 16 16.7406C15.5113 16.7406 15.0279 16.6393 14.5804 16.4429C14.1329 16.2466 13.731 15.9595 13.4 15.5999C13.2749 15.458 13.121 15.3444 12.9486 15.2666C12.7762 15.1887 12.5892 15.1485 12.4 15.1485C12.2109 15.1485 12.0239 15.1887 11.8515 15.2666C11.679 15.3444 11.5252 15.458 11.4 15.5999C10.9683 16.0793 10.4157 16.4339 9.80004 16.6266L9.33337 10.5599C9.31991 10.3846 9.27191 10.2137 9.19214 10.057C9.11238 9.90034 9.00241 9.76099 8.86857 9.64698C8.73473 9.53297 8.57967 9.44655 8.41231 9.39271C8.24494 9.33886 8.06858 9.31865 7.89337 9.33323C7.71807 9.34669 7.54717 9.39468 7.39049 9.47445C7.23381 9.55422 7.09446 9.66419 6.98045 9.79803C6.86644 9.93186 6.78003 10.0869 6.72618 10.2543C6.67234 10.4217 6.65212 10.598 6.6667 10.7732L7.81337 25.6399C7.89078 26.6467 8.34615 27.587 9.08807 28.2721C9.82999 28.9571 10.8036 29.3362 11.8134 29.3332H20.2134C21.2232 29.3362 22.1967 28.9571 22.9387 28.2721C23.6806 27.587 24.136 26.6467 24.2134 25.6399L25.3334 10.7732C25.3479 10.598 25.3277 10.4217 25.2739 10.2543C25.22 10.0869 25.1336 9.93186 25.0196 9.79803C24.9056 9.66419 24.7663 9.55422 24.6096 9.47445C24.4529 9.39468 24.282 9.34669 24.1067 9.33323ZM21.52 25.4399C21.4932 25.7747 21.3409 26.0871 21.0937 26.3145C20.8465 26.5419 20.5226 26.6676 20.1867 26.6666H11.8C11.4641 26.6676 11.1402 26.5419 10.893 26.3145C10.6458 26.0871 10.4936 25.7747 10.4667 25.4399L10 19.3332C10.8645 19.1526 11.6818 18.7938 12.4 18.2799C13.4516 19.0274 14.7098 19.4291 16 19.4291C17.2902 19.4291 18.5485 19.0274 19.6 18.2799C20.3182 18.7938 21.1356 19.1526 22 19.3332L21.52 25.4399ZM16 13.3332C17.1482 13.3297 18.2484 12.872 19.0603 12.0601C19.8722 11.2482 20.3299 10.1481 20.3334 8.99989C20.3334 5.33323 16.8934 2.98656 16.7467 2.89323C16.5262 2.74419 16.2662 2.66455 16 2.66455C15.7339 2.66455 15.4739 2.74419 15.2534 2.89323C15.1067 2.99989 11.6667 5.33323 11.6667 8.99989C11.6702 10.1481 12.1279 11.2482 12.9398 12.0601C13.7517 12.872 14.8518 13.3297 16 13.3332ZM16 5.73323C16.9649 6.55952 17.564 7.73374 17.6667 8.99989C17.6667 9.44192 17.4911 9.86584 17.1785 10.1784C16.866 10.491 16.4421 10.6666 16 10.6666C15.558 10.6666 15.1341 10.491 14.8215 10.1784C14.509 9.86584 14.3334 9.44192 14.3334 8.99989C14.4431 7.73573 15.0409 6.56402 16 5.73323Z" fill="#2196F3"/>
</svg>
