<svg width="32" height="32" viewBox="0 0 32 32" fill="none" xmlns="http://www.w3.org/2000/svg">
<path d="M6.66699 13.3333H25.3337M12.0003 17.3333V21.3333M12.0003 8V9.33333M6.66699 6.66667C6.66699 5.95942 6.94794 5.28115 7.44804 4.78105C7.94814 4.28095 8.62641 4 9.33366 4H22.667C23.3742 4 24.0525 4.28095 24.5526 4.78105C25.0527 5.28115 25.3337 5.95942 25.3337 6.66667V25.3333C25.3337 26.0406 25.0527 26.7189 24.5526 27.219C24.0525 27.719 23.3742 28 22.667 28H9.33366C8.62641 28 7.94814 27.719 7.44804 27.219C6.94794 26.7189 6.66699 26.0406 6.66699 25.3333V6.66667Z" stroke="#2196F3" stroke-width="2" stroke-linecap="round" stroke-linejoin="round"/>
</svg>
