<svg width="32" height="33" viewBox="0 0 32 33" fill="none" xmlns="http://www.w3.org/2000/svg">
<g clip-path="url(#clip0_377_56974)">
<path d="M8 8.5C8 6.37827 8.84285 4.34344 10.3431 2.84315C11.8434 1.34285 13.8783 0.5 16 0.5C18.1217 0.5 20.1566 1.34285 21.6569 2.84315C23.1571 4.34344 24 6.37827 24 8.5V12.5H24.5C26.432 12.5 28 14.068 28 16V27C28 27.9283 27.6313 28.8185 26.9749 29.4749C26.3185 30.1313 25.4283 30.5 24.5 30.5H7.5C6.57174 30.5 5.6815 30.1313 5.02513 29.4749C4.36875 28.8185 4 27.9283 4 27V16C4 14.068 5.568 12.5 7.5 12.5H8V8.5ZM24.5 15.5H7.5C7.36739 15.5 7.24021 15.5527 7.14645 15.6464C7.05268 15.7402 7 15.8674 7 16V27C7 27.276 7.224 27.5 7.5 27.5H24.5C24.6326 27.5 24.7598 27.4473 24.8536 27.3536C24.9473 27.2598 25 27.1326 25 27V16C25 15.8674 24.9473 15.7402 24.8536 15.6464C24.7598 15.5527 24.6326 15.5 24.5 15.5ZM21 12.5V8.5C21 7.17392 20.4732 5.90215 19.5355 4.96447C18.5979 4.02678 17.3261 3.5 16 3.5C14.6739 3.5 13.4021 4.02678 12.4645 4.96447C11.5268 5.90215 11 7.17392 11 8.5V12.5H21Z" fill="#2196F3"/>
</g>
<defs>
<clipPath id="clip0_377_56974">
<rect width="32" height="32" fill="white" transform="translate(0 0.5)"/>
</clipPath>
</defs>
</svg>
