<svg width="32" height="33" viewBox="0 0 32 33" fill="none" xmlns="http://www.w3.org/2000/svg">
<g clip-path="url(#clip0_377_56978)">
<path d="M27.2875 6.54272L19.7025 4.26772L23.4525 2.39272C23.6894 2.27338 23.8691 2.06482 23.9522 1.81294C24.0353 1.56105 24.015 1.28647 23.8956 1.0496C23.7763 0.812727 23.5677 0.632968 23.3158 0.549866C23.064 0.466764 22.7894 0.487126 22.5525 0.606474L16.75 3.50647C14.1422 3.57423 11.6639 4.65732 9.84284 6.52511C8.02174 8.39291 7.00173 10.8978 7 13.5065V26.5002C7 26.7654 7.10536 27.0198 7.29289 27.2073C7.48043 27.3949 7.73478 27.5002 8 27.5002C8.26522 27.5002 8.51957 27.3949 8.70711 27.2073C8.89464 27.0198 9 26.7654 9 26.5002V22.5002H11V29.5002C11 30.0307 11.2107 30.5394 11.5858 30.9144C11.9609 31.2895 12.4696 31.5002 13 31.5002H21C21.5304 31.5002 22.0391 31.2895 22.4142 30.9144C22.7893 30.5394 23 30.0307 23 29.5002V13.5002C22.998 12.083 22.4951 10.712 21.5802 9.62965C20.6652 8.54728 19.3971 7.82315 18 7.58522V5.84397L26.7125 8.45772C26.8392 8.499 26.9729 8.51453 27.1057 8.5034C27.2385 8.49227 27.3678 8.4547 27.4859 8.39291C27.6039 8.33112 27.7085 8.24635 27.7933 8.14358C27.8782 8.04081 27.9416 7.92211 27.98 7.79447C28.0183 7.66682 28.0307 7.53281 28.0165 7.40029C28.0023 7.26778 27.9617 7.13944 27.8972 7.02283C27.8327 6.90621 27.7456 6.80366 27.6408 6.72121C27.5361 6.63877 27.416 6.57808 27.2875 6.54272ZM9 20.5002V13.5002C9.00242 11.5526 9.71449 9.6726 11.0029 8.21205C12.2914 6.75151 14.0679 5.81054 16 5.56522V7.58522C14.6029 7.82315 13.3348 8.54728 12.4198 9.62965C11.5049 10.712 11.002 12.083 11 13.5002V20.5002H9ZM21 29.5002H13V22.5002H21V29.5002ZM21 13.5002V20.5002H13V13.5002C13 12.4394 13.4214 11.4219 14.1716 10.6718C14.9217 9.92165 15.9391 9.50022 17 9.50022C18.0609 9.50022 19.0783 9.92165 19.8284 10.6718C20.5786 11.4219 21 12.4394 21 13.5002Z" fill="#2196F3"/>
</g>
<defs>
<clipPath id="clip0_377_56978">
<rect width="32" height="32" fill="white" transform="translate(0 0.5)"/>
</clipPath>
</defs>
</svg>
