<svg width="32" height="33" viewBox="0 0 32 33" fill="none" xmlns="http://www.w3.org/2000/svg">
<path d="M2.13379 6.3666C2.13379 5.94226 2.30236 5.53529 2.60242 5.23523C2.90248 4.93517 3.30944 4.7666 3.73379 4.7666H6.11032C6.30232 4.7666 6.49432 4.80074 6.67139 4.869L13.8949 7.57834C14.1999 7.69255 14.4628 7.89713 14.6484 8.16473C14.8341 8.43234 14.9336 8.75024 14.9338 9.07593V21.7906C14.9336 22.1163 14.8341 22.4342 14.6484 22.7018C14.4628 22.9694 14.1999 23.174 13.8949 23.2882L6.40046 26.0999V26.6333C6.40046 27.0576 6.23189 27.4646 5.93183 27.7646C5.63177 28.0647 5.2248 28.2333 4.80046 28.2333H3.73379C3.30944 28.2333 2.90248 28.0647 2.60242 27.7646C2.30236 27.4646 2.13379 27.0576 2.13379 26.6333V6.3666ZM8.53379 18.6034V8.21407C8.53379 8.10559 8.50071 7.99968 8.43896 7.91049C8.37721 7.8213 8.28973 7.75305 8.18819 7.71487L7.12152 7.31593C7.04082 7.28559 6.95397 7.27525 6.8684 7.28583C6.78283 7.2964 6.7011 7.32756 6.63021 7.37663C6.55932 7.42571 6.50139 7.49124 6.46137 7.56761C6.42136 7.64398 6.40046 7.72892 6.40046 7.81513V18.9597C6.40046 19.3223 6.75672 19.5805 7.10446 19.4653L8.17112 19.1111C8.27723 19.0753 8.36936 19.007 8.43445 18.9158C8.49955 18.8247 8.5343 18.7154 8.53379 18.6034ZM10.6671 9.41727V17.5389C10.6667 17.6238 10.6866 17.7075 10.7251 17.7832C10.7636 17.8588 10.8196 17.9242 10.8885 17.9739C10.9573 18.0235 11.037 18.056 11.121 18.0687C11.2049 18.0813 11.2907 18.0738 11.3711 18.0466L12.4378 17.6903C12.5439 17.6545 12.636 17.5862 12.7011 17.495C12.7662 17.4039 12.801 17.2946 12.8005 17.1826V9.81407C12.8005 9.70559 12.7674 9.59968 12.7056 9.51049C12.6439 9.4213 12.5564 9.35305 12.4549 9.31487L11.3882 8.91594C11.3075 8.88559 11.2206 8.87525 11.1351 8.88583C11.0495 8.8964 10.9678 8.92756 10.8969 8.97663C10.826 9.02571 10.7681 9.09124 10.728 9.16761C10.688 9.24398 10.6671 9.33105 10.6671 9.41727ZM29.8671 6.3666C29.8671 5.94226 29.6986 5.53529 29.3985 5.23523C29.0984 4.93517 28.6915 4.7666 28.2671 4.7666H25.8906C25.6989 4.76686 25.5089 4.80154 25.3295 4.869L18.1061 7.57834C17.801 7.69255 17.5381 7.89713 17.3525 8.16473C17.1668 8.43234 17.0673 8.75024 17.0671 9.07593V21.7906C17.0673 22.1163 17.1668 22.4342 17.3525 22.7018C17.5381 22.9694 17.801 23.174 18.1061 23.2882L25.6005 26.0999V26.6333C25.6005 27.5165 26.3173 28.2333 27.2005 28.2333H28.2671C28.6915 28.2333 29.0984 28.0647 29.3985 27.7646C29.6986 27.4646 29.8671 27.0576 29.8671 26.6333V6.3666ZM23.8298 19.1111C23.7237 19.0753 23.6316 19.007 23.5665 18.9158C23.5014 18.8247 23.4666 18.7154 23.4671 18.6034V8.21407C23.4671 8.10559 23.5002 7.99968 23.562 7.91049C23.6237 7.8213 23.7112 7.75305 23.8127 7.71487L24.8794 7.31593C24.9601 7.28559 25.0469 7.27525 25.1325 7.28583C25.2181 7.2964 25.2998 7.32756 25.3707 7.37663C25.4416 7.42571 25.4995 7.49124 25.5395 7.56761C25.5796 7.64398 25.6005 7.72892 25.6005 7.81513V18.9597C25.6005 19.0444 25.5804 19.1279 25.5417 19.2033C25.5031 19.2787 25.447 19.3438 25.3782 19.3932C25.3094 19.4426 25.2298 19.4749 25.1461 19.4874C25.0623 19.5 24.9767 19.4924 24.8965 19.4653L23.8298 19.1111ZM21.3338 9.41513V17.5367C21.3342 17.6216 21.3143 17.7054 21.2758 17.7811C21.2373 17.8567 21.1813 17.9221 21.1124 17.9718C21.0436 18.0214 20.9639 18.0539 20.8799 18.0666C20.796 18.0792 20.7102 18.0716 20.6298 18.0445L19.5631 17.6882C19.4574 17.6525 19.3655 17.5845 19.3004 17.4938C19.2354 17.4031 19.2004 17.2942 19.2005 17.1826V9.81407C19.2005 9.70559 19.2335 9.59968 19.2953 9.51049C19.357 9.4213 19.4445 9.35305 19.5461 9.31487L20.6127 8.91594C20.6934 8.88559 20.7803 8.87525 20.8658 8.88583C20.9514 8.8964 21.0331 8.92756 21.104 8.97663C21.1749 9.02571 21.2329 9.09124 21.2729 9.16761C21.3129 9.24398 21.3338 9.32892 21.3338 9.41513Z" fill="#2196F3"/>
</svg>
