<svg width="32" height="32" viewBox="0 0 32 32" fill="none" xmlns="http://www.w3.org/2000/svg">
<path d="M24.9999 18.0003H15.4124L15.7061 17.7066L18.2136 15.1991C19.2264 15.7091 20.3423 15.981 21.4761 15.9941C22.6174 15.9971 23.7374 15.6848 24.7124 15.0916C27.6774 13.2966 29.2661 9.14158 28.9624 3.97658C28.9481 3.73194 28.8445 3.50106 28.6712 3.32777C28.4979 3.15449 28.267 3.05087 28.0224 3.03658C22.8574 2.73408 18.7024 4.32158 16.9074 7.28658C15.7374 9.21783 15.7074 11.5503 16.7986 13.7866L14.9999 15.5853L13.4736 14.0591C14.2236 12.4028 14.1699 10.6841 13.2999 9.24908C11.9411 7.00033 8.82614 5.80158 4.96614 6.02783C4.72192 6.04238 4.4915 6.14596 4.31851 6.31895C4.14551 6.49195 4.04194 6.72236 4.02739 6.96658C3.79989 10.8253 4.99989 13.9403 7.24989 15.3003C8.00263 15.76 8.86792 16.0022 9.74989 16.0003C10.55 15.9924 11.3393 15.8138 12.0649 15.4766L13.5849 17.0003L12.5849 18.0003H6.99989C6.73467 18.0003 6.48032 18.1057 6.29278 18.2932C6.10524 18.4808 5.99989 18.7351 5.99989 19.0003C5.99989 19.2655 6.10524 19.5199 6.29278 19.7074C6.48032 19.895 6.73467 20.0003 6.99989 20.0003H8.19864L9.84989 27.4341C9.94668 27.8793 10.1934 28.2778 10.5488 28.5629C10.9042 28.848 11.3468 29.0024 11.8024 29.0003H20.1986C20.6543 29.0024 21.0968 28.848 21.4522 28.5629C21.8076 28.2778 22.0543 27.8793 22.1511 27.4341L23.8024 20.0003H24.9999C25.2651 20.0003 25.5195 19.895 25.707 19.7074C25.8945 19.5199 25.9999 19.2655 25.9999 19.0003C25.9999 18.7351 25.8945 18.4808 25.707 18.2932C25.5195 18.1057 25.2651 18.0003 24.9999 18.0003ZM18.6249 8.32283C19.9324 6.16533 23.0299 4.94783 26.9999 5.00158C27.0511 8.97783 25.8361 12.0741 23.6786 13.3766C22.2399 14.2516 20.5036 14.1941 18.7686 13.2291C17.8024 11.5003 17.7499 9.76158 18.6249 8.32283ZM11.5136 13.5141C10.3636 14.1303 9.22489 14.1591 8.28489 13.5891C6.84739 12.7178 6.01864 10.6641 5.99989 8.00033C8.66364 8.01908 10.7186 8.84783 11.5886 10.2853C12.1586 11.2253 12.1249 12.3641 11.5136 13.5141ZM20.1986 27.0003H11.8024L10.2499 20.0003H21.7499L20.1986 27.0003Z" fill="#2196F3"/>
</svg>
