<svg width="32" height="32" viewBox="0 0 32 32" fill="none" xmlns="http://www.w3.org/2000/svg">
<path d="M9.86634 9.33301H6.13301C5.92083 9.33301 5.71735 9.41729 5.56732 9.56732C5.41729 9.71735 5.33301 9.92083 5.33301 10.133V21.8663C5.33301 21.9714 5.3537 22.0754 5.3939 22.1725C5.43411 22.2695 5.49304 22.3577 5.56732 22.432C5.64161 22.5063 5.7298 22.5652 5.82686 22.6054C5.92392 22.6456 6.02795 22.6663 6.13301 22.6663H9.86634C9.9714 22.6663 10.0754 22.6456 10.1725 22.6054C10.2695 22.5652 10.3577 22.5063 10.432 22.432C10.5063 22.3577 10.5652 22.2695 10.6054 22.1725C10.6456 22.0754 10.6663 21.9714 10.6663 21.8663V10.133C10.6663 9.92083 10.5821 9.71735 10.432 9.56732C10.282 9.41729 10.0785 9.33301 9.86634 9.33301ZM25.8663 9.33301H22.133C21.9208 9.33301 21.7174 9.41729 21.5673 9.56732C21.4173 9.71735 21.333 9.92083 21.333 10.133V21.8663C21.333 21.9714 21.3537 22.0754 21.3939 22.1725C21.4341 22.2695 21.493 22.3577 21.5673 22.432C21.6416 22.5063 21.7298 22.5652 21.8269 22.6054C21.9239 22.6456 22.028 22.6663 22.133 22.6663H25.8663C25.9714 22.6663 26.0754 22.6456 26.1725 22.6054C26.2695 22.5652 26.3577 22.5063 26.432 22.432C26.5063 22.3577 26.5652 22.2695 26.6054 22.1725C26.6457 22.0754 26.6663 21.9714 26.6663 21.8663V10.133C26.6663 9.92083 26.5821 9.71735 26.432 9.56732C26.282 9.41729 26.0785 9.33301 25.8663 9.33301Z" stroke="#2196F3" stroke-width="1.5" stroke-linecap="round" stroke-linejoin="round"/>
<path d="M10.6663 16H21.333M1.33301 19.2V12.8C1.33301 12.5878 1.41729 12.3843 1.56732 12.2343C1.71735 12.0843 1.92083 12 2.13301 12H4.53301C4.74518 12 4.94866 12.0843 5.09869 12.2343C5.24872 12.3843 5.33301 12.5878 5.33301 12.8V19.2C5.33301 19.4122 5.24872 19.6157 5.09869 19.7657C4.94866 19.9157 4.74518 20 4.53301 20H2.13301C1.92083 20 1.71735 19.9157 1.56732 19.7657C1.41729 19.6157 1.33301 19.4122 1.33301 19.2ZM30.6663 19.2V12.8C30.6663 12.5878 30.5821 12.3843 30.432 12.2343C30.282 12.0843 30.0785 12 29.8663 12H27.4663C27.2542 12 27.0507 12.0843 26.9007 12.2343C26.7506 12.3843 26.6663 12.5878 26.6663 12.8V19.2C26.6663 19.4122 26.7506 19.6157 26.9007 19.7657C27.0507 19.9157 27.2542 20 27.4663 20H29.8663C30.0785 20 30.282 19.9157 30.432 19.7657C30.5821 19.6157 30.6663 19.4122 30.6663 19.2Z" stroke="#2196F3" stroke-width="1.5" stroke-linecap="round" stroke-linejoin="round"/>
</svg>
