<svg width="32" height="32" viewBox="0 0 32 32" fill="none" xmlns="http://www.w3.org/2000/svg">
<path d="M29.333 26.667V16.0003C29.333 15.2931 29.0521 14.6148 28.552 14.1147C28.0519 13.6146 27.3736 13.3337 26.6663 13.3337H19.9997V12.0003H17.333V20.0003H19.9997V18.667H23.9997V26.667H22.6663V29.3337H30.6663V26.667H29.333ZM27.9997 26.667H25.333V17.3337H19.9997V14.667H26.6663C27.02 14.667 27.3591 14.8075 27.6092 15.0575C27.8592 15.3076 27.9997 15.6467 27.9997 16.0003V26.667ZM11.9997 12.0003V13.3337H7.99967V5.33366H9.33301V2.66699H1.33301V5.33366H2.66634V16.0003C2.66634 16.7076 2.94729 17.3858 3.44739 17.8859C3.94749 18.386 4.62576 18.667 5.33301 18.667H11.9997V20.0003H14.6663V12.0003H11.9997ZM11.9997 17.3337H5.33301C4.97939 17.3337 4.64025 17.1932 4.3902 16.9431C4.14015 16.6931 3.99967 16.3539 3.99967 16.0003V5.33366H6.66634V14.667H11.9997V17.3337Z" fill="#2196F3"/>
</svg>
