<svg width="32" height="32" viewBox="0 0 32 32" fill="none" xmlns="http://www.w3.org/2000/svg">
<path d="M4.57503 4.095C4.33502 4.20501 4.18001 4.36502 4.075 4.61003C4.01 4.77504 4 5.57508 4 11.6004C4 17.6257 4.01 18.4258 4.075 18.5908C4.26001 19.0208 4.57503 19.1958 5.19006 19.2008H5.60008V19.8758C5.60008 20.5309 5.60508 20.5609 5.72509 20.6759C5.79009 20.7459 5.8801 20.8009 5.9251 20.8009C5.9901 20.8009 6.0001 20.9009 6.0001 21.4759C6.0001 22.1309 6.0051 22.1609 6.12511 22.276C6.22512 22.381 6.29512 22.401 6.52513 22.401H6.80015V22.846V23.291L6.65014 23.351C6.31012 23.491 6.0001 23.996 6.0001 24.4011C6.0001 24.8061 6.31012 25.3111 6.65014 25.4511L6.80015 25.5111V26.6362V27.7562L6.92515 27.8762C7.08516 28.0413 7.31517 28.0413 7.47518 27.8762L7.60019 27.7562V26.6362V25.5111L7.75019 25.4511C8.09021 25.3111 8.40023 24.8061 8.40023 24.4011C8.40023 23.996 8.09021 23.491 7.75019 23.351L7.60019 23.291V22.846V22.401H7.8752C8.10521 22.401 8.17522 22.381 8.27522 22.276C8.39523 22.1609 8.40023 22.1309 8.40023 21.4759C8.40023 20.9009 8.41023 20.8009 8.47523 20.8009C8.52023 20.8009 8.61024 20.7459 8.67524 20.6759C8.79525 20.5609 8.80025 20.5309 8.80025 19.8758V19.2008H10.8004H12.8005V19.8758C12.8005 20.5309 12.8055 20.5609 12.9255 20.6759C12.9905 20.7459 13.0805 20.8009 13.1255 20.8009C13.1905 20.8009 13.2005 20.9009 13.2005 21.4759C13.2005 22.1309 13.2055 22.1609 13.3255 22.276C13.4255 22.381 13.4955 22.401 13.7205 22.401H13.9905L14.0155 23.661C14.0405 24.9711 14.0555 25.0961 14.2955 25.6911C14.6456 26.5662 15.4856 27.3812 16.4006 27.7362C16.9857 27.9662 17.0007 27.9662 19.2208 27.9862C21.0609 28.0063 21.4209 27.9962 21.7659 27.9262C23.261 27.6212 24.4161 26.4762 24.7211 24.9911C24.7911 24.6561 24.8011 24.046 24.8011 20.4859V16.3706L25.0661 16.2006C25.2561 16.0706 25.3611 15.9556 25.4661 15.7556L25.6011 15.4806V13.2505V11.0204L26.0261 10.8004C26.7712 10.4253 27.4712 9.65529 27.7512 8.91026C28.1363 7.8902 28.0462 6.71514 27.5162 5.80009C27.2712 5.38507 26.6162 4.73004 26.2012 4.48502C26.0211 4.38002 25.6961 4.24001 25.4761 4.16501C25.1211 4.05 24.9961 4.035 24.4011 4.035C23.811 4.03 23.676 4.05 23.341 4.16001C23.131 4.23001 22.806 4.37002 22.616 4.47502C22.1659 4.72504 21.5259 5.36507 21.2759 5.81509C20.6309 6.98516 20.6609 8.42523 21.3559 9.50029C21.7409 10.1003 22.326 10.6103 22.916 10.8754L23.196 10.9954L23.211 13.2855L23.226 15.5756L23.371 15.8206C23.461 15.9756 23.601 16.1156 23.756 16.2156L24.001 16.3656V20.4459C24.001 24.9061 24.001 24.9011 23.706 25.5111C23.376 26.2012 22.706 26.7962 21.9759 27.0512C21.6309 27.1712 21.6009 27.1762 19.5358 27.1912C17.5657 27.2062 17.4207 27.2012 17.0407 27.1062C15.9856 26.8362 15.1706 26.0261 14.9006 24.9761C14.8156 24.6461 14.8006 24.4211 14.8006 23.491V22.401H15.0656C15.5306 22.396 15.6006 22.266 15.6006 21.4409V20.8259L15.7406 20.7609C15.9606 20.6659 16.0006 20.5109 16.0006 19.8258V19.2008H16.4156C17.0257 19.1958 17.3407 19.0208 17.5257 18.5908C17.5907 18.4258 17.6007 17.6257 17.6007 11.6004C17.6007 5.57508 17.5907 4.77504 17.5257 4.61003C17.4207 4.36502 17.2657 4.20501 17.0257 4.095C16.8357 4.005 16.5507 4 10.8004 4C5.05005 4 4.76504 4.005 4.57503 4.095ZM16.7407 4.86004C16.8257 4.94505 16.8257 18.2557 16.7407 18.3407C16.7007 18.3807 16.4056 18.4007 15.7406 18.4007H14.8006V12.8955C14.8006 8.70024 14.7856 7.34017 14.7406 7.18016C14.6606 6.91015 14.2755 6.52513 14.0205 6.45513C13.7455 6.38012 7.8502 6.38012 7.57519 6.45513C7.31017 6.53013 6.93015 6.91015 6.85515 7.17517C6.81515 7.31517 6.80015 9.01026 6.80015 12.8855V18.4007H5.8601C5.19506 18.4007 4.90005 18.3807 4.86004 18.3407C4.77504 18.2557 4.77504 4.94505 4.86004 4.86004C4.94505 4.77504 16.6557 4.77504 16.7407 4.86004ZM24.9311 4.85504C25.7461 5.00005 26.5312 5.60508 26.9062 6.37512C27.6612 7.9352 26.8862 9.7103 25.2011 10.2803C24.7961 10.4203 23.931 10.4053 23.531 10.2603C21.5409 9.53029 20.9609 7.10516 22.426 5.64009C23.096 4.97005 23.996 4.68503 24.9311 4.85504ZM13.9005 7.31017C14.0005 7.42018 14.0005 7.45518 14.0005 12.9105V18.4007H10.8004H7.60019V12.9005C7.60019 7.46518 7.60019 7.40018 7.70019 7.30017C7.8002 7.20016 7.8652 7.20016 10.8004 7.20016H13.7955L13.9005 7.31017ZM24.8011 13.2755V15.3556L24.6761 15.4756C24.6011 15.5556 24.4961 15.6006 24.4011 15.6006C24.3061 15.6006 24.201 15.5556 24.126 15.4756L24.001 15.3556V13.2755V11.2004H24.4011H24.8011V13.2755ZM8.00021 19.6008V20.0008H7.20017H6.40012V19.6008V19.2008H7.20017H8.00021V19.6008ZM15.2006 19.6008V20.0008H14.4005H13.6005V19.6008V19.2008H14.4005H15.2006V19.6008ZM7.60019 21.2009V21.6009H7.20017H6.80015V21.2009V20.8009H7.20017H7.60019V21.2009ZM14.8006 21.2009V21.6009H14.4005H14.0005V21.2009V20.8009H14.4005H14.8006V21.2009ZM7.47518 24.126C7.55518 24.2011 7.60019 24.3061 7.60019 24.4011C7.60019 24.4961 7.55518 24.6011 7.47518 24.6761C7.40018 24.7561 7.29517 24.8011 7.20017 24.8011C7.10516 24.8011 7.00016 24.7561 6.92515 24.6761C6.84515 24.6011 6.80015 24.4961 6.80015 24.4011C6.80015 24.3061 6.84515 24.2011 6.92515 24.126C7.00016 24.046 7.10516 24.001 7.20017 24.001C7.29517 24.001 7.40018 24.046 7.47518 24.126Z" fill="#2196F3"/>
<path d="M24.124 5.32496C24.044 5.39997 23.999 5.50497 23.999 5.59998C23.999 5.69498 24.044 5.79999 24.124 5.87499C24.199 5.955 24.304 6 24.399 6C24.494 6 24.5991 5.955 24.6741 5.87499C24.7541 5.79999 24.7991 5.69498 24.7991 5.59998C24.7991 5.50497 24.7541 5.39997 24.6741 5.32496C24.5991 5.24496 24.494 5.19996 24.399 5.19996C24.304 5.19996 24.199 5.24496 24.124 5.32496Z" fill="#2196F3"/>
<path d="M22.9277 6.12477C22.8477 6.19977 22.8027 6.30478 22.8027 6.39978C22.8027 6.49479 22.8477 6.59979 22.9277 6.6748C23.0027 6.7548 23.1078 6.7998 23.2028 6.7998C23.2978 6.7998 23.4028 6.7548 23.4778 6.6748C23.5578 6.59979 23.6028 6.49479 23.6028 6.39978C23.6028 6.30478 23.5578 6.19977 23.4778 6.12477C23.4028 6.04477 23.2978 5.99976 23.2028 5.99976C23.1078 5.99976 23.0027 6.04477 22.9277 6.12477Z" fill="#2196F3"/>
<path d="M25.3272 6.12477C25.2472 6.19977 25.2021 6.30478 25.2021 6.39978C25.2021 6.49479 25.2472 6.59979 25.3272 6.6748C25.4022 6.7548 25.5072 6.7998 25.6022 6.7998C25.6972 6.7998 25.8022 6.7548 25.8772 6.6748C25.9572 6.59979 26.0022 6.49479 26.0022 6.39978C26.0022 6.30478 25.9572 6.19977 25.8772 6.12477C25.8022 6.04477 25.6972 5.99976 25.6022 5.99976C25.5072 5.99976 25.4022 6.04477 25.3272 6.12477Z" fill="#2196F3"/>
<path d="M22.127 7.32496C22.047 7.39997 22.002 7.50497 22.002 7.59998C22.002 7.69498 22.047 7.79999 22.127 7.87499C22.202 7.955 22.307 8 22.402 8C22.497 8 22.602 7.955 22.677 7.87499C22.757 7.79999 22.802 7.69498 22.802 7.59998C22.802 7.50497 22.757 7.39997 22.677 7.32496C22.602 7.24496 22.497 7.19996 22.402 7.19996C22.307 7.19996 22.202 7.24496 22.127 7.32496Z" fill="#2196F3"/>
<path d="M24.124 7.32496C24.044 7.39997 23.999 7.50497 23.999 7.59998C23.999 7.69498 24.044 7.79999 24.124 7.87499C24.199 7.955 24.304 8 24.399 8C24.494 8 24.5991 7.955 24.6741 7.87499C24.7541 7.79999 24.7991 7.69498 24.7991 7.59998C24.7991 7.50497 24.7541 7.39997 24.6741 7.32496C24.5991 7.24496 24.494 7.19996 24.399 7.19996C24.304 7.19996 24.199 7.24496 24.124 7.32496Z" fill="#2196F3"/>
<path d="M26.1279 7.32496C26.0479 7.39997 26.0029 7.50497 26.0029 7.59998C26.0029 7.69498 26.0479 7.79999 26.1279 7.87499C26.2029 7.955 26.3079 8 26.403 8C26.498 8 26.603 7.955 26.678 7.87499C26.758 7.79999 26.803 7.69498 26.803 7.59998C26.803 7.50497 26.758 7.39997 26.678 7.32496C26.603 7.24496 26.498 7.19996 26.403 7.19996C26.3079 7.19996 26.2029 7.24496 26.1279 7.32496Z" fill="#2196F3"/>
<path d="M22.9277 8.52516C22.8477 8.60016 22.8027 8.70517 22.8027 8.80017C22.8027 8.89518 22.8477 9.00018 22.9277 9.07519C23.0027 9.15519 23.1078 9.2002 23.2028 9.2002C23.2978 9.2002 23.4028 9.15519 23.4778 9.07519C23.5578 9.00018 23.6028 8.89518 23.6028 8.80017C23.6028 8.70517 23.5578 8.60016 23.4778 8.52516C23.4028 8.44516 23.2978 8.40015 23.2028 8.40015C23.1078 8.40015 23.0027 8.44516 22.9277 8.52516Z" fill="#2196F3"/>
<path d="M25.3272 8.52516C25.2472 8.60016 25.2021 8.70517 25.2021 8.80017C25.2021 8.89518 25.2472 9.00018 25.3272 9.07519C25.4022 9.15519 25.5072 9.2002 25.6022 9.2002C25.6972 9.2002 25.8022 9.15519 25.8772 9.07519C25.9572 9.00018 26.0022 8.89518 26.0022 8.80017C26.0022 8.70517 25.9572 8.60016 25.8772 8.52516C25.8022 8.44516 25.6972 8.40015 25.6022 8.40015C25.5072 8.40015 25.4022 8.44516 25.3272 8.52516Z" fill="#2196F3"/>
<path d="M24.124 9.32496C24.044 9.39997 23.999 9.50497 23.999 9.59998C23.999 9.69498 24.044 9.79999 24.124 9.87499C24.199 9.955 24.304 10 24.399 10C24.494 10 24.5991 9.955 24.6741 9.87499C24.7541 9.79999 24.7991 9.69498 24.7991 9.59998C24.7991 9.50497 24.7541 9.39997 24.6741 9.32496C24.5991 9.24496 24.494 9.19996 24.399 9.19996C24.304 9.19996 24.199 9.24496 24.124 9.32496Z" fill="#2196F3"/>
<path d="M9.32423 8.12477C9.24422 8.19977 9.19922 8.30478 9.19922 8.39978C9.19922 8.49479 9.24422 8.59979 9.32423 8.6748L9.44423 8.7998H10.7993H12.1544L12.2744 8.6748C12.3544 8.59979 12.3994 8.49479 12.3994 8.39978C12.3994 8.30478 12.3544 8.19977 12.2744 8.12477L12.1544 7.99976H10.7993H9.44423L9.32423 8.12477Z" fill="#2196F3"/>
<path d="M9.72755 9.72536C9.64754 9.80036 9.60254 9.90536 9.60254 10.0004C9.60254 10.0954 9.64754 10.2004 9.72755 10.2754C9.84755 10.4004 9.85755 10.4004 10.8026 10.4004C11.7477 10.4004 11.7577 10.4004 11.8777 10.2754C11.9577 10.2004 12.0027 10.0954 12.0027 10.0004C12.0027 9.90536 11.9577 9.80036 11.8777 9.72536C11.7577 9.60035 11.7477 9.60035 10.8026 9.60035C9.85755 9.60035 9.84755 9.60035 9.72755 9.72536Z" fill="#2196F3"/>
<path d="M8.92872 11.325C8.84871 11.4 8.80371 11.505 8.80371 11.6C8.80371 11.695 8.84871 11.8 8.92872 11.875L9.04872 12H10.8038H12.5589L12.6789 11.875C12.7589 11.8 12.8039 11.695 12.8039 11.6C12.8039 11.505 12.7589 11.4 12.6789 11.325L12.5589 11.2H10.8038H9.04872L8.92872 11.325Z" fill="#2196F3"/>
<path d="M10.204 13.28C8.9389 13.62 8.15386 14.9351 8.47387 16.1752C8.80889 17.4552 10.119 18.2503 11.374 17.9252C12.6541 17.5902 13.4491 16.2802 13.1241 15.0351C12.7891 13.74 11.459 12.94 10.204 13.28ZM11.554 14.205C11.8891 14.3851 12.0441 14.5451 12.2391 14.9201C12.3491 15.1351 12.3691 15.2401 12.3691 15.6001C12.3691 15.9651 12.3491 16.0601 12.2341 16.2852C12.0641 16.6152 11.814 16.8652 11.484 17.0352C11.259 17.1502 11.164 17.1702 10.799 17.1702C10.439 17.1702 10.334 17.1502 10.119 17.0402C9.74394 16.8402 9.58393 16.6902 9.39392 16.3402C9.23891 16.0501 9.22391 15.9901 9.22891 15.6001C9.22891 15.2401 9.24891 15.1351 9.35892 14.9201C9.54893 14.5551 9.70394 14.3901 10.004 14.225C10.359 14.035 10.514 14 10.914 14.025C11.169 14.04 11.319 14.08 11.554 14.205Z" fill="#2196F3"/>
<path d="M10.7125 15.1155C10.4625 15.3656 10.3975 15.4656 10.3975 15.5856C10.3975 15.8256 10.5475 15.9756 10.7975 15.9756C10.9875 15.9756 11.0325 15.9456 11.3025 15.6656C11.6425 15.3106 11.6875 15.1355 11.4725 14.9255C11.2575 14.7055 11.0775 14.7505 10.7125 15.1155Z" fill="#2196F3"/>
</svg>
