<svg width="32" height="32" viewBox="0 0 32 32" fill="none" xmlns="http://www.w3.org/2000/svg">
<path d="M29 24.0004H25V21.0004H28C28.152 21.0003 28.3019 20.9657 28.4385 20.8991C28.575 20.8324 28.6946 20.7355 28.7881 20.6157C28.8816 20.496 28.9466 20.3565 28.9781 20.2078C29.0096 20.0592 29.0068 19.9053 28.97 19.7579L24.97 3.75787C24.9158 3.54164 24.7909 3.34972 24.6152 3.21259C24.4394 3.07546 24.2229 3.00098 24 3.00098C23.7771 3.00098 23.5606 3.07546 23.3848 3.21259C23.2091 3.34972 23.0842 3.54164 23.03 3.75787L19.03 19.7579C18.9932 19.9053 18.9904 20.0592 19.0219 20.2078C19.0534 20.3565 19.1184 20.496 19.2119 20.6157C19.3054 20.7355 19.425 20.8324 19.5615 20.8991C19.6981 20.9657 19.848 21.0003 20 21.0004H23V24.0004H15V22.0004H16C16.2652 22.0004 16.5196 21.895 16.7071 21.7075C16.8946 21.5199 17 21.2656 17 21.0004C17 20.7352 16.8946 20.4808 16.7071 20.2933C16.5196 20.1057 16.2652 20.0004 16 20.0004H15V18.0004H16C16.2652 18.0004 16.5196 17.895 16.7071 17.7075C16.8946 17.5199 17 17.2656 17 17.0004C17 16.7352 16.8946 16.4808 16.7071 16.2933C16.5196 16.1057 16.2652 16.0004 16 16.0004H5C4.73478 16.0004 4.48043 16.1057 4.29289 16.2933C4.10536 16.4808 4 16.7352 4 17.0004C4 17.2656 4.10536 17.5199 4.29289 17.7075C4.48043 17.895 4.73478 18.0004 5 18.0004H6V20.0004H5C4.73478 20.0004 4.48043 20.1057 4.29289 20.2933C4.10536 20.4808 4 20.7352 4 21.0004C4 21.2656 4.10536 21.5199 4.29289 21.7075C4.48043 21.895 4.73478 22.0004 5 22.0004H6V24.0004H3C2.73478 24.0004 2.48043 24.1057 2.29289 24.2933C2.10536 24.4808 2 24.7352 2 25.0004C2 25.2656 2.10536 25.5199 2.29289 25.7075C2.48043 25.895 2.73478 26.0004 3 26.0004H29C29.2652 26.0004 29.5196 25.895 29.7071 25.7075C29.8946 25.5199 30 25.2656 30 25.0004C30 24.7352 29.8946 24.4808 29.7071 24.2933C29.5196 24.1057 29.2652 24.0004 29 24.0004ZM24 8.12537L26.7188 19.0004H21.2812L24 8.12537ZM8 18.0004H13V20.0004H8V18.0004ZM8 22.0004H13V24.0004H8V22.0004ZM14.5 12.0004C15.1922 12.0004 15.8689 11.7951 16.4445 11.4105C17.0201 11.0259 17.4687 10.4793 17.7336 9.83976C17.9985 9.20022 18.0678 8.49649 17.9327 7.81756C17.7977 7.13862 17.4644 6.51498 16.9749 6.0255C16.4854 5.53601 15.8617 5.20267 15.1828 5.06762C14.5039 4.93258 13.8001 5.00189 13.1606 5.26679C12.5211 5.5317 11.9744 5.9803 11.5899 6.55588C11.2053 7.13145 11 7.80814 11 8.50037C11 9.42863 11.3687 10.3189 12.0251 10.9752C12.6815 11.6316 13.5717 12.0004 14.5 12.0004ZM14.5 7.00037C14.7967 7.00037 15.0867 7.08835 15.3334 7.25317C15.58 7.41799 15.7723 7.65226 15.8858 7.92635C15.9994 8.20044 16.0291 8.50204 15.9712 8.79301C15.9133 9.08398 15.7704 9.35125 15.5607 9.56103C15.3509 9.77081 15.0836 9.91367 14.7926 9.97155C14.5017 10.0294 14.2001 9.99972 13.926 9.88619C13.6519 9.77266 13.4176 9.5804 13.2528 9.33373C13.088 9.08705 13 8.79704 13 8.50037C13 8.10255 13.158 7.72102 13.4393 7.43971C13.7206 7.15841 14.1022 7.00037 14.5 7.00037Z" fill="#2196F3"/>
</svg>
