<svg width="32" height="32" viewBox="0 0 32 32" fill="none" xmlns="http://www.w3.org/2000/svg">
<path d="M13.5495 13.9061C13.0723 13.9061 12.6232 13.8051 12.2022 13.6033C11.7812 13.4003 11.3731 13.1709 10.978 12.9151C10.747 12.7596 10.5128 12.616 10.2753 12.4843C10.0378 12.3526 9.77977 12.2868 9.50125 12.2868C9.20438 12.2868 8.93774 12.3456 8.70132 12.4633C8.46383 12.5799 8.24037 12.7256 8.03094 12.9005C7.95213 12.9912 7.86199 13.0667 7.76052 13.1272C7.65904 13.1876 7.54569 13.2168 7.42047 13.2146C7.19053 13.2146 6.99298 13.1321 6.82781 12.9669C6.66264 12.8017 6.58006 12.6042 6.58006 12.3742C6.58006 12.2414 6.61029 12.1151 6.67074 11.9953C6.73119 11.8766 6.81809 11.7805 6.93144 11.7071C7.29848 11.4102 7.69737 11.163 8.1281 10.9654C8.55775 10.7668 9.01547 10.6675 9.50125 10.6675C9.95789 10.6675 10.3859 10.7701 10.7853 10.9752C11.1848 11.1803 11.5831 11.4005 11.9804 11.6358C12.2308 11.8129 12.4856 11.9656 12.7447 12.0941C13.0038 12.2226 13.272 12.2868 13.5495 12.2868C13.869 12.2868 14.371 12.0666 15.0554 11.6261C15.1353 11.5473 15.2227 11.4831 15.3177 11.4334C15.4138 11.3838 15.518 11.3589 15.6302 11.3589C15.8602 11.3589 16.0577 11.4415 16.2229 11.6067C16.3881 11.7719 16.4707 11.9694 16.4707 12.1993C16.4707 12.3321 16.4404 12.4584 16.38 12.5783C16.3195 12.6981 16.2326 12.7942 16.1193 12.8665C15.7522 13.1634 15.3533 13.4106 14.9226 13.6081C14.493 13.8068 14.0353 13.9061 13.5495 13.9061ZM13.5495 22.0025C13.0723 22.0025 12.6232 21.9016 12.2022 21.6997C11.7812 21.4967 11.3731 21.2673 10.978 21.0115C10.747 20.856 10.5128 20.7125 10.2753 20.5808C10.0378 20.4491 9.77977 20.3832 9.50125 20.3832C9.20438 20.3832 8.93774 20.442 8.70132 20.5597C8.46383 20.6763 8.24037 20.822 8.03094 20.9969C7.95213 21.0876 7.86199 21.1632 7.76052 21.2236C7.65904 21.2841 7.54569 21.3132 7.42047 21.3111C7.19053 21.3111 6.99298 21.2285 6.82781 21.0633C6.66264 20.8981 6.58006 20.7006 6.58006 20.4707C6.58006 20.3379 6.61029 20.2116 6.67074 20.0917C6.73119 19.973 6.81809 19.8769 6.93144 19.8035C7.29848 19.5066 7.69737 19.2594 8.1281 19.0619C8.55775 18.8632 9.01547 18.7639 9.50125 18.7639C9.95789 18.7639 10.3859 18.8665 10.7853 19.0716C11.1848 19.2767 11.5831 19.4969 11.9804 19.7323C12.2308 19.9093 12.4856 20.0621 12.7447 20.1905C13.0038 20.319 13.272 20.3832 13.5495 20.3832C13.9143 20.3832 14.2236 20.2596 14.4773 20.0124C14.731 19.7652 15.0279 19.6168 15.3679 19.5671C15.5299 19.5304 15.6794 19.5493 15.8165 19.6238C15.9536 19.6983 16.0469 19.7976 16.0966 19.9217C16.2024 19.9843 16.2807 20.0777 16.3314 20.2019C16.3821 20.3249 16.387 20.4599 16.346 20.6067C16.3244 20.6779 16.2942 20.7422 16.2553 20.7994C16.2164 20.8566 16.1711 20.9106 16.1193 20.9613C15.7522 21.2592 15.3533 21.5075 14.9226 21.7062C14.493 21.9037 14.0353 22.0025 13.5495 22.0025ZM3.61515 27.67C2.87027 27.67 2.24847 27.4206 1.74973 26.9219C1.24991 26.4221 1 25.7997 1 25.0549V7.61515C1 6.87027 1.24991 6.24847 1.74973 5.74973C2.24847 5.24991 2.87027 5 3.61515 5H27.532C28.2769 5 28.8987 5.24991 29.3974 5.74973C29.8972 6.24847 30.1471 6.87027 30.1471 7.61515V25.0549C30.1471 25.7997 29.8978 26.4215 29.399 26.9203C28.8992 27.4201 28.2769 27.67 27.532 27.67H3.61515ZM3.61515 26.0507H20.4314V6.61929H3.61515C3.36686 6.61929 3.13854 6.72292 2.93019 6.93019C2.72292 7.13854 2.61929 7.36686 2.61929 7.61515V25.0549C2.61929 25.3031 2.72292 25.5315 2.93019 25.7398C3.13854 25.9471 3.36686 26.0507 3.61515 26.0507ZM22.0507 26.0507H27.532C27.7803 26.0507 28.0086 25.9471 28.217 25.7398C28.4242 25.5315 28.5279 25.3031 28.5279 25.0549V7.61515C28.5279 7.36686 28.4242 7.13854 28.217 6.93019C28.0086 6.72292 27.7803 6.61929 27.532 6.61929H22.0507V26.0507ZM24.8229 10.9784H25.7556C25.9305 10.9784 26.0833 10.9136 26.2139 10.7841C26.3445 10.6545 26.4098 10.5013 26.4098 10.3242V9.3915C26.4098 9.21662 26.3451 9.06387 26.2155 8.93324C26.086 8.80262 25.9327 8.73731 25.7556 8.73731H24.8229C24.6481 8.73731 24.4953 8.80208 24.3647 8.93163C24.2341 9.06117 24.1687 9.21446 24.1687 9.3915V10.3242C24.1687 10.4991 24.2335 10.6518 24.3631 10.7825C24.4926 10.9131 24.6459 10.9784 24.8229 10.9784ZM25.2893 17.5819C25.6239 17.5819 25.9154 17.4577 26.1637 17.2094C26.412 16.9611 26.5361 16.6702 26.5361 16.3366C26.5361 16.002 26.412 15.7105 26.1637 15.4622C25.9154 15.2139 25.6239 15.0898 25.2893 15.0898C24.9546 15.0898 24.6632 15.2139 24.4149 15.4622C24.1666 15.7105 24.0424 16.002 24.0424 16.3366C24.0424 16.6713 24.1666 16.9627 24.4149 17.211C24.6632 17.4593 24.9546 17.5819 25.2893 17.5819ZM25.2893 24.0606C25.6239 24.0606 25.9154 23.9365 26.1637 23.6882C26.412 23.4399 26.5361 23.1484 26.5361 22.8138C26.5361 22.4791 26.412 22.1876 26.1637 21.9393C25.9154 21.6911 25.6239 21.5669 25.2893 21.5669C24.9546 21.5669 24.6632 21.6911 24.4149 21.9393C24.1666 22.1876 24.0424 22.4791 24.0424 22.8138C24.0424 23.1484 24.1666 23.4399 24.4149 23.6882C24.6632 23.9365 24.9546 24.0606 25.2893 24.0606Z" fill="#2196F3"/>
</svg>
