<svg width="32" height="32" viewBox="0 0 32 32" fill="none" xmlns="http://www.w3.org/2000/svg">
<path d="M21.5197 11.7193L21.493 11.7327C21.7997 12.0927 22.0663 12.5193 22.2663 12.9593L22.3863 13.2127C23.333 15.466 22.6663 18.066 20.9197 19.6927C19.333 21.146 17.1197 21.5327 15.0663 21.266C13.1197 21.026 11.333 19.7993 10.3063 18.106C9.99967 17.586 9.73301 16.9993 9.59967 16.3993C9.42634 15.906 9.37301 15.426 9.33301 14.9327C9.21301 12.7993 10.0663 10.5327 11.6797 9.19935C10.9463 10.8127 11.1197 12.826 12.1997 14.226L12.3463 14.3993C12.533 14.5593 12.7597 14.6127 12.973 14.5193C13.173 14.4393 13.333 14.2393 13.333 13.9993L13.2397 13.706C12.0663 10.6127 13.053 6.99935 15.5463 4.95935C16.2263 4.39935 17.0663 3.89268 17.9463 3.66602C17.0397 5.47935 17.333 7.85268 18.7863 9.27935C19.3997 9.90602 20.133 10.3193 20.773 10.906L21.5197 11.7193ZM18.4797 17.906L18.4663 17.8927C19.0663 17.3727 19.3997 16.4793 19.373 15.6793L19.333 15.2527C19.0663 13.9193 17.9063 13.4793 17.1597 12.506C16.933 12.2127 16.733 11.8393 16.5863 11.466C16.293 12.1327 16.2663 12.7593 16.3863 13.4793C16.5197 14.2393 16.8263 14.8927 16.6663 15.6793C16.453 16.546 15.773 17.4127 14.5863 17.6927C15.253 18.346 16.333 18.866 17.413 18.4927C17.7597 18.3993 18.1997 18.146 18.4797 17.906ZM14.6663 23.9993V25.3327C14.6663 26.066 15.2663 26.666 15.9997 26.666C16.733 26.666 17.333 26.066 17.333 25.3327V23.9993H19.9997V25.3327C19.9997 26.066 20.5997 26.666 21.333 26.666C22.0663 26.666 22.6663 26.066 22.6663 25.3327V23.9993C24.1463 23.9993 26.6663 25.1993 26.6663 26.666V29.3327H5.33301V26.666C5.33301 25.1993 7.86634 23.9993 9.33301 23.9993V25.3327C9.33301 26.066 9.93301 26.666 10.6663 26.666C11.3997 26.666 11.9997 26.066 11.9997 25.3327V23.9993H14.6663Z" fill="#2196F3"/>
</svg>
