<svg width="32" height="32" viewBox="0 0 32 32" fill="none" xmlns="http://www.w3.org/2000/svg">
<path d="M24.1395 21.294L24.7655 21.921L24.292 22.3955L23.518 21.622C23.3266 21.7432 23.1448 21.8787 22.974 22.0275L29.406 28.459C29.5565 28.285 29.692 28.1045 29.8115 27.915L29.037 27.1415L29.5125 26.667L30.1395 27.294C30.861 25.626 30.544 23.6165 29.1805 22.253C27.817 20.8895 25.8075 20.573 24.1395 21.294ZM24.7655 22.87L25.2405 22.3955L26.189 23.345L25.7155 23.82L24.7655 22.87ZM26.1895 24.294L26.665 23.8205L27.613 24.769L27.1395 25.243L26.1895 24.294ZM28.5635 26.667L27.6135 25.718L28.0885 25.2435L29.037 26.1925L28.5635 26.667ZM22.094 23.046L22.8685 23.8205L22.3935 24.294L21.7665 23.667C21.045 25.3355 21.3615 27.3455 22.725 28.7085C24.0885 30.0715 26.098 30.388 27.7665 29.6665L27.14 29.04L27.6135 28.565L28.388 29.339C28.577 29.22 28.758 29.084 28.932 28.9335L22.499 22.5015C22.349 22.6755 22.214 22.8565 22.094 23.046ZM27.1395 28.091L26.665 28.565L25.716 27.6165L26.1895 27.142L27.1395 28.091ZM25.716 26.667L25.241 27.1415L24.2925 26.1925L24.766 25.718L25.716 26.667ZM24.292 25.243L23.8165 25.7175L22.8685 24.769L23.342 24.294L24.292 25.243ZM25.21 12.673C25.21 12.42 25.1095 12.177 24.9295 11.998L23.8965 10.964C23.8915 10.9215 23.883 10.88 23.8825 10.8365C23.879 10.6599 23.9113 10.4845 23.9774 10.3207C24.0435 10.157 24.142 10.0082 24.267 9.8835L31 3.1495L30.9455 2.949C30.8251 2.49468 30.5869 2.0802 30.255 1.7475C29.9224 1.41588 29.5086 1.17742 29.055 1.056L28.8535 1L22.1185 7.7355C21.8325 8.0215 21.4215 8.136 21.0245 8.092L20.004 7.072C19.9154 6.9833 19.8102 6.91294 19.6945 6.86492C19.5787 6.81691 19.4546 6.7922 19.3292 6.7922C19.2039 6.7922 19.0798 6.81691 18.964 6.86492C18.8482 6.91294 18.743 6.9833 18.6545 7.072L1.41548 24.311C1.03848 24.688 0.725981 25.411 1.37698 26.715C1.73198 27.425 2.32848 28.217 3.05698 28.9455C3.53898 29.427 5.22098 31 6.62948 31C7.16448 31 7.50198 30.775 7.69098 30.586L24.9295 13.3475C25.1095 13.1685 25.21 12.926 25.21 12.673ZM22.625 8.2415L28.504 2.3625C28.7485 2.4715 28.9795 2.6205 29.181 2.8215C29.382 3.0225 29.53 3.2535 29.639 3.498L23.7605 9.377C23.5071 9.63031 23.326 9.94672 23.236 10.2935L23.2195 10.287L21.714 8.781L21.7075 8.766C22.0546 8.67607 22.3714 8.49499 22.625 8.2415ZM2.25998 24.8165L19.329 7.747L21.612 10.029L6.83498 24.8065C6.49448 25.147 5.74448 25.4925 5.26298 25.4575C4.56548 25.4055 2.25998 24.8165 2.25998 24.8165ZM7.18598 29.742C7.18598 29.742 6.59698 27.437 6.54548 26.7375C6.50998 26.2575 6.85598 25.5065 7.19598 25.1665C10.8895 21.471 21.973 10.389 21.973 10.389L24.2545 12.672L7.18598 29.742Z" fill="#2196F3"/>
</svg>
