<svg width="32" height="32" viewBox="0 0 32 32" fill="none" xmlns="http://www.w3.org/2000/svg">
<path fill-rule="evenodd" clip-rule="evenodd" d="M20.651 1.90629C20.7508 1.99179 20.8327 2.09612 20.8921 2.2133C20.9515 2.33049 20.9873 2.45823 20.9973 2.58924C21.0073 2.72025 20.9915 2.85195 20.9506 2.97681C20.9097 3.10168 20.8446 3.21726 20.759 3.31696L17.603 6.99962H21.407C23.2297 6.99962 24.7003 6.99962 25.8563 7.15562C27.0563 7.31562 28.067 7.66229 28.8697 8.46362C29.6723 9.26629 30.0163 10.277 30.179 11.477C30.3337 12.633 30.3337 14.1036 30.3337 15.9263V21.4063C30.3337 23.229 30.3337 24.6996 30.179 25.8556C30.0163 27.0556 29.6723 28.0663 28.8697 28.869C28.067 29.6716 27.0563 30.0156 25.8563 30.1783C24.7003 30.333 23.2297 30.333 21.407 30.333H10.5937C8.77099 30.333 7.30032 30.333 6.14432 30.1783C4.94433 30.0156 3.93366 29.6716 3.13099 28.869C2.32833 28.0663 1.98433 27.0556 1.82299 25.8556C1.66699 24.6996 1.66699 23.229 1.66699 21.4063V15.9263C1.66699 14.1036 1.66699 12.633 1.82299 11.477C1.98299 10.277 2.32966 9.26629 3.13099 8.46362C3.93366 7.66096 4.94433 7.31696 6.14432 7.15562C7.30032 6.99962 8.77099 6.99962 10.5937 6.99962H14.3977L11.2403 3.31696C11.1498 3.21809 11.0801 3.10202 11.0353 2.97567C10.9905 2.84931 10.9716 2.71524 10.9796 2.58142C10.9877 2.4476 11.0226 2.31678 11.0822 2.19671C11.1419 2.07665 11.225 1.96981 11.3268 1.88253C11.4286 1.79526 11.5468 1.72934 11.6746 1.68869C11.8023 1.64803 11.9369 1.63348 12.0704 1.6459C12.2039 1.65832 12.3335 1.69744 12.4516 1.76096C12.5697 1.82447 12.6737 1.91108 12.7577 2.01562L16.0003 5.79696L19.2403 2.01562C19.3258 1.91586 19.4302 1.83392 19.5473 1.7745C19.6645 1.71507 19.7923 1.67932 19.9233 1.66929C20.0543 1.65926 20.186 1.67515 20.3109 1.71604C20.4357 1.75694 20.5513 1.82204 20.651 1.90762M22.3337 9.00096V28.3343C23.7283 28.329 24.7683 28.3076 25.5897 28.197C26.5683 28.065 27.0857 27.8236 27.455 27.4556C27.8243 27.0863 28.0643 26.569 28.1963 25.589C28.331 24.5823 28.3337 23.2476 28.3337 21.3343V16.001C28.3337 14.0876 28.331 12.7516 28.1963 11.745C28.0643 10.7663 27.823 10.249 27.455 9.87962C27.0857 9.51029 26.5683 9.27029 25.5883 9.13829C24.7683 9.02762 23.7283 9.00496 22.3337 9.00096ZM20.3337 28.3356V8.99962H10.667C8.75366 8.99962 7.41766 9.00229 6.41099 9.13696C5.43233 9.26896 4.91499 9.51029 4.54566 9.87829C4.17633 10.2476 3.93633 10.765 3.80433 11.745C3.66966 12.7503 3.66699 14.0863 3.66699 15.9996V21.333C3.66699 23.2463 3.66966 24.581 3.80433 25.589C3.93633 26.5676 4.17766 27.085 4.54566 27.4543C4.91499 27.8236 5.43233 28.0636 6.41233 28.1956C7.41766 28.3303 8.75366 28.333 10.667 28.333L20.3337 28.3356Z" fill="#2196F3"/>
<path d="M26.6667 21.3337C26.6667 20.98 26.5262 20.6409 26.2761 20.3909C26.0261 20.1408 25.687 20.0003 25.3333 20.0003C24.9797 20.0003 24.6406 20.1408 24.3905 20.3909C24.1405 20.6409 24 20.98 24 21.3337C24 21.6873 24.1405 22.0264 24.3905 22.2765C24.6406 22.5265 24.9797 22.667 25.3333 22.667C25.687 22.667 26.0261 22.5265 26.2761 22.2765C26.5262 22.0264 26.6667 21.6873 26.6667 21.3337ZM26.6667 16.0003C26.6667 15.6467 26.5262 15.3076 26.2761 15.0575C26.0261 14.8075 25.687 14.667 25.3333 14.667C24.9797 14.667 24.6406 14.8075 24.3905 15.0575C24.1405 15.3076 24 15.6467 24 16.0003C24 16.3539 24.1405 16.6931 24.3905 16.9431C24.6406 17.1932 24.9797 17.3337 25.3333 17.3337C25.687 17.3337 26.0261 17.1932 26.2761 16.9431C26.5262 16.6931 26.6667 16.3539 26.6667 16.0003Z" fill="#2196F3"/>
</svg>
