<svg width="32" height="32" viewBox="0 0 32 32" fill="none" xmlns="http://www.w3.org/2000/svg">
<path d="M12.2467 14.725C12.2467 15.3188 12.3787 15.8752 12.6427 16.3943C12.9067 16.9143 13.2747 17.341 13.7467 17.6743C13.712 17.6059 13.6907 17.5375 13.6827 17.469C13.6738 17.4006 13.6693 17.3237 13.6693 17.2383C13.6791 16.9539 13.7422 16.6841 13.8587 16.429C13.9751 16.1739 14.1418 15.9401 14.3587 15.7277L16 14.101L17.6587 15.7357C17.8756 15.9472 18.0382 16.1797 18.1467 16.433C18.2533 16.6863 18.312 16.9548 18.3227 17.2383C18.3227 17.3237 18.3182 17.4006 18.3093 17.469C18.3013 17.5375 18.2804 17.6059 18.2467 17.6743C18.7133 17.341 19.0836 16.917 19.3573 16.4023C19.632 15.8877 19.7693 15.3339 19.7693 14.741C19.7693 14.2335 19.6813 13.7552 19.5053 13.3063C19.3293 12.8575 19.0653 12.4495 18.7133 12.0823C18.5027 12.2103 18.2782 12.3117 18.04 12.3863C17.8018 12.4619 17.5573 12.4997 17.3067 12.4997C16.6578 12.4997 16.0769 12.2895 15.564 11.869C15.0511 11.4486 14.7356 10.9188 14.6173 10.2797C14.2484 10.597 13.9147 10.9357 13.616 11.2957C13.3164 11.6557 13.0662 12.0237 12.8653 12.3997C12.6644 12.7757 12.5111 13.1588 12.4053 13.549C12.2987 13.9383 12.2453 14.3303 12.2453 14.725M16 15.7743L15.1773 16.5717C15.0707 16.6783 14.988 16.797 14.9293 16.9277C14.8707 17.0583 14.8413 17.205 14.8413 17.3677C14.8413 17.693 14.9533 17.961 15.1773 18.1717C15.4013 18.3815 15.6756 18.4863 16 18.4863C16.3244 18.4863 16.5987 18.3815 16.8227 18.1717C17.0467 17.961 17.1587 17.6935 17.1587 17.369C17.1587 17.2063 17.1293 17.0597 17.0707 16.929C17.012 16.7983 16.9293 16.6792 16.8227 16.5717L16 15.7743ZM15.744 8.05034V9.78901C15.744 10.2183 15.8987 10.5823 16.208 10.881C16.5173 11.1788 16.8862 11.3277 17.3147 11.3277C17.5253 11.3277 17.7178 11.2855 17.892 11.201C18.0662 11.1166 18.2311 10.9912 18.3867 10.825L18.6467 10.5183C19.3693 10.961 19.9338 11.561 20.34 12.3183C20.7462 13.0766 20.9493 13.8841 20.9493 14.741C20.9493 16.125 20.4707 17.2921 19.5133 18.2423C18.556 19.1917 17.3849 19.6663 16 19.6663C14.6151 19.6663 13.4467 19.1903 12.4947 18.2383C11.5427 17.2863 11.0667 16.1179 11.0667 14.733C11.0667 13.3979 11.4956 12.1446 12.3533 10.973C13.212 9.80234 14.3422 8.82812 15.744 8.05034ZM8.15333 28.6663C7.55778 28.6663 7.04978 28.4566 6.62933 28.037C6.20978 27.6175 6 27.1095 6 26.513V7.99967C6 6.70367 6.45378 5.6019 7.36133 4.69434C8.26889 3.78679 9.37067 3.33301 10.6667 3.33301H21.3333C22.6293 3.33301 23.7311 3.78679 24.6387 4.69434C25.5462 5.6019 26 6.70367 26 7.99967V26.513C26 27.1086 25.7902 27.6166 25.3707 28.037C24.9511 28.4566 24.4431 28.6663 23.8467 28.6663H8.15333ZM7.33333 23.333V26.513C7.33333 26.7521 7.41022 26.9486 7.564 27.1023C7.71778 27.2561 7.91422 27.333 8.15333 27.333H23.8467C24.0858 27.333 24.2822 27.2561 24.436 27.1023C24.5898 26.9486 24.6667 26.7521 24.6667 26.513V23.333C23.4871 23.333 22.676 23.5552 22.2333 23.9997C21.7907 24.4441 21.0462 24.6663 20 24.6663C18.9369 24.6663 18.2218 24.4441 17.8547 23.9997C17.4884 23.5552 16.8702 23.333 16 23.333C15.1298 23.333 14.5116 23.5552 14.1453 23.9997C13.7782 24.4441 13.0631 24.6663 12 24.6663C10.9538 24.6663 10.2258 24.4441 9.816 23.9997C9.40711 23.5552 8.57956 23.333 7.33333 23.333ZM12 23.333C12.8702 23.333 13.4884 23.1108 13.8547 22.6663C14.2209 22.2219 14.936 21.9997 16 21.9997C17.08 21.9997 17.816 22.2219 18.208 22.6663C18.5991 23.1108 19.1964 23.333 20 23.333C20.7867 23.333 21.4013 23.1108 21.844 22.6663C22.2867 22.2219 23.2276 21.9997 24.6667 21.9997V7.99967C24.6667 7.0779 24.3413 6.29212 23.6907 5.64234C23.0409 4.99167 22.2551 4.66634 21.3333 4.66634H10.6667C9.74489 4.66634 8.95911 4.99167 8.30933 5.64234C7.65867 6.29212 7.33333 7.0779 7.33333 7.99967V21.9997C8.75556 21.9997 9.67556 22.2219 10.0933 22.6663C10.5111 23.1108 11.1467 23.333 12 23.333Z" fill="#2196F3"/>
</svg>
