<svg width="32" height="32" viewBox="0 0 32 32" fill="none" xmlns="http://www.w3.org/2000/svg">
<path d="M15 1.125C14.75 1.125 14.5 1.375 14 1.875V3.875H10.9671C10 2.875 10 2.875 9 3.875C8 4.875 8 4.875 9 5.875C10 6.875 10 6.875 10.9231 5.875H14V7.875H16V5.875H19.0439C20.0316 6.875 20.0314 6.875 21.0314 5.875C22.0314 4.875 22.0314 4.875 21.0314 3.875C20.0314 2.875 20.0316 2.875 19 3.875H16V1.875C15.5 1.375 15.25 1.125 15 1.125ZM2 6V22H4V6H2ZM6 9L5 8V20L6 19V9ZM15 8.875C13 8.875 11.9781 8.875 11.9231 10.875H7V16.875H11.0391C12 17.875 13 18.875 15 18.875C17 18.875 18 17.875 19 16.875C23 16.875 23 16.875 23 18.875V20.875H29V16.875C29 12.875 27 10.875 23 10.875H18C18.0219 8.875 17 8.875 15 8.875ZM22 21.875V22.875H30V21.875H22ZM26 23.875C26 23.875 23.5736 27.1038 24 29C24.2638 30.1725 24.7981 30.875 26 30.875C27.2019 30.875 27.7362 30.1725 28 29C28.4264 27.1038 26 23.875 26 23.875Z" fill="#2196F3"/>
</svg>
