<svg width="32" height="33" viewBox="0 0 32 33" fill="none" xmlns="http://www.w3.org/2000/svg">
<path d="M24 7.17935L24.0133 7.16468M28 5.83268V27.166C28 27.8733 27.719 28.5515 27.219 29.0516C26.7189 29.5517 26.0406 29.8327 25.3333 29.8327H6.66667C5.95942 29.8327 5.28115 29.5517 4.78105 29.0516C4.28095 28.5515 4 27.8733 4 27.166V5.83268C4 5.12544 4.28095 4.44716 4.78105 3.94706C5.28115 3.44697 5.95942 3.16602 6.66667 3.16602H25.3333C26.0406 3.16602 26.7189 3.44697 27.219 3.94706C27.719 4.44716 28 5.12544 28 5.83268Z" stroke="#2196F3" stroke-width="1.5" stroke-linecap="round" stroke-linejoin="round"/>
<path d="M16 25.832C18.1217 25.832 20.1566 24.9892 21.6569 23.4889C23.1571 21.9886 24 19.9538 24 17.832C24 15.7103 23.1571 13.6755 21.6569 12.1752C20.1566 10.6749 18.1217 9.83203 16 9.83203C13.8783 9.83203 11.8434 10.6749 10.3431 12.1752C8.84286 13.6755 8 15.7103 8 17.832C8 19.9538 8.84286 21.9886 10.3431 23.4889C11.8434 24.9892 13.8783 25.832 16 25.832Z" stroke="#2196F3" stroke-width="1.5" stroke-linecap="round" stroke-linejoin="round"/>
<path d="M16 21.832C14.9391 21.832 13.9217 21.4106 13.1716 20.6605C12.4214 19.9103 12 18.8929 12 17.832" stroke="#2196F3" stroke-width="1.5" stroke-linecap="round" stroke-linejoin="round"/>
</svg>
