<svg width="18" height="18" viewBox="0 0 18 18" fill="none" xmlns="http://www.w3.org/2000/svg">
<rect width="18" height="18" rx="9" fill="white"/>
<path d="M13.3077 5.73077C13.3077 5.82257 13.2712 5.91062 13.2063 5.97554C13.1414 6.04045 13.0533 6.07692 12.9615 6.07692H12.6154V12.3077C12.6154 12.4913 12.5424 12.6674 12.4126 12.7972C12.2828 12.9271 12.1067 13 11.9231 13H6.38462C6.201 13 6.02491 12.9271 5.89508 12.7972C5.76525 12.6674 5.69231 12.4913 5.69231 12.3077V6.07692H5.34615C5.25435 6.07692 5.1663 6.04045 5.10139 5.97554C5.03647 5.91062 5 5.82257 5 5.73077C5 5.63896 5.03647 5.55092 5.10139 5.486C5.1663 5.42109 5.25435 5.38462 5.34615 5.38462H12.9615C13.0533 5.38462 13.1414 5.42109 13.2063 5.486C13.2712 5.55092 13.3077 5.63896 13.3077 5.73077ZM7.42308 4.69231H10.8846C10.9764 4.69231 11.0645 4.65584 11.1294 4.59092C11.1943 4.52601 11.2308 4.43796 11.2308 4.34615C11.2308 4.25435 11.1943 4.1663 11.1294 4.10139C11.0645 4.03647 10.9764 4 10.8846 4H7.42308C7.33127 4 7.24323 4.03647 7.17831 4.10139C7.11339 4.1663 7.07692 4.25435 7.07692 4.34615C7.07692 4.43796 7.11339 4.52601 7.17831 4.59092C7.24323 4.65584 7.33127 4.69231 7.42308 4.69231Z" fill="#8B8B8B"/>
</svg>
