<svg width="16" height="16" viewBox="0 0 16 16" fill="none" xmlns="http://www.w3.org/2000/svg">
<path fill-rule="evenodd" clip-rule="evenodd" d="M14.3034 3.61023C14.3667 3.70636 14.3949 3.82142 14.3833 3.93595C14.3716 4.05049 14.3208 4.15749 14.2394 4.23889L8.11072 10.3669C8.04802 10.4296 7.96979 10.4744 7.88405 10.4969L5.33138 11.1636C5.247 11.1856 5.15834 11.1851 5.07418 11.1623C4.99002 11.1394 4.91331 11.095 4.85165 11.0333C4.78999 10.9716 4.74552 10.8949 4.72267 10.8108C4.69982 10.7266 4.69938 10.6379 4.72138 10.5536L5.38805 8.00156C5.40751 7.92495 5.44423 7.85381 5.49538 7.79356L11.6467 1.64623C11.7405 1.55259 11.8676 1.5 12.0001 1.5C12.1326 1.5 12.2596 1.55259 12.3534 1.64623L14.2394 3.53156C14.2633 3.55556 14.2847 3.58192 14.3034 3.61023ZM13.1787 3.88489L12.0001 2.70689L6.32138 8.38556L5.90472 9.98089L7.50005 9.56423L13.1787 3.88489Z" fill="#2196F3"/>
<path d="M13.094 11.4406C13.2762 9.88321 13.3344 8.31383 13.268 6.74724C13.2665 6.71033 13.2727 6.67352 13.2861 6.63911C13.2995 6.6047 13.3199 6.57343 13.346 6.54724L14.002 5.89124C14.0199 5.87322 14.0426 5.86075 14.0675 5.85534C14.0923 5.84993 14.1182 5.85181 14.142 5.86075C14.1658 5.86969 14.1865 5.88532 14.2016 5.90575C14.2168 5.92617 14.2257 5.95054 14.2273 5.97591C14.3508 7.83673 14.3039 9.70495 14.0873 11.5572C13.93 12.9052 12.8473 13.9619 11.5053 14.1119C9.17552 14.3699 6.82439 14.3699 4.49462 14.1119C3.15329 13.9619 2.06996 12.9052 1.91262 11.5572C1.63622 9.19419 1.63622 6.80696 1.91262 4.44391C2.06996 3.09591 3.15262 2.03924 4.49462 1.88924C6.26287 1.69316 8.04444 1.64566 9.82062 1.74724C9.84604 1.74907 9.87041 1.75814 9.89083 1.77338C9.91125 1.78863 9.92688 1.80941 9.93586 1.83326C9.94483 1.85711 9.94679 1.88303 9.94149 1.90796C9.93619 1.93289 9.92386 1.95577 9.90596 1.97391L9.24396 2.63524C9.21803 2.66107 9.18708 2.68132 9.15303 2.69474C9.11898 2.70815 9.08254 2.71445 9.04596 2.71324C7.56379 2.66286 6.07993 2.71967 4.60596 2.88324C4.17525 2.93091 3.77319 3.12239 3.46473 3.42674C3.15626 3.73109 2.9594 4.13055 2.90596 4.56058C2.63865 6.84612 2.63865 9.15503 2.90596 11.4406C2.9594 11.8706 3.15626 12.2701 3.46473 12.5744C3.77319 12.8788 4.17525 13.0702 4.60596 13.1179C6.84262 13.3679 9.15729 13.3679 11.3946 13.1179C11.8253 13.0702 12.2274 12.8788 12.5359 12.5744C12.8443 12.2701 13.0405 11.8706 13.094 11.4406Z" fill="#2196F3"/>
</svg>
