<svg width="18" height="19" viewBox="0 0 18 19" fill="none" xmlns="http://www.w3.org/2000/svg">
<path d="M9 15.5C7.325 15.5 5.90625 14.9187 4.74375 13.7562C3.58125 12.5937 3 11.175 3 9.5C3 7.825 3.58125 6.40625 4.74375 5.24375C5.90625 4.08125 7.325 3.5 9 3.5C9.8625 3.5 10.6875 3.678 11.475 4.034C12.2625 4.39 12.9375 4.8995 13.5 5.5625V4.25C13.5 4.0375 13.572 3.8595 13.716 3.716C13.86 3.5725 14.038 3.5005 14.25 3.5C14.4625 3.5 14.6407 3.572 14.7847 3.716C14.9287 3.86 15.0005 4.038 15 4.25V8C15 8.2125 14.928 8.39075 14.784 8.53475C14.64 8.67875 14.462 8.7505 14.25 8.75H10.5C10.2875 8.75 10.1095 8.678 9.966 8.534C9.8225 8.39 9.7505 8.212 9.75 8C9.75 7.7875 9.822 7.6095 9.966 7.466C10.11 7.3225 10.288 7.2505 10.5 7.25H12.9C12.5 6.55 11.9532 6 11.2597 5.6C10.5662 5.2 9.813 5 9 5C7.75 5 6.6875 5.4375 5.8125 6.3125C4.9375 7.1875 4.5 8.25 4.5 9.5C4.5 10.75 4.9375 11.8125 5.8125 12.6875C6.6875 13.5625 7.75 14 9 14C9.85 14 10.6283 13.7845 11.3348 13.3535C12.0413 12.9225 12.588 12.3442 12.975 11.6187C13.075 11.4437 13.2158 11.322 13.3973 11.2535C13.5788 11.185 13.763 11.1817 13.95 11.2437C14.15 11.3063 14.2937 11.4375 14.3812 11.6375C14.4687 11.8375 14.4625 12.025 14.3625 12.2C13.85 13.2 13.1188 14 12.1688 14.6C11.2188 15.2 10.1625 15.5 9 15.5Z" fill="#8B8B8B"/>
</svg>
