<svg width="14" height="14" viewBox="0 0 14 14" fill="none" xmlns="http://www.w3.org/2000/svg">
<path d="M4.53365 1.42296L5.1619 1.2223C5.7499 1.03446 6.37874 1.33838 6.63074 1.93221L7.1324 3.11521C7.35115 3.6303 7.22982 4.23638 6.83257 4.61321L5.72832 5.66205C5.79657 6.28972 6.00715 6.90747 6.36065 7.5153C6.69655 8.1034 7.14703 8.61814 7.6854 9.02905L9.01307 8.58572C9.5159 8.4183 10.0637 8.61138 10.3722 9.06463L11.0909 10.1205C11.4502 10.6478 11.3855 11.3746 10.9404 11.8215L10.4632 12.3004C9.9884 12.777 9.31057 12.9502 8.6829 12.7542C7.20182 12.2922 5.84032 10.9208 4.59782 8.63997C3.35357 6.35563 2.9149 4.41663 3.28065 2.8253C3.43465 2.15563 3.91182 1.62188 4.53482 1.42296" fill="#4ECB71"/>
</svg>
