<svg width="8" height="12" viewBox="0 0 8 12" fill="none" xmlns="http://www.w3.org/2000/svg">
<path d="M7.19629 -0.000217438C7.30146 -0.000724792 7.40571 0.0160875 7.50306 0.0492573C7.60042 0.0824261 7.68897 0.131301 7.76364 0.193076C7.83853 0.255038 7.89798 0.328756 7.93855 0.409979C7.97911 0.491201 8 0.578321 8 0.66631C8 0.754299 7.97911 0.841418 7.93855 0.922641C7.89798 1.00386 7.83853 1.07758 7.76364 1.13954L1.9304 5.99853L7.76364 10.8575C7.9141 10.983 7.99864 11.1532 7.99864 11.3307C7.99864 11.4186 7.97788 11.5057 7.93756 11.5869C7.89724 11.6681 7.83814 11.7418 7.76364 11.804C7.68913 11.8661 7.60068 11.9154 7.50334 11.9491C7.40599 11.9827 7.30166 12 7.19629 12C6.9835 12 6.77942 11.9295 6.62895 11.804L0.236365 6.47176C0.161469 6.4098 0.102021 6.33608 0.0614533 6.25486C0.0208855 6.17364 0 6.08652 0 5.99853C0 5.91054 0.0208855 5.82342 0.0614533 5.7422C0.102021 5.66097 0.161469 5.58726 0.236365 5.52529L6.62895 0.193076C6.70362 0.131301 6.79217 0.0824261 6.88952 0.0492573C6.98688 0.0160875 7.09113 -0.000724792 7.19629 -0.000217438Z" fill="#8B8B8B"/>
</svg>
