<svg width="32" height="32" viewBox="0 0 32 32" fill="none" xmlns="http://www.w3.org/2000/svg">
<path d="M29.9662 26.0004H28V12.0004C28 11.47 27.7893 10.9612 27.4142 10.5862C27.0391 10.2111 26.5304 10.0004 26 10.0004H20.5C20.3674 10.0004 20.2402 10.0531 20.1464 10.1468C20.0527 10.2406 20 10.3678 20 10.5004V26.0004H18V4.05164C18.0033 3.74012 17.9357 3.43192 17.8023 3.15039C17.6689 2.86885 17.4732 2.62136 17.23 2.42664C16.8985 2.16819 16.494 2.02075 16.0739 2.00526C15.6539 1.98978 15.2396 2.10704 14.89 2.34039L4.89 9.00039C4.61567 9.18341 4.39086 9.43143 4.23558 9.72237C4.0803 10.0133 3.99937 10.3381 4 10.6679V26.0004H2.03375C1.77533 25.9966 1.52506 26.0908 1.33327 26.264C1.14148 26.4372 1.0224 26.6767 1 26.9341C0.990918 27.0709 1.01006 27.2081 1.05623 27.3372C1.1024 27.4663 1.17462 27.5845 1.2684 27.6845C1.36218 27.7845 1.47552 27.8641 1.60137 27.9185C1.72723 27.9728 1.86291 28.0007 2 28.0004H30C30.1371 28.0007 30.2728 27.9728 30.3986 27.9185C30.5245 27.8641 30.6378 27.7845 30.7316 27.6845C30.8254 27.5845 30.8976 27.4663 30.9438 27.3372C30.9899 27.2081 31.0091 27.0709 31 26.9341C30.9776 26.6767 30.8585 26.4372 30.6667 26.264C30.4749 26.0908 30.2247 25.9966 29.9662 26.0004ZM9.5 23.0004C9.5003 23.1375 9.47241 23.2732 9.41807 23.399C9.36372 23.5249 9.28408 23.6382 9.18409 23.732C9.08409 23.8258 8.96589 23.898 8.83681 23.9442C8.70773 23.9903 8.57054 24.0095 8.43375 24.0004C8.17606 23.978 7.93644 23.8587 7.76317 23.6667C7.5899 23.4746 7.49586 23.224 7.5 22.9654V21.0341C7.49648 20.7758 7.59076 20.5257 7.76394 20.334C7.93712 20.1422 8.17639 20.0231 8.43375 20.0004C8.57054 19.9913 8.70773 20.0104 8.83681 20.0566C8.96589 20.1028 9.08409 20.175 9.18409 20.2688C9.28408 20.3626 9.36372 20.4759 9.41807 20.6018C9.47241 20.7276 9.5003 20.8633 9.5 21.0004V23.0004ZM9.5 16.0004C9.5003 16.1375 9.47241 16.2732 9.41807 16.399C9.36372 16.5249 9.28408 16.6382 9.18409 16.732C9.08409 16.8258 8.96589 16.898 8.83681 16.9442C8.70773 16.9903 8.57054 17.0095 8.43375 17.0004C8.17617 16.9777 7.93672 16.8583 7.76351 16.6664C7.5903 16.4744 7.49616 16.2239 7.5 15.9654V14.0341C7.49648 13.7758 7.59076 13.5257 7.76394 13.334C7.93712 13.1422 8.17639 13.0231 8.43375 13.0004C8.57054 12.9913 8.70773 13.0104 8.83681 13.0566C8.96589 13.1028 9.08409 13.175 9.18409 13.2688C9.28408 13.3626 9.36372 13.4759 9.41807 13.6018C9.47241 13.7276 9.5003 13.8633 9.5 14.0004V16.0004ZM14.5 23.0004C14.5003 23.1375 14.4724 23.2732 14.4181 23.399C14.3637 23.5249 14.2841 23.6382 14.1841 23.732C14.0841 23.8258 13.9659 23.898 13.8368 23.9442C13.7077 23.9903 13.5705 24.0095 13.4338 24.0004C13.1765 23.978 12.9372 23.8591 12.764 23.6676C12.5908 23.4761 12.4965 23.2261 12.5 22.9679V21.0341C12.4968 20.776 12.5912 20.5262 12.7644 20.3348C12.9375 20.1433 13.1766 20.0243 13.4338 20.0016C13.5705 19.9926 13.7077 20.0117 13.8368 20.0579C13.9659 20.104 14.0841 20.1763 14.1841 20.27C14.2841 20.3638 14.3637 20.4772 14.4181 20.603C14.4724 20.7289 14.5003 20.8646 14.5 21.0016V23.0004ZM14.5 16.0004C14.5003 16.1375 14.4724 16.2732 14.4181 16.399C14.3637 16.5249 14.2841 16.6382 14.1841 16.732C14.0841 16.8258 13.9659 16.898 13.8368 16.9442C13.7077 16.9903 13.5705 17.0095 13.4338 17.0004C13.1766 16.9777 12.9375 16.8587 12.7644 16.6673C12.5912 16.4758 12.4968 16.226 12.5 15.9679V14.0341C12.4968 13.776 12.5912 13.5262 12.7644 13.3348C12.9375 13.1433 13.1766 13.0243 13.4338 13.0016C13.5705 12.9926 13.7077 13.0117 13.8368 13.0579C13.9659 13.104 14.0841 13.1763 14.1841 13.27C14.2841 13.3638 14.3637 13.4772 14.4181 13.603C14.4724 13.7289 14.5003 13.8646 14.5 14.0016V16.0004Z" fill="#68BCFF"/>
</svg>
