<svg width="32" height="32" viewBox="0 0 32 32" fill="none" xmlns="http://www.w3.org/2000/svg">
<path d="M16 10.6665L24 6.6665L16 2.6665V15.9998" stroke="#2196F3" stroke-width="2" stroke-linecap="round" stroke-linejoin="round"/>
<path d="M10.6667 15.9863L3.3334 20.173C3.1282 20.2893 2.95753 20.4579 2.83878 20.6617C2.72004 20.8655 2.65747 21.0971 2.65747 21.333C2.65747 21.5689 2.72004 21.8005 2.83878 22.0043C2.95753 22.2081 3.1282 22.3767 3.3334 22.493L14.6667 28.973C15.0721 29.207 15.532 29.3303 16.0001 29.3303C16.4682 29.3303 16.928 29.207 17.3334 28.973L28.6667 22.493C28.8719 22.3767 29.0426 22.2081 29.1614 22.0043C29.2801 21.8005 29.3427 21.5689 29.3427 21.333C29.3427 21.0971 29.2801 20.8655 29.1614 20.6617C29.0426 20.4579 28.8719 20.2893 28.6667 20.173L21.3334 15.9997M8.6534 17.133L23.3467 25.533M23.3467 17.133L8.66674 25.533" stroke="#2196F3" stroke-width="2" stroke-linecap="round" stroke-linejoin="round"/>
</svg>
