<svg width="32" height="33" viewBox="0 0 32 33" fill="none" xmlns="http://www.w3.org/2000/svg">
<path d="M16.0003 11.5005C15.0114 11.5005 14.0447 11.7937 13.2225 12.3432C12.4002 12.8926 11.7594 13.6735 11.3809 14.5871C11.0025 15.5007 10.9035 16.5061 11.0964 17.476C11.2893 18.4459 11.7655 19.3368 12.4648 20.036C13.164 20.7353 14.055 21.2115 15.0249 21.4044C15.9948 21.5974 17.0001 21.4983 17.9137 21.1199C18.8274 20.7415 19.6083 20.1006 20.1577 19.2784C20.7071 18.4561 21.0003 17.4894 21.0003 16.5005C21.0003 15.1744 20.4735 13.9027 19.5358 12.965C18.5982 12.0273 17.3264 11.5005 16.0003 11.5005ZM16.0003 19.5005C15.407 19.5005 14.8269 19.3246 14.3336 18.9949C13.8403 18.6653 13.4557 18.1967 13.2287 17.6486C13.0016 17.1004 12.9422 16.4972 13.058 15.9152C13.1737 15.3333 13.4594 14.7987 13.879 14.3792C14.2985 13.9596 14.8331 13.6739 15.415 13.5581C15.997 13.4424 16.6002 13.5018 17.1484 13.7289C17.6965 13.9559 18.1651 14.3404 18.4947 14.8338C18.8244 15.3271 19.0003 15.9072 19.0003 16.5005C19.0003 17.2962 18.6842 18.0592 18.1216 18.6218C17.559 19.1844 16.796 19.5005 16.0003 19.5005ZM25.2141 20.393C24.7844 21.4087 24.1897 22.3464 23.4541 23.168C23.2759 23.3608 23.0291 23.4757 22.767 23.4882C22.5048 23.5006 22.2483 23.4094 22.0527 23.2344C21.8571 23.0593 21.7382 22.8144 21.7217 22.5525C21.7051 22.2905 21.7921 22.0326 21.9641 21.8343C23.2771 20.3682 24.0032 18.4692 24.0032 16.5011C24.0032 14.533 23.2771 12.6341 21.9641 11.168C21.874 11.0706 21.8043 10.9562 21.7589 10.8316C21.7135 10.7069 21.6933 10.5745 21.6996 10.442C21.7059 10.3095 21.7384 10.1795 21.7954 10.0597C21.8524 9.93993 21.9327 9.83267 22.0315 9.74419C22.1303 9.65571 22.2458 9.58778 22.3712 9.54436C22.4965 9.50094 22.6292 9.4829 22.7616 9.49128C22.894 9.49966 23.0234 9.5343 23.1423 9.59319C23.2612 9.65207 23.3672 9.73401 23.4541 9.83425C24.7167 11.2472 25.5524 12.9895 25.864 14.8586C26.1756 16.7277 25.9502 18.6469 25.2141 20.393ZM8.62531 13.3868C8.03529 14.7835 7.85433 16.3191 8.10352 17.8147C8.35271 19.3103 9.0218 20.7043 10.0328 21.8343C10.2047 22.0326 10.2918 22.2905 10.2752 22.5525C10.2586 22.8144 10.1397 23.0593 9.94417 23.2344C9.74861 23.4094 9.49207 23.5006 9.2299 23.4882C8.96773 23.4757 8.72095 23.3608 8.54281 23.168C6.90104 21.3354 5.99319 18.9615 5.99319 16.5011C5.99319 14.0407 6.90104 11.6668 8.54281 9.83425C8.71968 9.63617 8.96799 9.51646 9.23312 9.50146C9.49825 9.48645 9.75848 9.57739 9.95656 9.75425C10.1546 9.93112 10.2744 10.1794 10.2894 10.4446C10.3044 10.7097 10.2134 10.9699 10.0366 11.168C9.44656 11.8244 8.96966 12.5741 8.62531 13.3868ZM31.0003 16.5005C31.0064 20.4277 29.4667 24.1995 26.7141 27.0005C26.623 27.0979 26.5134 27.176 26.3917 27.2304C26.2699 27.2848 26.1386 27.3143 26.0053 27.3172C25.872 27.3201 25.7395 27.2963 25.6155 27.2472C25.4916 27.1981 25.3787 27.1247 25.2835 27.0314C25.1884 26.938 25.1128 26.8266 25.0613 26.7036C25.0098 26.5806 24.9834 26.4486 24.9837 26.3153C24.984 26.182 25.0109 26.0501 25.063 25.9273C25.115 25.8046 25.191 25.6934 25.2866 25.6005C27.67 23.1722 29.0053 19.9055 29.0053 16.503C29.0053 13.1005 27.67 9.8338 25.2866 7.4055C25.1002 7.2162 24.9968 6.96065 24.9989 6.69505C25.001 6.42945 25.1085 6.17557 25.2978 5.98925C25.4871 5.80294 25.7427 5.69945 26.0083 5.70156C26.2739 5.70367 26.5277 5.8112 26.7141 6.0005C29.4667 8.80154 31.0064 12.5733 31.0003 16.5005ZM6.71406 25.598C6.80615 25.6917 6.87888 25.8027 6.92809 25.9245C6.9773 26.0464 7.00203 26.1767 7.00087 26.3081C6.99971 26.4395 6.97268 26.5694 6.92132 26.6903C6.86997 26.8113 6.79529 26.9209 6.70156 27.013C6.60783 27.1051 6.49688 27.1778 6.37504 27.227C6.2532 27.2762 6.12287 27.301 5.99147 27.2998C5.86008 27.2986 5.7302 27.2716 5.60925 27.2203C5.4883 27.1689 5.37865 27.0942 5.28656 27.0005C2.53429 24.1986 0.992188 20.4281 0.992188 16.5005C0.992188 12.5729 2.53429 8.80241 5.28656 6.0005C5.37763 5.90314 5.48724 5.82497 5.60896 5.77058C5.73068 5.7162 5.86204 5.6867 5.99533 5.68383C6.12861 5.68095 6.26113 5.70476 6.38508 5.75384C6.50903 5.80292 6.62191 5.8763 6.71709 5.96964C6.81227 6.06299 6.88783 6.17443 6.93931 6.2974C6.9908 6.42037 7.01717 6.5524 7.01689 6.68571C7.01661 6.81903 6.98967 6.95094 6.93767 7.07369C6.88566 7.19644 6.80964 7.30756 6.71406 7.4005C4.33064 9.8288 2.99536 13.0955 2.99536 16.498C2.99536 19.9005 4.33064 23.1672 6.71406 25.5955V25.598Z" fill="#2196F3"/>
</svg>
