<svg width="32" height="33" viewBox="0 0 32 33" fill="none" xmlns="http://www.w3.org/2000/svg">
<path d="M0.5 7.9C0.5 13.4 0.8 14 3.55 14C5.25 14 5.45 14.15 6.8 16.85L8.25 19.75H16H23.75L25.2 16.85C26.55 14.15 26.75 14 28.45 14C31.2 14 31.5 13.4 31.5 7.9V3H16H0.5V7.9ZM30.4 7.8C30.6 13.25 31.35 13 16 13C0.8 13 1.5 13.25 1.5 8.05C1.5 6.2 1.65 4.5 1.85 4.35C2.05 4.15 8.5 4.05 16.2 4.1L30.25 4.25L30.4 7.8ZM10.5 15.45C10.95 17.35 12 17.35 12 15.5C12 14.05 12.1 13.95 13.65 14.1C15 14.2 15.3 14.5 15.4 15.6C15.5 16.4 15.75 17 16 17C16.25 17 16.5 16.4 16.6 15.6C16.7 14.5 17 14.2 18.4 14.1C19.9 13.95 20 14.05 20 15.5C20 17.35 21.05 17.35 21.5 15.45C21.7 14.6 22.2 14.2 23.15 14.1C23.9 14 24.5 14.15 24.5 14.4C24.5 15.6 23.3 18.05 22.5 18.5C21.3 19.15 10.7 19.15 9.5 18.5C8.7 18.05 7.5 15.6 7.5 14.4C7.5 14.15 8.1 14 8.85 14.1C9.8 14.2 10.3 14.6 10.5 15.45Z" fill="#2196F3"/>
<path d="M11.5014 24.3495C11.4514 25.0995 11.4014 26.6495 11.3514 27.6995C11.3014 28.8495 11.5014 29.7495 11.8514 29.8495C12.2014 29.9995 12.4514 29.4995 12.5014 28.6495C12.5514 27.8995 12.6014 26.3495 12.6514 25.2995C12.7014 24.1495 12.5014 23.2495 12.1514 23.1495C11.8014 22.9995 11.5514 23.4995 11.5014 24.3495Z" fill="#2196F3"/>
<path d="M15.5014 24.3495C15.4514 25.0995 15.4014 26.6495 15.3514 27.6995C15.3014 28.8495 15.5014 29.7495 15.8514 29.8495C16.2014 29.9995 16.4514 29.4995 16.5014 28.6495C16.5514 27.8995 16.6014 26.3495 16.6514 25.2995C16.7014 24.1495 16.5014 23.2495 16.1514 23.1495C15.8014 22.9995 15.5514 23.4995 15.5014 24.3495Z" fill="#2196F3"/>
<path d="M19.5014 24.3495C19.4514 25.0995 19.4014 26.6495 19.3514 27.6995C19.3014 28.8495 19.5014 29.7495 19.8514 29.8495C20.2014 29.9995 20.4514 29.4995 20.5014 28.6495C20.5514 27.8995 20.6014 26.3495 20.6514 25.2995C20.7014 24.1495 20.5014 23.2495 20.1514 23.1495C19.8014 22.9995 19.5514 23.4995 19.5014 24.3495Z" fill="#2196F3"/>
</svg>
