<svg width="32" height="33" viewBox="0 0 32 33" fill="none" xmlns="http://www.w3.org/2000/svg">
<g clip-path="url(#clip0_519_33430)">
<path d="M19.8758 1.3875C17.1758 2.2 17.1383 2.225 16.2758 3.6625L15.8633 4.35L16.4883 5.525L17.1258 6.7125V9.2625C17.1258 11.4875 17.1633 11.875 17.3633 12.325C17.7133 13.0875 18.4133 13.8 19.5883 14.5875C20.2633 15.0375 20.6258 15.35 20.6008 15.475C20.5758 15.6125 19.9883 15.8125 18.4258 16.1875C17.2633 16.4625 16.1008 16.8125 15.8633 16.95C15.6383 17.0875 15.3133 17.425 15.1633 17.7C14.9008 18.15 14.8758 18.35 14.8758 20.0875V22H8.12581C0.713311 22 0.838311 21.9875 0.438311 22.75C0.200811 23.2125 0.200811 23.6625 0.450811 24.1375C0.700811 24.625 1.30081 24.875 2.25081 24.875H3.00081V28.4875C3.00081 32.35 3.02581 32.5 3.61331 32.3125C3.86331 32.2375 3.87581 32.125 3.90081 28.5875L3.93831 24.9375L16.0383 24.9L28.1258 24.875V28.475C28.1258 32.2 28.1508 32.375 28.6508 32.375C29.0758 32.375 29.1258 31.9625 29.1258 28.3875V24.875H29.9383C30.8883 24.875 31.3258 24.7 31.5758 24.2375C32.0133 23.3875 31.6383 22.3625 30.8383 22.15L30.4383 22.05L30.3758 20.1125C30.2758 17.175 30.1508 17.0375 26.7383 16.225C25.0258 15.825 24.5008 15.65 24.5008 15.5C24.5008 15.4 24.8633 15.1 25.2883 14.85C26.3758 14.2125 27.2508 13.4 27.6883 12.6L28.0633 11.9375L28.1258 9.1875L28.1883 6.4375L28.7258 5.4875C29.0133 4.9625 29.2508 4.4625 29.2508 4.3625C29.2508 4.2625 28.9883 3.8125 28.6758 3.3625C28.3633 2.925 28.0633 2.4875 28.0133 2.3875C27.9133 2.225 22.8633 0.612499 22.5008 0.637499C22.4008 0.65 21.2133 0.987499 19.8758 1.3875ZM25.0133 2.3125C26.2508 2.6875 27.2883 3 27.3133 3C27.4008 3 28.2508 4.2625 28.2508 4.375C28.2508 4.4875 27.6633 5.7375 27.5508 5.8625C27.5383 5.8875 27.0508 5.7 26.4758 5.4625C23.8883 4.3625 21.2758 4.375 18.8008 5.5C18.3383 5.7 17.9258 5.875 17.8883 5.875C17.7883 5.875 17.1258 4.5625 17.1258 4.375C17.1258 4.3125 17.3008 3.9875 17.5008 3.6625L17.8758 3.0625L20.1633 2.35C21.4133 1.9625 22.5133 1.6375 22.5883 1.6375C22.6758 1.625 23.7633 1.9375 25.0133 2.3125ZM24.6883 5.825C25.1008 5.9375 25.8133 6.2 26.2508 6.4125L27.0633 6.8125L27.1008 7.7375C27.1258 8.45 27.1008 8.6375 26.9758 8.5875C25.8758 8.1 25.0883 7.825 24.4008 7.6875C22.7008 7.325 20.7508 7.525 18.9883 8.25C18.5008 8.4625 18.0758 8.625 18.0508 8.625C18.0258 8.625 18.0008 8.2375 18.0008 7.75V6.875L18.6508 6.55C20.6383 5.5375 22.6133 5.3125 24.6883 5.825ZM24.5383 8.6875C24.7508 8.775 24.7508 8.8 24.5508 9.0125C24.3633 9.225 24.1383 9.25 22.6883 9.25C21.2133 9.25 21.0133 9.225 20.8133 9C20.6008 8.775 20.6133 8.7625 20.9508 8.6875C21.1508 8.6375 21.3758 8.575 21.4383 8.55C21.6383 8.475 24.2883 8.5875 24.5383 8.6875ZM20.0133 9.6875L20.6133 10.25H22.5633H24.5133L25.1258 9.675L25.7383 9.1L26.4383 9.425L27.1258 9.7375V10.5875C27.1258 12.275 26.2758 13.275 23.8008 14.5125L22.5383 15.15L21.6133 14.6875C19.6883 13.7125 18.3883 12.5875 18.1383 11.675C18.0633 11.4 18.0008 10.8625 18.0008 10.475V9.775L18.6633 9.45C19.0133 9.275 19.3383 9.1375 19.3633 9.125C19.3883 9.125 19.6883 9.375 20.0133 9.6875ZM22.1633 15.95C22.5383 16.125 22.6258 16.125 23.0383 15.95C23.5008 15.7625 23.5008 15.7625 23.5008 16.075C23.5008 16.4875 22.9758 17 22.5508 17C22.0883 17 21.6258 16.55 21.6258 16.1C21.6258 15.6875 21.6258 15.6875 22.1633 15.95ZM21.1133 17.05C21.7883 18.1375 23.4758 18.125 24.1633 17.0375C24.3633 16.725 24.5008 16.6375 24.6883 16.675C24.8258 16.7125 25.8008 16.95 26.8508 17.2C29.4633 17.8375 29.3758 17.7375 29.3758 20.1375V22H22.6258H15.8758V20.2C15.8758 17.775 15.7883 17.8875 18.5133 17.175C19.6383 16.8875 20.6258 16.6375 20.7133 16.6375C20.7883 16.625 20.9758 16.8125 21.1133 17.05ZM30.7258 23.3625C30.8258 24.025 31.4133 24 16.0258 24C6.41331 24 1.65081 23.9625 1.48831 23.875C1.26331 23.75 1.16331 23.25 1.33831 23.0875C1.37581 23.0375 8.00081 23.0125 16.0508 23.025L30.6883 23.0625L30.7258 23.3625Z" fill="#2196F3"/>
<path d="M22.2743 2.52485C22.0243 2.77485 22.0868 3.59985 22.3618 3.74985C22.7243 3.93735 22.9868 3.77485 23.0743 3.31235C23.1993 2.59985 22.6993 2.09985 22.2743 2.52485Z" fill="#2196F3"/>
<path d="M5.60007 2.93759C4.12507 3.31259 2.50007 4.36259 1.68757 5.47509C0.437569 7.17509 -0.0374307 9.35009 0.450069 11.0126C1.02507 12.9376 3.02507 15.8876 5.75007 18.7876C7.18757 20.3126 7.12507 20.3001 8.02507 19.4126C10.6001 16.9001 13.1001 13.4376 13.8251 11.4001C14.9501 8.21259 12.9626 4.41259 9.52507 3.16259C8.46257 2.77509 6.65007 2.66259 5.60007 2.93759ZM9.03757 4.01259C10.6376 4.55009 11.8376 5.62509 12.6126 7.25009C13.0001 8.06259 13.0626 8.32509 13.1001 9.31259C13.1501 10.3126 13.1126 10.5501 12.8376 11.2251C12.1126 13.0376 10.3501 15.5376 8.21257 17.8126L7.15007 18.9376L6.42507 18.1376C4.28757 15.8001 2.51257 13.3501 1.72507 11.6876C1.33757 10.8751 1.31257 10.7251 1.31257 9.50009C1.31257 8.23759 1.33757 8.15009 1.77507 7.21259C2.53757 5.61259 4.15007 4.25009 5.72507 3.88759C6.62507 3.67509 8.20007 3.73759 9.03757 4.01259Z" fill="#2196F3"/>
<path d="M5.94006 5.51306C5.22756 5.71306 4.20256 6.43806 3.74006 7.05056C2.86506 8.21306 2.61506 9.92556 3.14006 11.3131C3.89006 13.3131 6.27756 14.5256 8.32756 13.9506C10.4276 13.3381 11.8151 11.3506 11.5776 9.25056C11.4026 7.71306 10.2151 6.16306 8.80256 5.63806C8.07756 5.36306 6.65256 5.30056 5.94006 5.51306ZM8.66506 6.63806C10.7151 7.66306 11.2401 10.3131 9.71506 11.9631C7.47756 14.4131 3.51506 12.7256 3.77756 9.45056C3.87756 8.32556 4.32756 7.58806 5.41506 6.75056C6.11506 6.22556 7.71506 6.16306 8.66506 6.63806Z" fill="#2196F3"/>
<path d="M7.75 9.1875C7.1625 9.775 6.6375 10.25 6.575 10.25C6.5 10.25 6.1875 9.9875 5.8625 9.675C5.4125 9.225 5.225 9.1125 5.0125 9.1875C4.825 9.2375 4.75 9.375 4.75 9.6125C4.75 9.875 4.95 10.15 5.55 10.725C5.9875 11.15 6.425 11.5 6.525 11.5C6.7625 11.5 9.375 8.85 9.375 8.6125C9.375 8.4 9.1375 8.125 8.9375 8.125C8.8625 8.125 8.3375 8.6 7.75 9.1875Z" fill="#2196F3"/>
</g>
<defs>
<clipPath id="clip0_519_33430">
<rect width="32" height="32" fill="white" transform="translate(0 0.5)"/>
</clipPath>
</defs>
</svg>
