<svg width="32" height="33" viewBox="0 0 32 33" fill="none" xmlns="http://www.w3.org/2000/svg">
<path d="M29.1262 17.3742C28.8234 16.2431 28.2599 15.1986 27.4809 14.3243C26.7019 13.45 25.7289 12.7703 24.64 12.3396C23.5511 11.9089 22.3765 11.7391 21.2102 11.8439C20.0439 11.9487 18.9184 12.3251 17.9237 12.943L19.9725 4.76299C20.0233 4.55976 20.009 4.34569 19.9316 4.15102C19.8542 3.95634 19.7177 3.79088 19.5412 3.67799C18.6907 3.14093 17.7408 2.78045 16.7481 2.61799C15.7555 2.45554 14.7402 2.49442 13.7629 2.73234C12.7856 2.97026 11.8661 3.40235 11.0591 4.0029C10.2522 4.60344 9.57429 5.36017 9.06578 6.22806C8.55728 7.09595 8.22855 8.05726 8.09916 9.05479C7.96977 10.0523 8.04236 11.0657 8.31262 12.0346C8.58288 13.0035 9.04527 13.9081 9.6723 14.6947C10.2993 15.4812 11.0782 16.1336 11.9625 16.613L3.85371 18.9292C3.65226 18.9866 3.47391 19.1058 3.34383 19.27C3.21375 19.4341 3.1385 19.635 3.12871 19.8442C3.05174 21.5516 3.56025 23.2341 4.57002 24.613C5.57978 25.992 7.03024 26.9847 8.68121 27.4267C9.31798 27.5977 9.97438 27.6847 10.6337 27.6855C11.6384 27.6828 12.6323 27.4786 13.5567 27.0848C14.481 26.691 15.3169 26.1158 16.0149 25.3931C16.7128 24.6704 17.2587 23.815 17.62 22.8776C17.9814 21.9401 18.151 20.9397 18.1187 19.9355L24.1787 25.8005C24.3294 25.9463 24.5221 26.041 24.7296 26.0713C24.9371 26.1016 25.1489 26.0659 25.335 25.9692C26.8512 25.1825 28.0535 23.9018 28.7429 22.3388C29.4323 20.7759 29.5676 19.0245 29.1262 17.3742ZM14.0012 16.4992C14.0012 16.1037 14.1185 15.717 14.3383 15.3881C14.558 15.0592 14.8704 14.8029 15.2358 14.6515C15.6013 14.5001 16.0034 14.4605 16.3914 14.5377C16.7793 14.6148 17.1357 14.8053 17.4154 15.085C17.6951 15.3647 17.8856 15.7211 17.9628 16.1091C18.0399 16.497 18.0003 16.8992 17.849 17.2646C17.6976 17.6301 17.4412 17.9424 17.1123 18.1622C16.7834 18.3819 16.3968 18.4992 16.0012 18.4992C15.4708 18.4992 14.9621 18.2885 14.587 17.9135C14.2119 17.5384 14.0012 17.0297 14.0012 16.4992ZM10.0012 9.99924C10.0009 9.07248 10.2348 8.16067 10.6811 7.34847C11.1274 6.53628 11.7718 5.85004 12.5543 5.35348C13.3368 4.85692 14.2321 4.56614 15.157 4.50814C16.082 4.45015 17.0066 4.62681 17.845 5.02174L15.9725 12.4992C15.256 12.5046 14.5541 12.7023 13.9401 13.0718C13.3262 13.4412 12.8228 13.9687 12.4825 14.5992C11.7186 14.0997 11.0916 13.4173 10.6583 12.614C10.225 11.8107 9.99911 10.9119 10.0012 9.99924ZM13.3762 24.9455C12.5738 25.4091 11.6672 25.6625 10.7407 25.6821C9.8142 25.7016 8.89776 25.4868 8.07648 25.0574C7.25521 24.6281 6.55574 23.9982 6.04302 23.2262C5.5303 22.4543 5.22095 21.5652 5.14371 20.6417L12.5575 18.5242C12.9099 19.1247 13.413 19.6227 14.017 19.9691C14.621 20.3155 15.3049 20.4982 16.0012 20.4992H16.115C16.0646 21.4098 15.7878 22.2933 15.3095 23.0697C14.8313 23.8462 14.1667 24.4909 13.3762 24.9455ZM26.6475 22.0705C26.2428 22.7723 25.6879 23.3759 25.0225 23.838L19.4825 18.4767C19.837 17.8541 20.0172 17.1474 20.0042 16.431C19.9912 15.7146 19.7855 15.0149 19.4087 14.4055C20.4664 13.8715 21.6683 13.6934 22.8354 13.8977C24.0025 14.1019 25.0725 14.6776 25.886 15.539C26.6995 16.4004 27.2131 17.5015 27.3503 18.6784C27.4875 19.8553 27.241 21.045 26.6475 22.0705Z" fill="#2196F3"/>
</svg>
