<svg width="32" height="32" viewBox="0 0 32 32" fill="none" xmlns="http://www.w3.org/2000/svg">
<path d="M0.5 7.4C0.5 12.9 0.8 13.5 3.55 13.5C5.25 13.5 5.45 13.65 6.8 16.35L8.25 19.25H16H23.75L25.2 16.35C26.55 13.65 26.75 13.5 28.45 13.5C31.2 13.5 31.5 12.9 31.5 7.4V2.5H16H0.5V7.4ZM30.4 7.3C30.6 12.75 31.35 12.5 16 12.5C0.8 12.5 1.5 12.75 1.5 7.55C1.5 5.7 1.65 4 1.85 3.85C2.05 3.65 8.5 3.55 16.2 3.6L30.25 3.75L30.4 7.3ZM10.5 14.95C10.95 16.85 12 16.85 12 15C12 13.55 12.1 13.45 13.65 13.6C15 13.7 15.3 14 15.4 15.1C15.5 15.9 15.75 16.5 16 16.5C16.25 16.5 16.5 15.9 16.6 15.1C16.7 14 17 13.7 18.4 13.6C19.9 13.45 20 13.55 20 15C20 16.85 21.05 16.85 21.5 14.95C21.7 14.1 22.2 13.7 23.15 13.6C23.9 13.5 24.5 13.65 24.5 13.9C24.5 15.1 23.3 17.55 22.5 18C21.3 18.65 10.7 18.65 9.5 18C8.7 17.55 7.5 15.1 7.5 13.9C7.5 13.65 8.1 13.5 8.85 13.6C9.8 13.7 10.3 14.1 10.5 14.95Z" fill="#2196F3"/>
<path d="M11.5014 23.8505C11.4514 24.6005 11.4014 26.1505 11.3514 27.2005C11.3014 28.3505 11.5014 29.2505 11.8514 29.3505C12.2014 29.5005 12.4514 29.0005 12.5014 28.1505C12.5514 27.4005 12.6014 25.8505 12.6514 24.8005C12.7014 23.6505 12.5014 22.7505 12.1514 22.6505C11.8014 22.5005 11.5514 23.0005 11.5014 23.8505Z" fill="#2196F3"/>
<path d="M15.5014 23.8505C15.4514 24.6005 15.4014 26.1505 15.3514 27.2005C15.3014 28.3505 15.5014 29.2505 15.8514 29.3505C16.2014 29.5005 16.4514 29.0005 16.5014 28.1505C16.5514 27.4005 16.6014 25.8505 16.6514 24.8005C16.7014 23.6505 16.5014 22.7505 16.1514 22.6505C15.8014 22.5005 15.5514 23.0005 15.5014 23.8505Z" fill="#2196F3"/>
<path d="M19.5014 23.8505C19.4514 24.6005 19.4014 26.1505 19.3514 27.2005C19.3014 28.3505 19.5014 29.2505 19.8514 29.3505C20.2014 29.5005 20.4514 29.0005 20.5014 28.1505C20.5514 27.4005 20.6014 25.8505 20.6514 24.8005C20.7014 23.6505 20.5014 22.7505 20.1514 22.6505C19.8014 22.5005 19.5514 23.0005 19.5014 23.8505Z" fill="#2196F3"/>
</svg>
