<svg width="32" height="32" viewBox="0 0 32 32" fill="none" xmlns="http://www.w3.org/2000/svg">
<path d="M7.75 0.487576C7.75 0.987576 7.75 0.987576 8.2875 1.02508L8.8125 1.06258L8.85 1.88758C8.8875 2.71258 8.9 2.72508 9.375 3.05008L9.875 3.37508V2.18758V1.00008H10.875H11.875V3.62508V6.25008H11.375C10.925 6.25008 10.8625 6.28758 10.6875 6.70008C10.5875 6.95008 10.5 7.17508 10.5 7.20008C10.5 7.22508 11.625 7.25008 13 7.25008H15.5V8.25008V9.25008H9.3125H3.125V8.25008V7.25008H4.1125H5.1L4.9375 6.77508L4.775 6.31258L3.45 6.27508L2.125 6.23758V8.31258V10.3751H5.5125H8.8875L8.85 10.9001L8.8125 11.4376L7.55 11.7501C6.1375 12.1001 5.425 12.5001 4.8875 13.2501C4.2375 14.1376 4.2375 14.2376 4.275 22.1876L4.3125 29.5626L4.65 30.1376C5.0375 30.7876 5.5375 31.2501 6.3 31.6626C6.7875 31.9251 6.975 31.9376 10.6 31.9751C15.0375 32.0251 15.3375 31.9751 16.35 31.0626C17.4375 30.0876 17.55 29.7001 17.6 27.0251L17.65 24.7251L18.8875 24.7751C20.7375 24.8376 20.675 24.7251 20.75 28.0376C20.7875 29.8001 20.8625 30.7751 20.9625 30.9501C21.4 31.7001 22.3125 32.1126 23.2 31.9501C23.7875 31.8376 24.5875 31.1001 24.75 30.5251C24.825 30.2501 24.875 28.3501 24.875 25.9751C24.875 23.7376 24.9125 21.8001 24.95 21.6876C25.075 21.3751 25.675 21.1251 26.3125 21.1251C27.0625 21.1251 27.775 20.7501 28.1375 20.1626C28.4 19.7501 28.4375 19.5001 28.475 18.1001L28.525 16.5126L28.875 16.4376C29.2375 16.3626 29.6125 16.0126 29.8625 15.5376C29.95 15.3751 30 14.5501 30 13.4376C30 10.7376 29.75 10.3751 27.9375 10.3751C26.8375 10.3751 26.35 10.5751 26.0625 11.1376C25.9 11.4501 25.8625 11.8876 25.9 13.5626L25.9375 15.6126L26.3 15.9876C26.5 16.1876 26.825 16.4001 27.0125 16.4376L27.375 16.5251V18.0126C27.375 19.4376 27.3625 19.5251 27.0625 19.8126C26.825 20.0626 26.6375 20.1251 26.125 20.1251C24.9875 20.1251 24.1625 20.7126 23.875 21.7251C23.8 22.0001 23.75 23.8251 23.75 26.2126C23.75 28.4251 23.7125 30.3251 23.675 30.4376C23.5875 30.6626 22.9875 31.0001 22.6875 31.0001C22.575 31.0001 22.3125 30.8376 22.1125 30.6376L21.75 30.2751V27.8501C21.75 25.5876 21.7375 25.3876 21.475 24.8751C21.025 24.0001 20.475 23.7501 18.9125 23.7501H17.6375L17.6 19.0876C17.5625 14.4751 17.5625 14.4376 17.2625 13.8751C16.625 12.6376 15.75 12.0501 14.0375 11.6876L13 11.4626V10.9251V10.3876L14.7875 10.3501L16.5625 10.3126L16.6 9.77508L16.6375 9.25008H17.6375C18.4125 9.25008 18.625 9.28758 18.625 9.42508C18.625 9.52508 18.7625 9.77508 18.925 9.96258C19.2125 10.2876 19.2875 10.3126 20.1875 10.3126C21.0875 10.3126 21.1625 10.2876 21.45 9.96258C21.7375 9.62508 21.75 9.53758 21.75 7.75008C21.75 5.97508 21.7375 5.87508 21.45 5.55008C21.2 5.25008 21.05 5.20008 20.3625 5.16258C19.4125 5.11258 19.0125 5.27508 18.75 5.83758L18.5625 6.25008H15.7875H13V3.62508V1.00008H13.5H14V0.500076V7.62939e-05H10.875H7.75V0.487576ZM20.75 7.75008V9.25008H20.1875H19.625V7.75008V6.25008H20.1875H20.75V7.75008ZM18.625 7.75008V8.25008H17.625H16.625V7.75008V7.25008H17.625H18.625V7.75008ZM11.875 10.8751V11.3751H10.875H9.875V10.8751V10.3751H10.875H11.875V10.8751ZM28.875 11.6126C28.9375 11.7501 29 12.5876 29 13.4876C29 15.4126 28.95 15.5001 27.9375 15.5001C26.9125 15.5001 26.875 15.4251 26.875 13.3876C26.875 12.2251 26.925 11.6251 27.025 11.5251C27.1125 11.4376 27.5125 11.3751 27.9625 11.3751C28.6 11.3751 28.7625 11.4126 28.875 11.6126ZM13.7125 12.6876C14.45 12.8626 15.1875 13.0876 15.3375 13.1876C16 13.6251 16.4125 14.2501 16.55 15.0251L16.6375 15.5001H10.9375H5.25V15.1876C5.25 14.7626 5.575 14.0126 5.9125 13.6501C6.325 13.2001 6.8125 12.9876 8.0625 12.6751C9.7375 12.2626 11.9375 12.2751 13.7125 12.6876ZM16.6 22.7751L16.5625 29.0626L16.2125 29.6501C15.9875 30.0376 15.6625 30.3626 15.275 30.5876L14.6875 30.9376L11.1625 30.9751C7.275 31.0126 6.8875 30.9626 6.1625 30.3376C5.2375 29.5251 5.25 29.6876 5.25 22.7126V16.5001H10.9375H16.6375L16.6 22.7751Z" fill="#2196F3"/>
<path d="M6.25 24.6375C6.25 28.0875 6.275 28.7125 6.45 29.075C6.75 29.6875 7.1875 29.875 8.375 29.875H9.375V29.375V28.875H8.4375C7.65 28.875 7.4875 28.8375 7.375 28.6375C7.3 28.4875 7.25 26.95 7.25 24.5125V20.625H6.75H6.25V24.6375Z" fill="#2196F3"/>
<path d="M10.375 29.375V29.875H10.875H11.375V29.375V28.875H10.875H10.375V29.375Z" fill="#2196F3"/>
<path d="M7.25 5.0248C7.25 5.3123 7.125 5.5498 6.8125 5.8748L6.375 6.3248L6.75 6.6873L7.125 7.0498L7.75 6.4373C8.325 5.8748 8.375 5.7748 8.375 5.2248V4.6248H7.8125C7.2625 4.6248 7.25 4.6373 7.25 5.0248Z" fill="#2196F3"/>
</svg>
