<svg width="32" height="32" viewBox="0 0 32 32" fill="none" xmlns="http://www.w3.org/2000/svg">
<path d="M12.6617 0.662497C11.9117 0.937498 11.1992 1.5625 10.8117 2.2625L10.4367 2.9375L10.3992 11.0125L10.3617 19.0875L8.71172 19.15C6.86172 19.225 6.12422 19.425 5.19922 20.1375C3.93672 21.1125 3.32422 22.3625 3.32422 24C3.32422 24.925 3.37422 25.175 3.69922 25.875C4.36172 27.275 5.17422 28.0125 6.59922 28.4875C7.29922 28.725 7.66172 28.75 10.6742 28.75H13.9867L14.2117 29.1375C14.5492 29.7125 15.2117 30 16.1742 30C16.9492 30 16.9742 30.0125 17.0992 30.3625C17.1742 30.5625 17.3617 30.825 17.5367 30.925C17.7867 31.0875 19.4617 31.5 19.8742 31.5C19.9367 31.5 19.9992 31.175 20.0242 30.775L20.0617 30.0625L21.5992 30.025L23.1242 29.9875V29.5V29H21.5617H19.9992V28.25V27.5H21.5617H23.1242V27V26.5H21.5617H19.9992V25.75C19.9992 25.3375 19.9492 25 19.8867 25C19.4617 25 17.7867 25.4 17.5367 25.575C17.3617 25.675 17.1742 25.9375 17.0992 26.1375C16.9742 26.4875 16.9367 26.5 16.2117 26.5C15.2867 26.5 14.5242 26.8375 14.1992 27.375L13.9742 27.7625L10.5242 27.725C7.21172 27.6875 7.03672 27.675 6.48672 27.4C5.71172 27.025 5.07422 26.375 4.66172 25.5875C4.38672 25.05 4.32422 24.775 4.32422 24C4.32422 22.4375 5.08672 21.225 6.47422 20.5375C7.09922 20.225 7.33672 20.1875 8.77422 20.15L10.3742 20.1V21.8V23.5H11.4992H12.6242V24.5625V25.625H14.4992H16.3742V24.5625V23.5H19.5617H22.7492V24.5625V25.625H24.6242H26.4992V24.5625V23.5H27.6242H28.7492V13.525C28.7492 2.275 28.7867 2.6875 27.8367 1.6625C27.5492 1.3375 27.0367 0.949997 26.6867 0.799997L26.0617 0.499998L19.5617 0.512497C14.9117 0.512497 12.9492 0.562498 12.6617 0.662497ZM26.3617 1.75C26.9617 2.05 27.4492 2.625 27.6242 3.225C27.6867 3.475 27.7492 4.2125 27.7492 4.8375V6H26.8367C24.8492 6 23.7367 6.4125 22.4117 7.65C21.3242 8.6625 20.6992 8.9375 19.4992 8.925C18.3492 8.925 17.7742 8.6625 16.6492 7.6125C15.3617 6.4 14.2492 6 12.2242 6H11.3742V4.7125C11.3742 3.325 11.5742 2.6875 12.1367 2.1625C12.8867 1.4875 12.6867 1.5 19.5367 1.5C25.5867 1.5 25.9117 1.5125 26.3617 1.75ZM14.5617 7.3625C14.8867 7.5 15.5242 7.975 15.9742 8.3875C16.4492 8.8375 17.1367 9.325 17.6117 9.55C18.3492 9.8875 18.5617 9.9375 19.5617 9.9375C20.5242 9.9375 20.7992 9.8875 21.4117 9.6C21.8117 9.4125 22.4492 8.9625 22.8492 8.5875C23.2367 8.225 23.7367 7.8 23.9492 7.65C24.5117 7.2625 25.6492 7 26.7742 7H27.7492V11.1875V15.375H19.5617H11.3742V11.175V6.9625L12.6617 7.025C13.5992 7.075 14.1242 7.175 14.5617 7.3625ZM27.7492 17V17.6125L26.3492 17.65L24.9367 17.6875L24.8992 18.15L24.8617 18.625H26.2992H27.7492V19.25V19.875H26.3117H24.8742V20.375V20.875H26.3117H27.7492V21.6875V22.5H19.5617H11.3742V21.6875V20.875H12.7492H14.1242V20.375V19.875H12.7492H11.3742V19.25V18.625H12.7492H14.1242V18.125V17.625H12.7492H11.3742V17V16.375H19.5617H27.7492V17ZM15.3742 24.0625V24.625H14.4992H13.6242V24.0625V23.5H14.4992H15.3742V24.0625ZM25.4992 24.0625V24.625H24.6242H23.7492V24.0625V23.5H24.6242H25.4992V24.0625ZM18.9992 28.25C18.9992 29.8875 18.9617 30.35 18.8492 30.325C18.7617 30.2875 18.5367 30.2375 18.3492 30.2C18.0242 30.125 17.9992 30.075 17.9992 29.5625V29H16.7242C15.3117 29 14.9992 28.8625 14.9992 28.2375C14.9992 27.6625 15.3742 27.5 16.7742 27.5H17.9992V26.9375C17.9992 26.425 18.0242 26.375 18.3492 26.3C18.5367 26.2625 18.7492 26.2125 18.8117 26.1875C18.8867 26.1625 18.9492 26.1375 18.9742 26.1375C18.9867 26.125 18.9992 27.075 18.9992 28.25Z" fill="#2196F3"/>
<path d="M18.5624 2.71165C17.8999 3.04915 17.4999 3.53665 17.2999 4.19915C17.0999 4.89915 17.1499 5.27415 17.5124 6.02415C17.9624 6.91165 19.1624 7.42415 20.1124 7.13665C20.7499 6.94915 21.4749 6.32415 21.6999 5.78665C22.0624 4.93665 21.8124 3.68665 21.1624 3.09915C20.5249 2.52415 19.2749 2.33665 18.5624 2.71165ZM19.4999 4.99915H19.9999V4.29915C19.9999 3.71165 20.0374 3.61165 20.1999 3.67415C20.3124 3.71165 20.4124 3.74915 20.4499 3.74915C20.5749 3.74915 20.8749 4.53665 20.8749 4.89915C20.8749 5.68665 20.0874 6.33665 19.3249 6.19915C18.8749 6.11165 18.3249 5.58665 18.2124 5.14915C18.1124 4.73665 18.3499 4.03665 18.6624 3.81165C18.9374 3.62415 18.9374 3.62415 18.9749 4.31165L19.0124 4.99915H19.4999Z" fill="#2196F3"/>
<path d="M14.5981 11.4496C13.8481 11.8496 13.6231 13.0621 14.1856 13.7371C14.8481 14.5121 15.8981 14.5121 16.5606 13.7371C17.5981 12.4871 16.0356 10.6621 14.5981 11.4496ZM15.7231 12.3996C16.1481 12.8246 15.6481 13.5246 15.1231 13.2496C14.6856 13.0121 14.8731 12.2496 15.3731 12.2496C15.4856 12.2496 15.6356 12.3121 15.7231 12.3996Z" fill="#2196F3"/>
<path d="M18.785 11.5009C17.9975 11.9759 17.785 12.9009 18.285 13.6384C18.8225 14.4384 19.935 14.5384 20.6225 13.8509C21.3225 13.1634 21.185 12.0134 20.3475 11.5009C19.8225 11.1884 19.2975 11.1884 18.785 11.5009ZM20.0225 12.5634C20.1475 12.8384 20.135 12.9259 19.91 13.1384C19.585 13.4634 19.16 13.3634 19.0475 12.9259C18.885 12.2759 19.7475 11.9634 20.0225 12.5634Z" fill="#2196F3"/>
<path d="M22.9854 11.4257C22.1979 11.8757 21.9854 13.0382 22.5604 13.7382C23.4979 14.8507 25.2479 14.2007 25.2479 12.7257C25.2479 12.0132 24.6229 11.3757 23.8729 11.3007C23.5229 11.2632 23.1854 11.3132 22.9854 11.4257ZM24.0979 12.4007C24.5229 12.8257 24.0229 13.5257 23.4979 13.2507C23.2104 13.1007 23.1479 12.4382 23.4104 12.3382C23.6854 12.2257 23.9479 12.2507 24.0979 12.4007Z" fill="#2196F3"/>
<path d="M19.5 17.2496C19.4 17.3746 19.0375 17.7996 18.7 18.1871L18.0875 18.8871L18.2875 19.3121C18.475 19.7121 18.55 19.7496 19.025 19.7496H19.55L19.1125 20.2121C18.875 20.4746 18.5375 20.8496 18.375 21.0371L18.0625 21.3996L18.4375 21.7121L18.8 22.0371L19.35 21.4246C20.95 19.6621 21.0125 19.5746 20.85 19.1496C20.7125 18.7871 20.65 18.7496 20.1625 18.7496C19.8625 18.7496 19.625 18.7121 19.625 18.6621C19.625 18.6121 19.8375 18.3621 20.0875 18.0996L20.55 17.6246L20.25 17.3121C19.9 16.9371 19.75 16.9246 19.5 17.2496Z" fill="#2196F3"/>
</svg>
