<svg width="32" height="32" viewBox="0 0 32 32" fill="none" xmlns="http://www.w3.org/2000/svg">
<path d="M27.0011 11.1V9C27.0011 7.67392 26.4743 6.40215 25.5366 5.46447C24.599 4.52678 23.3272 4 22.0011 4H10.0011C8.67502 4 7.40325 4.52678 6.46557 5.46447C5.52789 6.40215 5.00111 7.67392 5.00111 9V11.1C3.87082 11.3295 2.85463 11.9427 2.12473 12.8357C1.39483 13.7288 0.996094 14.8466 0.996094 16C0.996094 17.1534 1.39483 18.2712 2.12473 19.1643C2.85463 20.0573 3.87082 20.6705 5.00111 20.9V25C5.00111 25.5304 5.21182 26.0391 5.58689 26.4142C5.96197 26.7893 6.47067 27 7.00111 27H25.0011C25.5315 27 26.0402 26.7893 26.4153 26.4142C26.7904 26.0391 27.0011 25.5304 27.0011 25V20.9C28.1314 20.6705 29.1476 20.0573 29.8775 19.1643C30.6074 18.2712 31.0061 17.1534 31.0061 16C31.0061 14.8466 30.6074 13.7288 29.8775 12.8357C29.1476 11.9427 28.1314 11.3295 27.0011 11.1ZM10.0011 6H22.0011C22.7968 6 23.5598 6.31607 24.1224 6.87868C24.685 7.44129 25.0011 8.20435 25.0011 9V11.1C23.8725 11.3321 22.8584 11.9461 22.1298 12.8387C21.4011 13.7313 21.0025 14.8478 21.0011 16H11.0011C10.9997 14.8478 10.6011 13.7313 9.87245 12.8387C9.14381 11.9461 8.12972 11.3321 7.00111 11.1V9C7.00111 8.20435 7.31718 7.44129 7.87979 6.87868C8.4424 6.31607 9.20546 6 10.0011 6ZM26.0499 19H26.0011C25.7359 19 25.4815 19.1054 25.294 19.2929C25.1065 19.4804 25.0011 19.7348 25.0011 20V25H7.00111V20C7.00111 19.7348 6.89575 19.4804 6.70821 19.2929C6.52068 19.1054 6.26632 19 6.00111 19H5.95236C5.36118 18.9904 4.78603 18.8063 4.29914 18.4709C3.81224 18.1355 3.43532 17.6636 3.21572 17.1147C2.99611 16.5657 2.94361 15.9641 3.06482 15.3854C3.18602 14.8067 3.47552 14.2767 3.89695 13.862C4.31839 13.4474 4.85296 13.1664 5.43353 13.0546C6.01411 12.9427 6.61479 13.0049 7.16013 13.2333C7.70548 13.4618 8.17117 13.8462 8.4987 14.3385C8.82624 14.8307 9.00103 15.4087 9.00111 16V21C9.00111 21.2652 9.10646 21.5196 9.294 21.7071C9.48154 21.8946 9.73589 22 10.0011 22C10.2663 22 10.5207 21.8946 10.7082 21.7071C10.8958 21.5196 11.0011 21.2652 11.0011 21V18H21.0011V21C21.0011 21.2652 21.1065 21.5196 21.294 21.7071C21.4815 21.8946 21.7359 22 22.0011 22C22.2663 22 22.5207 21.8946 22.7082 21.7071C22.8958 21.5196 23.0011 21.2652 23.0011 21V16C23.0012 15.4087 23.176 14.8307 23.5035 14.3385C23.8311 13.8462 24.2967 13.4618 24.8421 13.2333C25.3874 13.0049 25.9881 12.9427 26.5687 13.0546C27.1493 13.1664 27.6838 13.4474 28.1053 13.862C28.5267 14.2767 28.8162 14.8067 28.9374 15.3854C29.0586 15.9641 29.0061 16.5657 28.7865 17.1147C28.5669 17.6636 28.19 18.1355 27.7031 18.4709C27.2162 18.8063 26.641 18.9904 26.0499 19Z" fill="#2196F3"/>
</svg>
