<svg width="32" height="33" viewBox="0 0 32 33" fill="none" xmlns="http://www.w3.org/2000/svg">
<path d="M29.5 2.75C29.5 3.95 29.25 4.5 28.75 4.5C28.35 4.5 28 4.15 28 3.75C28 3.15 27.1 3 23 3H18V5C18 6.1 18.25 7 18.5 7C18.8 7 19 7.45 19 8C19 8.95 18.65 9 9.75 9H0.5V19.5C0.5 26.15 0.7 30 1 30C1.3 30 1.5 30.45 1.5 31C1.5 31.85 1.85 32 4 32C6.15 32 6.5 31.85 6.5 31C6.5 30.05 6.85 30 16 30C25.15 30 25.5 30.05 25.5 31C25.5 31.85 25.85 32 28 32C30.15 32 30.5 31.85 30.5 31C30.5 30.45 30.75 30 31 30C31.3 30 31.5 26.15 31.5 19.5V9H29.25C27.35 9 27 8.85 27 8C27 7.45 27.25 7 27.5 7C27.8 7 28 6.65 28 6.25C28 5.8 28.45 5.5 29.25 5.5C30.4 5.5 30.5 5.3 30.5 3.25C30.5 2 30.3 0.999998 30 0.999998C29.75 0.999998 29.5 1.8 29.5 2.75ZM26 8C26 8.9 25.65 9 23 9C20.35 9 20 8.9 20 8C20 7.1 20.35 7 23 7C25.65 7 26 7.1 26 8ZM30.5 18.5C30.5 23.85 30.3 27 30 27C29.7 27 29.5 24 29.5 19V11H17.5H5.5V12.75C5.5 14.35 5.4 14.5 4 14.5C2.65 14.5 2.5 14.65 2.5 16C2.5 17.35 2.65 17.5 4 17.5C5.4 17.5 5.5 17.65 5.5 19.25C5.5 20.85 5.4 21 4 21C2.65 21 2.5 21.15 2.5 22.5C2.5 23.85 2.65 24 4 24C5.35 24 5.5 24.15 5.5 25.5C5.5 26.9 5.4 27 3.5 27H1.5V18.5V10H16H30.5V18.5ZM14.5 19.5V27H10.5H6.5V19.5V12H10.5H14.5V19.5ZM16.5 19.5C16.5 24.15 16.3 27 16 27C15.7 27 15.5 24.15 15.5 19.5C15.5 14.85 15.7 12 16 12C16.3 12 16.5 14.85 16.5 19.5ZM28.5 19.5V27H23H17.5V19.5V12H23H28.5V19.5ZM30.5 28.5C30.5 28.8 25.35 29 16 29C6.65 29 1.5 28.8 1.5 28.5C1.5 28.2 6.65 28 16 28C25.35 28 30.5 28.2 30.5 28.5Z" fill="#2196F3"/>
<path d="M8 15C8 16.45 8.05 16.5 10.5 16.5C12.95 16.5 13 16.45 13 15C13 13.55 12.95 13.5 10.5 13.5C8.05 13.5 8 13.55 8 15Z" fill="#2196F3"/>
<path d="M7.5 21.5C7.5 21.8 8.85 22 10.5 22C12.15 22 13.5 21.8 13.5 21.5C13.5 21.2 12.15 21 10.5 21C8.85 21 7.5 21.2 7.5 21.5Z" fill="#2196F3"/>
<path d="M7.5 23.5C7.5 23.8 8.85 24 10.5 24C12.15 24 13.5 23.8 13.5 23.5C13.5 23.2 12.15 23 10.5 23C8.85 23 7.5 23.2 7.5 23.5Z" fill="#2196F3"/>
<path d="M7.5 25.5C7.5 25.75 7.95 26 8.5 26C9.05 26 9.5 25.75 9.5 25.5C9.5 25.2 9.05 25 8.5 25C7.95 25 7.5 25.2 7.5 25.5Z" fill="#2196F3"/>
<path d="M11.5 25.5C11.5 25.75 11.95 26 12.5 26C13.05 26 13.5 25.75 13.5 25.5C13.5 25.2 13.05 25 12.5 25C11.95 25 11.5 25.2 11.5 25.5Z" fill="#2196F3"/>
<path d="M21.5506 15.0992C20.6506 16.5992 20.6006 16.7992 21.3006 17.3492C21.8506 17.7492 22.0006 18.2992 21.7506 19.0992C21.4006 20.1492 21.5006 20.1492 23.0006 18.7492C24.3506 17.4992 24.4506 17.1992 23.8006 16.7492C23.1506 16.3492 23.2006 16.0992 24.3506 14.8992L25.7006 13.4992H24.1506C22.9506 13.4992 22.3506 13.8492 21.5506 15.0992Z" fill="#2196F3"/>
<path d="M18.5 23.5C18.5 23.8 20.35 24 23 24C25.65 24 27.5 23.8 27.5 23.5C27.5 23.2 25.65 23 23 23C20.35 23 18.5 23.2 18.5 23.5Z" fill="#2196F3"/>
<path d="M18.5 25.5C18.5 25.8 20.35 26 23 26C25.65 26 27.5 25.8 27.5 25.5C27.5 25.2 25.65 25 23 25C20.35 25 18.5 25.2 18.5 25.5Z" fill="#2196F3"/>
</svg>
