<svg width="32" height="33" viewBox="0 0 32 33" fill="none" xmlns="http://www.w3.org/2000/svg">
<path d="M2.13281 6.36758C2.13281 5.94323 2.30138 5.53627 2.60144 5.23621C2.9015 4.93615 3.30847 4.76758 3.73281 4.76758H6.10935C6.30135 4.76758 6.49335 4.80171 6.67041 4.86998L13.8939 7.57931C14.1989 7.69352 14.4618 7.8981 14.6474 8.16571C14.8331 8.43332 14.9327 8.75121 14.9328 9.07691V21.7916C14.9327 22.1173 14.8331 22.4352 14.6474 22.7028C14.4618 22.9704 14.1989 23.175 13.8939 23.2892L6.39948 26.1009V26.6342C6.39948 27.0586 6.23091 27.4656 5.93085 27.7656C5.63079 28.0657 5.22383 28.2342 4.79948 28.2342H3.73281C3.30847 28.2342 2.9015 28.0657 2.60144 27.7656C2.30138 27.4656 2.13281 27.0586 2.13281 26.6342V6.36758ZM8.53281 18.6044V8.21504C8.53281 8.10656 8.49973 8.00066 8.43798 7.91147C8.37623 7.82227 8.28875 7.75403 8.18721 7.71584L7.12055 7.31691C7.03985 7.28656 6.95299 7.27623 6.86742 7.2868C6.78185 7.29737 6.70012 7.32853 6.62923 7.37761C6.55835 7.42669 6.50041 7.49222 6.4604 7.56859C6.42038 7.64496 6.39948 7.72989 6.39948 7.81611V18.9606C6.39948 19.3233 6.75575 19.5814 7.10348 19.4662L8.17015 19.1121C8.27625 19.0763 8.36838 19.0079 8.43348 18.9168C8.49857 18.8257 8.53333 18.7164 8.53281 18.6044ZM10.6661 9.41824V17.5398C10.6658 17.6247 10.6856 17.7085 10.7241 17.7842C10.7626 17.8598 10.8186 17.9252 10.8875 17.9749C10.9564 18.0245 11.0361 18.057 11.12 18.0697C11.204 18.0823 11.2897 18.0747 11.3701 18.0476L12.4368 17.6913C12.5429 17.6555 12.635 17.5871 12.7001 17.496C12.7652 17.4049 12.8 17.2956 12.7995 17.1836V9.81505C12.7995 9.70656 12.7664 9.60066 12.7046 9.51147C12.6429 9.42227 12.5554 9.35403 12.4539 9.31585L11.3872 8.91691C11.3065 8.88656 11.2197 8.87623 11.1341 8.8868C11.0485 8.89737 10.9668 8.92853 10.8959 8.97761C10.825 9.02669 10.7671 9.09222 10.7271 9.16859C10.687 9.24496 10.6661 9.33203 10.6661 9.41824ZM29.8661 6.36758C29.8661 5.94323 29.6976 5.53627 29.3975 5.23621C29.0975 4.93615 28.6905 4.76758 28.2661 4.76758H25.8896C25.698 4.76783 25.5079 4.80252 25.3285 4.86998L18.1051 7.57931C17.8001 7.69352 17.5372 7.8981 17.3515 8.16571C17.1659 8.43332 17.0663 8.75121 17.0661 9.07691V21.7916C17.0663 22.1173 17.1659 22.4352 17.3515 22.7028C17.5372 22.9704 17.8001 23.175 18.1051 23.2892L25.5995 26.1009V26.6342C25.5995 27.5174 26.3163 28.2342 27.1995 28.2342H28.2661C28.6905 28.2342 29.0975 28.0657 29.3975 27.7656C29.6976 27.4656 29.8661 27.0586 29.8661 26.6342V6.36758ZM23.8288 19.1121C23.7227 19.0763 23.6306 19.0079 23.5655 18.9168C23.5004 18.8257 23.4656 18.7164 23.4661 18.6044V8.21504C23.4661 8.10656 23.4992 8.00066 23.561 7.91147C23.6227 7.82227 23.7102 7.75403 23.8117 7.71584L24.8784 7.31691C24.9591 7.28656 25.046 7.27623 25.1315 7.2868C25.2171 7.29737 25.2988 7.32853 25.3697 7.37761C25.4406 7.42669 25.4985 7.49222 25.5386 7.56859C25.5786 7.64496 25.5995 7.72989 25.5995 7.81611V18.9606C25.5995 19.0454 25.5794 19.1289 25.5408 19.2043C25.5021 19.2796 25.4461 19.3447 25.3773 19.3941C25.3085 19.4436 25.2289 19.4759 25.1451 19.4884C25.0613 19.501 24.9757 19.4934 24.8955 19.4662L23.8288 19.1121ZM21.3328 9.41611V17.5377C21.3332 17.6226 21.3133 17.7064 21.2748 17.782C21.2363 17.8577 21.1803 17.9231 21.1115 17.9727C21.0426 18.0224 20.9629 18.0549 20.8789 18.0675C20.795 18.0802 20.7092 18.0726 20.6288 18.0454L19.5621 17.6892C19.4564 17.6535 19.3645 17.5855 19.2994 17.4947C19.2344 17.404 19.1994 17.2952 19.1995 17.1836V9.81505C19.1995 9.70656 19.2326 9.60066 19.2943 9.51147C19.3561 9.42227 19.4435 9.35403 19.5451 9.31585L20.6117 8.91691C20.6924 8.88656 20.7793 8.87623 20.8649 8.8868C20.9504 8.89737 21.0322 8.92853 21.1031 8.97761C21.1739 9.02669 21.2319 9.09222 21.2719 9.16859C21.3119 9.24496 21.3328 9.32989 21.3328 9.41611Z" fill="#2196F3"/>
</svg>
