<svg width="32" height="32" viewBox="0 0 32 32" fill="none" xmlns="http://www.w3.org/2000/svg">
<path d="M15 20H7V16.5C7 16.6326 7.05268 16.7598 7.14645 16.8536C7.24021 16.9473 7.36739 17 7.5 17H14.5C14.6326 17 14.7598 16.9473 14.8536 16.8536C14.9473 16.7598 15 16.6326 15 16.5V15.75C15 14.804 14.269 14.25 13.313 14.015C13.2717 14.0051 13.2307 13.9941 13.19 13.982C12.742 13.845 9.903 12.997 8.75 13C8.28587 13 7.84075 13.1844 7.51256 13.5126C7.18437 13.8408 7 14.2859 7 14.75V12C7 11.606 6.9224 11.2159 6.77164 10.8519C6.62087 10.488 6.3999 10.1573 6.12132 9.87868C5.84274 9.6001 5.51203 9.37913 5.14805 9.22836C4.78407 9.0776 4.39397 9 4 9C3.60603 9 3.21593 9.0776 2.85195 9.22836C2.48797 9.37913 2.15726 9.6001 1.87868 9.87868C1.6001 10.1573 1.37913 10.488 1.22836 10.8519C1.0776 11.2159 1 11.606 1 12V27C1 27.5304 1.21071 28.0391 1.58579 28.4142C1.96086 28.7893 2.46957 29 3 29H4V30.5C4 30.6326 4.05268 30.7598 4.14645 30.8536C4.24021 30.9473 4.36739 31 4.5 31H6.5C6.63261 31 6.75979 30.9473 6.85355 30.8536C6.94732 30.7598 7 30.6326 7 30.5V29H25V30.5C25 30.6326 25.0527 30.7598 25.1464 30.8536C25.2402 30.9473 25.3674 31 25.5 31H27.5C27.6326 31 27.7598 30.9473 27.8536 30.8536C27.9473 30.7598 28 30.6326 28 30.5V29H29C29.5304 29 30.0391 28.7893 30.4142 28.4142C30.7893 28.0391 31 27.5304 31 27V19.496C31 18.5677 30.6313 17.6775 29.9749 17.0211C29.3185 16.3647 28.4283 15.996 27.5 15.996H16.5C16.1022 15.996 15.7206 16.154 15.4393 16.4353C15.158 16.7166 15 17.0982 15 17.496V20ZM4 11C4.26522 11 4.51957 11.1054 4.70711 11.2929C4.89464 11.4804 5 11.7348 5 12V22H15V22.5C15 22.6326 15.0527 22.7598 15.1464 22.8536C15.2402 22.9473 15.3674 23 15.5 23H29V27H3V12C3 11.7348 3.10536 11.4804 3.29289 11.2929C3.48043 11.1054 3.73478 11 4 11Z" fill="#2196F3"/>
</svg>
