<svg width="32" height="32" viewBox="0 0 32 32" fill="none" xmlns="http://www.w3.org/2000/svg">
<path d="M21.2533 10.1597L14.7466 12.8264C14.3001 13.0028 13.8946 13.2689 13.5552 13.6083C13.2158 13.9478 12.9496 14.3533 12.7733 14.7997L10.1066 21.3064C10.0628 21.4178 10.0649 21.5421 10.1123 21.652C10.1598 21.7619 10.2488 21.8486 10.36 21.8931C10.4675 21.9329 10.5857 21.9329 10.6933 21.8931L17.2 19.2264C17.6464 19.0501 18.0519 18.7839 18.3914 18.4445C18.7308 18.1051 18.9969 17.6996 19.1733 17.2531L21.84 10.7464C21.8837 10.635 21.8817 10.5108 21.8342 10.4009C21.7868 10.2909 21.6978 10.2043 21.5866 10.1597C21.4791 10.1199 21.3608 10.1199 21.2533 10.1597ZM16 17.3331C15.7362 17.3331 15.4785 17.2549 15.2592 17.1084C15.0399 16.9619 14.869 16.7536 14.7681 16.51C14.6672 16.2664 14.6408 15.9983 14.6922 15.7396C14.7437 15.481 14.8707 15.2434 15.0571 15.0569C15.2436 14.8705 15.4812 14.7435 15.7398 14.692C15.9985 14.6406 16.2666 14.667 16.5102 14.7679C16.7538 14.8688 16.9621 15.0397 17.1086 15.259C17.2551 15.4783 17.3333 15.736 17.3333 15.9997C17.3333 16.3534 17.1928 16.6925 16.9428 16.9426C16.6927 17.1926 16.3536 17.3331 16 17.3331Z" fill="#2196F3"/>
<path d="M16 28C13.6266 28 11.3066 27.2962 9.33316 25.9776C7.35977 24.6591 5.8217 22.7849 4.91345 20.5922C4.0052 18.3995 3.76756 15.9867 4.23058 13.6589C4.6936 11.3312 5.83649 9.19295 7.51472 7.51472C9.19295 5.83649 11.3312 4.6936 13.6589 4.23058C15.9867 3.76756 18.3995 4.0052 20.5922 4.91345C22.7849 5.8217 24.6591 7.35977 25.9776 9.33316C27.2962 11.3066 28 13.6266 28 16C28 19.1826 26.7357 22.2348 24.4853 24.4853C22.2348 26.7357 19.1826 28 16 28ZM16 6.00001C14.0222 6.00001 12.0888 6.5865 10.4443 7.68531C8.79981 8.78412 7.51809 10.3459 6.76121 12.1732C6.00433 14.0004 5.8063 16.0111 6.19215 17.9509C6.578 19.8907 7.53041 21.6725 8.92894 23.0711C10.3275 24.4696 12.1093 25.422 14.0491 25.8079C15.9889 26.1937 17.9996 25.9957 19.8268 25.2388C21.6541 24.4819 23.2159 23.2002 24.3147 21.5557C25.4135 19.9112 26 17.9778 26 16C26 13.3478 24.9464 10.8043 23.0711 8.92894C21.1957 7.05357 18.6522 6.00001 16 6.00001Z" fill="#2196F3"/>
</svg>
