<svg width="32" height="32" viewBox="0 0 32 32" fill="none" xmlns="http://www.w3.org/2000/svg">
<path d="M16.6031 5.11177C16.4787 5.03859 16.337 5 16.1926 5C16.0483 5 15.9065 5.03859 15.7821 5.11177L1.32031 13.6187L2.14129 15.0145L16.1926 6.74887L30.2439 15.0153L31.0649 13.6195L25.9083 10.5866V6.61933C25.9083 6.4046 25.823 6.19866 25.6712 6.04682C25.5193 5.89499 25.3134 5.80969 25.0987 5.80969H22.6697C22.455 5.80969 22.2491 5.89499 22.0972 6.04682C21.9454 6.19866 21.8601 6.4046 21.8601 6.61933V8.20379L16.6031 5.11177ZM8.0962 17.1447H17.0023V22.0025H8.0962V17.1447Z" fill="#2196F3"/>
<path fill-rule="evenodd" clip-rule="evenodd" d="M16.1928 8.23828L4.85785 14.7154V26.0504H0.809641C0.594911 26.0504 0.388976 26.1357 0.237139 26.2875C0.0853014 26.4394 0 26.6453 0 26.86C0 27.0748 0.0853014 27.2807 0.237139 27.4325C0.388976 27.5844 0.594911 27.6697 0.809641 27.6697H29.9567C30.1715 27.6697 30.3774 27.5844 30.5292 27.4325C30.6811 27.2807 30.7664 27.0748 30.7664 26.86C30.7664 26.6453 30.6811 26.4394 30.5292 26.2875C30.3774 26.1357 30.1715 26.0504 29.9567 26.0504H27.5278V14.7154L16.1928 8.23828ZM16.1928 10.1029L6.47713 15.6554V26.0504H19.4314V17.1443H24.2892V26.0504H25.9085V15.6546L16.1928 10.1029Z" fill="#2196F3"/>
</svg>
