<svg width="42" height="42" viewBox="0 0 42 42" fill="none" xmlns="http://www.w3.org/2000/svg">
<path d="M21 2.625C16.1449 2.68391 11.5053 4.63875 8.07205 8.07205C4.63875 11.5053 2.68391 16.1449 2.625 21C2.68391 25.8551 4.63875 30.4947 8.07205 33.9279C11.5053 37.3612 16.1449 39.3161 21 39.375C25.8551 39.3161 30.4947 37.3612 33.9279 33.9279C37.3612 30.4947 39.3161 25.8551 39.375 21C39.3161 16.1449 37.3612 11.5053 33.9279 8.07205C30.4947 4.63875 25.8551 2.68391 21 2.625ZM31.5 22.3125H22.3125V31.5H19.6875V22.3125H10.5V19.6875H19.6875V10.5H22.3125V19.6875H31.5V22.3125Z" fill="#68BCFF"/>
</svg>
