<svg width="22" height="22" viewBox="0 0 22 22" fill="none" xmlns="http://www.w3.org/2000/svg">
<path d="M9.28125 7.21875C9.28125 6.9468 9.3619 6.68096 9.51298 6.45484C9.66407 6.22872 9.87882 6.05249 10.1301 5.94842C10.3813 5.84435 10.6578 5.81712 10.9245 5.87017C11.1912 5.92322 11.4362 6.05418 11.6285 6.24648C11.8208 6.43878 11.9518 6.68378 12.0048 6.9505C12.0579 7.21722 12.0307 7.49369 11.9266 7.74494C11.8225 7.99619 11.6463 8.21093 11.4202 8.36202C11.194 8.51311 10.9282 8.59375 10.6563 8.59375C10.2916 8.59375 9.94184 8.44888 9.68398 8.19102C9.42612 7.93316 9.28125 7.58342 9.28125 7.21875ZM20.2813 11C20.2813 12.8357 19.7369 14.6301 18.7171 16.1564C17.6972 17.6827 16.2477 18.8723 14.5518 19.5748C12.8559 20.2772 10.9897 20.461 9.18932 20.1029C7.38894 19.7448 5.73518 18.8608 4.43717 17.5628C3.13916 16.2648 2.25521 14.6111 1.89709 12.8107C1.53897 11.0103 1.72277 9.14415 2.42525 7.44822C3.12772 5.75229 4.31732 4.30276 5.84362 3.28292C7.36991 2.26309 9.16435 1.71875 11 1.71875C13.4607 1.72148 15.8198 2.7002 17.5598 4.44018C19.2998 6.18016 20.2785 8.5393 20.2813 11ZM18.2188 11C18.2188 9.57227 17.7954 8.17659 17.0022 6.98948C16.209 5.80236 15.0816 4.87711 13.7625 4.33074C12.4434 3.78437 10.992 3.64142 9.5917 3.91996C8.1914 4.19849 6.90514 4.88601 5.89558 5.89557C4.88602 6.90513 4.1985 8.19139 3.91996 9.59169C3.64142 10.992 3.78438 12.4434 4.33075 13.7625C4.87712 15.0815 5.80236 16.209 6.98948 17.0022C8.1766 17.7954 9.57227 18.2188 11 18.2188C12.9139 18.2167 14.7488 17.4555 16.1022 16.1022C17.4555 14.7488 18.2167 12.9139 18.2188 11ZM12.0313 14.1522V11.3438C12.0313 10.8879 11.8502 10.4507 11.5278 10.1284C11.2055 9.80608 10.7683 9.625 10.3125 9.625C10.069 9.62464 9.83316 9.71048 9.64684 9.86732C9.46053 10.0242 9.33573 10.2419 9.29456 10.4819C9.25339 10.7219 9.2985 10.9688 9.42189 11.1788C9.54529 11.3887 9.73901 11.5482 9.96875 11.6291V14.4375C9.96875 14.8933 10.1498 15.3305 10.4722 15.6528C10.7945 15.9752 11.2317 16.1562 11.6875 16.1562C11.931 16.1566 12.1669 16.0708 12.3532 15.9139C12.5395 15.7571 12.6643 15.5394 12.7054 15.2993C12.7466 15.0593 12.7015 14.8124 12.5781 14.6025C12.4547 14.3925 12.261 14.233 12.0313 14.1522Z" fill="#FFCC01"/>
</svg>
