<svg width="32" height="32" viewBox="0 0 32 32" fill="none" xmlns="http://www.w3.org/2000/svg">
<path d="M14.9328 2.1333C13.6528 2.1333 12.7995 2.98663 12.7995 4.26663V12.8H4.26615C2.98615 12.8 2.13281 13.6533 2.13281 14.9333V17.0666C2.13281 18.3466 2.98615 19.2 4.26615 19.2H12.7995V27.7333C12.7995 29.0133 13.6528 29.8666 14.9328 29.8666H17.0661C18.3461 29.8666 19.1995 29.0133 19.1995 27.7333V19.2H27.7328C29.0128 19.2 29.8661 18.3466 29.8661 17.0666V14.9333C29.8661 13.6533 29.0128 12.8 27.7328 12.8H19.1995V4.26663C19.1995 2.98663 18.3461 2.1333 17.0661 2.1333H14.9328Z" fill="#2196F3"/>
</svg>
