<svg width="32" height="32" viewBox="0 0 32 32" fill="none" xmlns="http://www.w3.org/2000/svg">
<path d="M24.044 6.99814H26.66C29.058 6.99814 30.987 8.95514 31 11.3331V11.3381C31 12.2481 30.255 13.0001 29.34 13.0001H28.99V29.9901H23V13.0071H22V29.9901H21.99V30.0001H21V22.1261C21 22.0761 20.996 22.0261 20.989 21.9781C21.0776 21.9699 21.163 21.9404 21.2378 21.8922C21.3127 21.844 21.3749 21.7785 21.4191 21.7012C21.4633 21.624 21.4883 21.5372 21.4919 21.4482C21.4956 21.3593 21.4778 21.2708 21.44 21.1901C21.435 21.1801 21.435 21.1721 21.435 21.1651C21.435 21.1571 21.435 21.1501 21.43 21.1401C20.8763 20.1911 20.0836 19.4037 19.1309 18.8563C18.1782 18.3089 17.0988 18.0206 16 18.0201C13.68 18.0201 11.67 19.2801 10.57 21.1401C10.57 21.1501 10.57 21.1601 10.56 21.1701C10.5159 21.2498 10.4918 21.3391 10.49 21.4301C10.49 21.7201 10.724 21.9641 11.011 21.9801C11.0037 22.0285 11.0001 22.0773 11 22.1261V30.0001H10V13.0071H9V29.9901H2.99V13.0001H2.66C1.745 13.0001 1 12.2491 1 11.3381C1 8.94314 2.945 6.98814 5.34 6.98814H7.958C8.47497 5.25592 9.53747 3.73694 10.9874 2.65727C12.4372 1.5776 14.197 0.994972 16.0047 0.996095C17.8124 0.997219 19.5715 1.58204 21.02 2.66351C22.4686 3.74498 23.5292 5.26528 24.044 6.99814ZM10 11.8191V11.8121C10.1208 11.7315 10.2196 11.6221 10.2877 11.4938C10.3558 11.3656 10.3909 11.2224 10.39 11.0771V9.46214C10.39 6.36314 12.91 3.83614 16 3.83614C19.09 3.83614 21.61 6.36314 21.61 9.46214V11.0771C21.61 11.5701 22.09 12.0001 22.575 12.0001H29.34C29.7 12.0001 30 11.7001 30 11.3381C29.99 9.50314 28.5 7.99814 26.66 7.99814H23.26C23.2598 7.98958 23.2581 7.98112 23.255 7.97314C23.2519 7.96516 23.2502 7.9567 23.25 7.94814C22.9166 6.26849 22.0103 4.7567 20.6861 3.671C19.3618 2.58531 17.7017 1.99306 15.9893 1.99542C14.2769 1.99778 12.6184 2.5946 11.2971 3.68395C9.97585 4.77329 9.07379 6.28758 8.745 7.96814C8.743 7.97514 8.74 7.98314 8.74 7.98814H5.34C4.45334 7.99105 3.60397 8.34525 2.97795 8.97316C2.35192 9.60106 2.00026 10.4515 2 11.3381C2 11.6991 2.3 12.0001 2.66 12.0001H9.402C9.626 12.0001 9.834 11.9331 10 11.8191ZM8 17.3901V15.5001C8 14.6701 7.33 14.0001 6.5 14.0001C5.67 14.0001 5 14.6701 5 15.5001V17.3901C5 17.7301 5.27 18.0001 5.61 18.0001H7.39C7.73 18.0001 8 17.7201 8 17.3901ZM5 22.5001V24.3901C5 24.7301 5.27 25.0001 5.61 25.0001H7.39C7.73 25.0001 8 24.7201 8 24.3901V22.5001C8 21.6701 7.33 21.0001 6.5 21.0001C5.67 21.0001 5 21.6701 5 22.5001ZM27 17.3901V15.5001C27 14.6701 26.33 14.0001 25.5 14.0001C24.67 14.0001 24 14.6701 24 15.5001V17.3901C24 17.7301 24.27 18.0001 24.61 18.0001H26.39C26.73 18.0001 27 17.7201 27 17.3901ZM24 22.5001V24.3901C24 24.7301 24.27 25.0001 24.61 25.0001H26.39C26.73 25.0001 27 24.7201 27 24.3901V22.5001C27 21.6701 26.33 21.0001 25.5 21.0001C24.67 21.0001 24 21.6701 24 22.5001ZM19 7.49314C19 6.66114 18.313 6.00014 17.454 6.00014C17.334 6.00014 17.202 6.02014 17.091 6.05014C16.8842 6.08981 16.6885 6.17405 16.5175 6.29701C16.3465 6.41997 16.2044 6.57869 16.101 6.76214C16.0916 6.78067 16.0771 6.79614 16.0592 6.80676C16.0413 6.81738 16.0208 6.82271 16 6.82214C15.96 6.82214 15.93 6.80214 15.899 6.76214C15.7955 6.57878 15.6533 6.42012 15.4824 6.29718C15.3114 6.17423 15.1158 6.08994 14.909 6.05014C14.7903 6.01808 14.668 6.00128 14.545 6.00014C13.697 6.00014 13.01 6.66114 13 7.49314V7.52314C13 7.99414 13.141 8.43514 13.394 8.79614C14.0267 9.63415 14.8031 10.3533 15.687 10.9201C15.777 10.9701 15.889 11.0001 16 11.0001C16.111 11.0001 16.222 10.9801 16.313 10.9201C17.2033 10.3616 17.9811 9.6412 18.606 8.79614C18.8652 8.42246 19.0028 7.97791 19 7.52314V7.49314ZM17.51 12.0001H17.491C17.3612 12.0004 17.2368 12.0521 17.1452 12.144C17.0535 12.2359 17.002 12.3604 17.002 12.4901V14.0001H14.997V12.4901C14.997 12.3605 14.9457 12.2362 14.8542 12.1444C14.7627 12.0525 14.6386 12.0007 14.509 12.0001H14.489C14.3592 12.0004 14.2348 12.0521 14.1432 12.144C14.0515 12.2359 14 12.3604 14 12.4901V16.5101C14 16.7801 14.22 17.0001 14.489 17.0001H14.509C14.6386 16.9996 14.7627 16.9478 14.8542 16.8559C14.9457 16.7641 14.997 16.6398 14.997 16.5101V15.0101H17.002V16.5101C17.002 16.7801 17.222 17.0001 17.491 17.0001H17.511C17.6408 16.9999 17.7652 16.9481 17.8568 16.8563C17.9485 16.7644 18 16.6399 18 16.5101V12.4901C18.0016 12.4253 17.9901 12.3609 17.9661 12.3007C17.942 12.2405 17.906 12.1858 17.8602 12.14C17.8143 12.0942 17.7596 12.0581 17.6994 12.0341C17.6393 12.01 17.5748 11.9985 17.51 12.0001Z" fill="#2196F3"/>
<path d="M16.56 21.98C16.6465 21.9758 16.7307 21.9509 16.8055 21.9074C16.8803 21.8639 16.9436 21.8031 16.99 21.73H17.19C17.29 21.88 17.45 21.98 17.64 21.98C17.83 21.98 17.99 21.88 18.09 21.73H18.29C18.39 21.88 18.55 21.98 18.74 21.98C18.93 21.98 19.09 21.88 19.19 21.73H19.39C19.453 21.8287 19.5464 21.9041 19.6561 21.9449C19.7658 21.9857 19.8859 21.9896 19.998 21.956C19.9994 21.9706 20.0001 21.9853 20 22V28.59C20 28.83 19.8 29.03 19.56 29.02H17C16.76 29.02 16.56 28.82 16.56 28.58V22V21.98ZM12.002 21.962C12.112 21.9903 12.228 21.9831 12.3337 21.9414C12.4393 21.8998 12.529 21.8258 12.59 21.73H12.79C12.89 21.88 13.05 21.98 13.24 21.98C13.43 21.98 13.59 21.88 13.69 21.73H13.89C13.99 21.88 14.15 21.98 14.34 21.98C14.53 21.98 14.69 21.88 14.79 21.73H14.99C15.0474 21.8199 15.1302 21.8907 15.228 21.9335C15.3258 21.9762 15.434 21.9889 15.539 21.97L15.54 22V28.58C15.55 28.83 15.35 29.03 15.1 29.03H12.44C12.2 29.03 12 28.83 12 28.59V22C12 21.987 12 21.974 12.002 21.962Z" fill="#2196F3"/>
</svg>
