<svg width="32" height="32" viewBox="0 0 32 32" fill="none" xmlns="http://www.w3.org/2000/svg">
<path d="M23.9993 14.6668C22.1549 14.6668 20.5829 14.0166 19.2833 12.7162C17.9838 11.4157 17.3336 9.84372 17.3327 8.00016C17.3327 6.15572 17.9829 4.58372 19.2833 3.28416C20.5838 1.98461 22.1558 1.33438 23.9993 1.3335C25.8438 1.3335 27.4162 1.98372 28.7167 3.28416C30.0171 4.58461 30.6669 6.15661 30.666 8.00016C30.666 9.84461 30.0158 11.4171 28.7154 12.7175C27.4149 14.0179 25.8429 14.6677 23.9993 14.6668ZM23.3327 9.3335H24.666V4.00016H23.3327V9.3335ZM23.9993 12.0002C24.1771 12.0002 24.3327 11.9335 24.466 11.8002C24.5993 11.6668 24.666 11.5113 24.666 11.3335C24.666 11.1557 24.5993 11.0002 24.466 10.8668C24.3327 10.7335 24.1771 10.6668 23.9993 10.6668C23.8216 10.6668 23.666 10.7335 23.5327 10.8668C23.3993 11.0002 23.3327 11.1557 23.3327 11.3335C23.3327 11.5113 23.3993 11.6668 23.5327 11.8002C23.666 11.9335 23.8216 12.0002 23.9993 12.0002ZM13.3327 22.6668C13.8882 22.6668 14.3607 22.4726 14.75 22.0842C15.1393 21.6957 15.3336 21.2233 15.3327 20.6668C15.3327 20.1113 15.1385 19.6393 14.75 19.2508C14.3616 18.8624 13.8891 18.6677 13.3327 18.6668C12.7771 18.6668 12.3051 18.8615 11.9167 19.2508C11.5282 19.6402 11.3336 20.1122 11.3327 20.6668C11.3327 21.2224 11.5273 21.6948 11.9167 22.0842C12.306 22.4735 12.778 22.6677 13.3327 22.6668ZM5.33268 29.3335V28.0002L7.33268 26.6668C6.02157 26.6668 4.91579 26.2171 4.01535 25.3175C3.11491 24.4179 2.66513 23.3122 2.66602 22.0002V9.3335C2.66602 7.5335 3.53846 6.19483 5.28335 5.3175C7.02824 4.44016 9.71135 4.00105 13.3327 4.00016H15.5327C15.266 4.64461 15.0549 5.30016 14.8994 5.96683C14.7438 6.6335 14.666 7.31127 14.666 8.00016C14.666 8.46683 14.6993 8.91705 14.766 9.35083C14.8327 9.78461 14.9327 10.2233 15.066 10.6668H5.33268V14.6668H17.466C18.3549 15.5557 19.3549 16.2224 20.466 16.6668C21.5771 17.1113 22.7549 17.3335 23.9993 17.3335V22.0002C23.9993 23.3113 23.5496 24.4171 22.65 25.3175C21.7505 26.2179 20.6447 26.6677 19.3327 26.6668L21.3327 28.0002V29.3335H5.33268Z" fill="#2196F3"/>
</svg>
