<svg width="32" height="32" viewBox="0 0 32 32" fill="none" xmlns="http://www.w3.org/2000/svg">
<path d="M16.3701 5.72017C17.8401 5.82833 19.1259 4.78065 19.2424 3.38545C19.3601 1.98321 18.2632 0.756328 16.7931 0.648168C15.3211 0.541288 14.0353 1.58257 13.9214 2.98481C13.8069 4.38641 14.9045 5.61073 16.3701 5.72017ZM27.3819 26.2398L26.4936 18.5598H25.0523C25.0657 17.9198 25.0638 17.8488 25.0197 17.4603C24.9768 17.0629 24.8507 16.7723 24.6453 16.6808C24.8136 16.5016 24.9256 16.2738 24.9473 16.0171C24.9625 15.8225 24.9269 15.6272 24.8438 15.4505C24.7608 15.2738 24.6333 15.1217 24.4737 15.0091L20.8053 12.5976L18.1045 7.51217C17.6571 6.84657 16.8993 6.30961 15.9848 6.23281C15.2821 6.18417 14.6357 6.41649 14.1128 6.76209L8.75341 10.9106C8.57414 11.0507 8.44468 11.2448 8.38413 11.4642L7.13549 16.4888L7.04077 16.6379V16.6398H7.03053C6.82125 16.6398 6.63053 16.8395 6.55757 17.1038C6.48717 17.363 6.40077 17.7054 6.40077 17.9826V18.5598H5.00941L4.12109 26.2398H7.71085L6.13709 28.7582C6.03469 28.9534 5.91437 29.2293 5.89325 29.4955C5.81581 30.4491 6.55821 31.2779 7.55341 31.3541C8.26445 31.4014 8.87629 31.0584 9.24813 30.5106L11.9041 26.2398H12.2517L12.1973 25.7682L12.9339 24.5829C13.0139 24.4242 13.268 24.0357 13.2961 23.8514L14.196 19.941L18.0366 23.9557L19.2424 29.9915C19.435 30.7051 20.0507 31.2939 20.8699 31.3541C21.8664 31.4296 22.7387 30.7262 22.8181 29.7746L22.8072 29.4238L22.1774 26.2398H27.3819ZM7.01325 17.9134C7.04909 17.6107 7.16237 17.4386 7.36205 17.4386L7.43693 17.4373C7.63853 17.6811 7.93805 17.8482 8.28365 17.8763C8.46926 17.8892 8.65533 17.8593 8.82762 17.7891C8.9999 17.7189 9.15382 17.6101 9.27757 17.4712C9.3387 17.5273 9.38246 17.5997 9.40365 17.6798C9.45677 17.8635 9.48749 18.0741 9.48749 18.2475C9.48749 18.3512 9.48237 18.5598 9.47533 18.5598H6.99469C6.98637 18.5598 6.98893 18.1483 7.01325 17.9134ZM10.6811 18.5598H9.92269C9.93869 17.9198 9.93421 17.8488 9.89261 17.4603C9.85677 17.1275 9.76269 16.8702 9.61357 16.7384L10.5601 12.6155L12.427 11.171L10.6811 18.5598ZM24.6062 18.5598H22.1237C22.1134 18.5598 22.1166 18.1483 22.1422 17.9134C22.1755 17.6107 22.2907 17.4386 22.491 17.4386C22.7784 17.4386 23.0389 17.4296 23.2699 17.4245C23.5022 17.4162 23.819 17.4046 24.2177 17.4046C24.3707 17.4046 24.4744 17.4955 24.532 17.6805C24.587 17.8642 24.6165 18.0747 24.6165 18.2482L24.6062 18.5598ZM16.5768 17.0987L17.78 12.0197L18.7918 13.9288C18.8718 14.06 18.9665 14.1682 19.0913 14.2699L22.7054 16.6398H22.1595C21.9502 16.6398 21.8734 16.8395 21.8011 17.1038C21.7326 17.363 21.7608 17.7054 21.7608 17.9826V18.5598H20.1403L19.8785 20.819L16.5768 17.0987Z" fill="#2196F3"/>
</svg>
