<svg width="32" height="32" viewBox="0 0 32 32" fill="none" xmlns="http://www.w3.org/2000/svg">
<path d="M5.33366 8.00033L16.0003 2.66699L26.667 8.00033M24.0003 13.3337L29.3337 16.0003V26.667C29.3337 27.3742 29.0527 28.0525 28.5526 28.5526C28.0525 29.0527 27.3742 29.3337 26.667 29.3337H5.33366C4.62641 29.3337 3.94814 29.0527 3.44804 28.5526C2.94794 28.0525 2.66699 27.3742 2.66699 26.667V16.0003L8.00033 13.3337" stroke="#2196F3" stroke-width="2" stroke-linecap="round" stroke-linejoin="round"/>
<path d="M18.6667 29.3337V24.0003C18.6667 23.2931 18.3857 22.6148 17.8856 22.1147C17.3855 21.6146 16.7072 21.3337 16 21.3337C15.2928 21.3337 14.6145 21.6146 14.1144 22.1147C13.6143 22.6148 13.3333 23.2931 13.3333 24.0003V29.3337M24 6.66699V29.3337M8 6.66699V29.3337" stroke="#2196F3" stroke-width="2" stroke-linecap="round" stroke-linejoin="round"/>
<path d="M16.0007 14.6673C17.4734 14.6673 18.6673 13.4734 18.6673 12.0007C18.6673 10.5279 17.4734 9.33398 16.0007 9.33398C14.5279 9.33398 13.334 10.5279 13.334 12.0007C13.334 13.4734 14.5279 14.6673 16.0007 14.6673Z" stroke="#2196F3" stroke-width="2" stroke-linecap="round" stroke-linejoin="round"/>
</svg>
