<svg width="32" height="32" viewBox="0 0 32 32" fill="none" xmlns="http://www.w3.org/2000/svg">
<g clip-path="url(#clip0_397_8399)">
<path d="M3.75586 12.3101H17.5284V23.7801H3.75586V12.3101Z" fill="#40C0E7"/>
<path d="M3.75586 24.5273H17.5284V30.1773H3.75586V24.5273ZM17.5434 13.2773H27.9184V17.5673H17.5434V13.2773Z" fill="#FCC21B"/>
<path d="M17.5434 17.7749H27.9184V29.2224H17.5434V17.7749ZM3.75586 2.54736H28.4459V11.9824H3.75586V2.54736Z" fill="white"/>
<path d="M27.5404 0.694824H4.46039C3.19039 0.694824 2.15039 1.73482 2.15039 3.00482V31.9998H29.8504V3.00482C29.8504 1.73482 28.8104 0.694824 27.5404 0.694824ZM19.8379 9.32482C19.8479 8.67732 19.8479 8.03232 19.8479 7.38482C19.8479 7.02232 19.8754 6.65982 19.9004 6.29982C19.9404 5.65732 19.9704 4.55732 20.7679 4.46482C20.9029 4.44982 21.0429 4.46732 21.1679 4.51482C21.2604 4.54732 21.3354 4.60732 21.4129 4.66732C21.7154 4.89482 21.8704 5.42232 22.0229 5.76732C22.1829 6.13232 22.2929 6.51982 22.4579 6.88232C22.4979 6.97482 22.5404 7.06482 22.5829 7.15732C22.7404 7.49732 22.9654 7.79482 23.2429 7.37982C23.4854 7.01482 23.6479 6.60232 23.8379 6.20482C24.0029 5.85232 24.1779 5.49982 24.3504 5.14732C24.4304 4.98232 24.5429 4.83482 24.6729 4.71482C24.9479 4.46482 25.4754 4.44482 25.7429 4.70732C25.9804 4.93982 26.0129 5.35732 26.0429 5.68732C26.1054 6.44732 26.1154 7.21482 26.1329 7.97732C26.1404 8.17482 26.1404 8.37232 26.1429 8.56982C26.1429 8.78732 26.1604 9.04982 26.1629 9.32232C26.1629 9.65982 26.1529 10.0173 26.0229 10.3298C25.8854 10.6523 25.6504 10.7923 25.3304 10.7798C25.2329 10.7773 25.1404 10.7573 25.0454 10.7323C24.9479 10.7073 24.8804 10.6623 24.8054 10.5848C24.7304 10.5073 24.6529 10.4348 24.6279 10.3223C24.6029 10.2173 24.5604 10.1223 24.5329 10.0148C24.4779 9.76732 24.4654 9.50732 24.4429 9.25232C24.4304 9.11732 24.4404 8.98232 24.4004 8.85232L24.3304 8.75732C24.2554 8.73732 24.2104 8.75982 24.1779 8.83232C24.1304 8.93482 24.0854 9.04232 24.0429 9.14982C23.9729 9.33232 23.9029 9.51482 23.8254 9.69482C23.6754 10.0498 23.5604 10.5098 23.1904 10.6598C23.0454 10.7173 22.8829 10.7098 22.7404 10.6548C22.3729 10.5098 22.2154 9.95232 22.0929 9.59232C22.0329 9.42232 21.9504 8.97982 21.7929 8.88732C21.6079 8.77482 21.5854 9.15232 21.5804 9.25982C21.5754 9.36482 21.5454 9.46733 21.5379 9.57232C21.5054 10.0073 21.4779 10.4848 21.0879 10.7223C20.7979 10.8973 20.2329 10.9048 20.0254 10.5548C19.8129 10.1998 19.8329 9.72982 19.8379 9.32482ZM6.83539 9.90732C6.88039 9.66482 6.94539 9.42232 7.01789 9.18232C7.16539 8.69732 7.34539 8.21232 7.47789 7.72482C7.61789 7.21482 7.72039 6.69732 7.89039 6.19232C8.19039 5.28982 8.73289 4.09732 10.1754 4.49982C10.7954 4.67232 10.9679 5.23482 11.1679 5.68482C11.4579 6.33482 11.5729 7.04982 11.7554 7.72482C11.8879 8.21232 12.0704 8.69482 12.2154 9.18232C12.3029 9.47232 12.4654 9.90732 12.4204 10.2673C12.3854 10.5373 12.2329 10.7623 11.8379 10.8448C11.5029 10.9173 10.8329 10.8573 10.6804 10.5598C10.4629 10.1398 10.5654 9.65232 9.84039 9.57482C9.50039 9.53732 9.00789 9.65982 8.86789 9.93732C8.72039 10.2273 8.83289 10.5848 8.45789 10.7823C8.20539 10.9173 7.84289 10.9373 7.55039 10.8998C6.89289 10.8098 6.73789 10.4073 6.83539 9.90732ZM16.5054 27.3798C16.5054 27.7873 16.1704 28.1198 15.7654 28.1198H5.93289C5.52539 28.1198 5.19289 27.7873 5.19289 27.3798V26.1848C5.19289 25.7773 5.52539 25.4448 5.93289 25.4448H15.7654C16.1704 25.4448 16.5054 25.7773 16.5054 26.1848V27.3798ZM16.5054 21.7823C16.5054 22.4323 15.9729 22.9673 15.3229 22.9673H6.37539C5.72289 22.9673 5.19289 22.4348 5.19289 21.7823V14.9198C5.19289 14.2698 5.72539 13.7348 6.37539 13.7348H15.3204C15.9704 13.7348 16.5029 14.2673 16.5029 14.9198V21.7823H16.5054ZM18.4779 6.17482C18.2579 6.57482 17.6804 6.43732 17.3079 6.44982C17.2454 6.45232 17.1854 6.45482 17.1229 6.46732C17.0554 6.47982 16.9879 6.46732 16.9229 6.48732C16.6454 6.57232 16.7204 6.90732 16.7204 7.12982V8.13982C16.7204 8.80232 16.7654 9.46732 16.7204 10.1298C16.6979 10.4348 16.6254 10.6898 16.2854 10.8123C16.0804 10.8848 15.7779 10.8798 15.5504 10.8573C14.4629 10.7648 14.6929 9.86982 14.6854 9.20982C14.6779 8.64732 14.6779 8.08982 14.6554 7.53982C14.6479 7.33232 14.6429 7.12482 14.6429 6.91732C14.6429 6.76982 14.6454 6.60732 14.5004 6.52732C14.3954 6.46982 14.2629 6.47982 14.1479 6.48232C13.9204 6.48232 13.6904 6.47732 13.4629 6.46232C13.1754 6.44232 12.9354 6.37482 12.8179 6.06232C12.7504 5.87232 12.7579 5.58982 12.7754 5.38232C12.8654 4.37732 13.7104 4.58982 14.3304 4.58232C14.8604 4.57482 15.3854 4.57482 15.9029 4.55482C16.3804 4.53482 16.8404 4.54482 17.2929 4.55732C17.4879 4.56232 17.6479 4.57482 17.8404 4.60232C18.0829 4.63732 18.3629 4.61232 18.5204 4.89482C18.6479 5.11982 18.6429 5.39232 18.6029 5.63982C18.5779 5.81982 18.5679 6.01482 18.4779 6.17482ZM20.4804 27.0798C20.4804 27.3473 20.2629 27.5673 19.9929 27.5673H19.1104C18.9815 27.5667 18.8582 27.515 18.7673 27.4237C18.6764 27.3323 18.6254 27.2087 18.6254 27.0798V25.9673C18.6254 25.6998 18.8429 25.4798 19.1104 25.4798H19.9929C20.2629 25.4798 20.4804 25.6998 20.4804 25.9673V27.0798ZM20.4804 23.6823C20.4804 23.9498 20.2629 24.1698 19.9929 24.1698H19.1104C18.9815 24.1692 18.8582 24.1175 18.7673 24.0262C18.6764 23.9348 18.6254 23.8112 18.6254 23.6823V22.5698C18.6254 22.3023 18.8429 22.0823 19.1104 22.0823H19.9929C20.2629 22.0823 20.4804 22.3023 20.4804 22.5698V23.6823ZM20.4804 20.2823C20.4804 20.5498 20.2629 20.7698 19.9929 20.7698H19.1104C18.9815 20.7692 18.8582 20.7175 18.7673 20.6262C18.6764 20.5348 18.6254 20.4112 18.6254 20.2823V19.1698C18.6254 18.9023 18.8429 18.6823 19.1104 18.6823H19.9929C20.2629 18.6823 20.4804 18.9023 20.4804 19.1698V20.2823ZM23.6704 27.0798C23.6704 27.3473 23.4504 27.5673 23.1804 27.5673H22.3004C22.0329 27.5673 21.8129 27.3473 21.8129 27.0798V25.9673C21.8129 25.6998 22.0304 25.4798 22.3004 25.4798H23.1829C23.4504 25.4798 23.6729 25.6998 23.6729 25.9673V27.0798H23.6704ZM23.6704 23.6823C23.6704 23.9498 23.4504 24.1698 23.1804 24.1698H22.3004C22.0329 24.1698 21.8129 23.9498 21.8129 23.6823V22.5698C21.8129 22.3023 22.0304 22.0823 22.3004 22.0823H23.1829C23.4504 22.0823 23.6729 22.3023 23.6729 22.5698V23.6823H23.6704ZM23.6704 20.2823C23.6704 20.5498 23.4504 20.7698 23.1804 20.7698H22.3004C22.0329 20.7698 21.8129 20.5498 21.8129 20.2823V19.1698C21.8129 18.9023 22.0304 18.6823 22.3004 18.6823H23.1829C23.4504 18.6823 23.6729 18.9023 23.6729 19.1698V20.2823H23.6704ZM26.8579 27.0798C26.8579 27.3473 26.6379 27.5673 26.3704 27.5673H25.4879C25.2204 27.5673 24.9979 27.3473 24.9979 27.0798V25.9673C24.9979 25.6998 25.2204 25.4798 25.4879 25.4798H26.3704C26.6379 25.4798 26.8579 25.6998 26.8579 25.9673V27.0798ZM26.8579 23.6823C26.8579 23.9498 26.6379 24.1698 26.3704 24.1698H25.4879C25.2204 24.1698 24.9979 23.9498 24.9979 23.6823V22.5698C24.9979 22.3023 25.2204 22.0823 25.4879 22.0823H26.3704C26.6379 22.0823 26.8579 22.3023 26.8579 22.5698V23.6823ZM26.8579 20.2823C26.8579 20.5498 26.6379 20.7698 26.3704 20.7698H25.4879C25.2204 20.7698 24.9979 20.5498 24.9979 20.2823V19.1698C24.9979 18.9023 25.2204 18.6823 25.4879 18.6823H26.3704C26.6379 18.6823 26.8579 18.9023 26.8579 19.1698V20.2823ZM26.8579 15.8048C26.8579 16.0723 26.6379 16.2923 26.3704 16.2923H19.1104C18.9815 16.2917 18.8582 16.24 18.7673 16.1487C18.6764 16.0573 18.6254 15.9337 18.6254 15.8048V14.7473C18.6254 14.4798 18.8429 14.2598 19.1104 14.2598H26.3729C26.6404 14.2598 26.8604 14.4798 26.8604 14.7473V15.8048H26.8579Z" fill="#2196F3"/>
<path d="M9.40242 8.48228L9.51992 8.51228L9.60242 8.53728L9.71492 8.53478L9.73242 8.53728H9.88492C10.2249 8.45478 10.0174 8.10978 9.98242 7.91228L9.97742 7.89228L9.96742 7.85978C9.91492 7.67478 9.86492 7.48978 9.80992 7.30728C9.76742 7.24228 9.74492 7.15478 9.64242 7.17478C9.57242 7.18978 9.54492 7.26228 9.52742 7.30228L9.50492 7.32228C9.45492 7.57728 9.40242 7.83228 9.34242 8.08728L9.33742 8.11228L9.31992 8.17478C9.30992 8.24978 9.30242 8.33478 9.32742 8.40728L9.40242 8.48228Z" fill="#2196F3"/>
</g>
<defs>
<clipPath id="clip0_397_8399">
<rect width="32" height="32" fill="white"/>
</clipPath>
</defs>
</svg>
