<svg width="32" height="32" viewBox="0 0 32 32" fill="none" xmlns="http://www.w3.org/2000/svg">
<path fill-rule="evenodd" clip-rule="evenodd" d="M15.9993 2.6665C10.9713 2.6665 8.45668 2.6665 6.89535 4.22917C5.47668 5.6465 5.34602 7.84784 5.33268 11.9998H3.99935C3.64573 11.9998 3.30659 12.1403 3.05654 12.3904C2.80649 12.6404 2.66602 12.9795 2.66602 13.3332V14.6665C2.66602 14.8735 2.71421 15.0776 2.80678 15.2628C2.89935 15.4479 3.03375 15.609 3.19935 15.7332L5.33268 17.3332C5.34602 21.4852 5.47668 23.6865 6.89535 25.1038C7.21802 25.4278 7.58068 25.6838 7.99935 25.8865V27.9998C7.99935 28.3535 8.13982 28.6926 8.38987 28.9426C8.63992 29.1927 8.97906 29.3332 9.33268 29.3332H11.3327C11.6863 29.3332 12.0254 29.1927 12.2755 28.9426C12.5255 28.6926 12.666 28.3535 12.666 27.9998V26.6425C13.6353 26.6665 14.738 26.6665 15.9993 26.6665C17.2607 26.6665 18.3633 26.6665 19.3327 26.6425V27.9998C19.3327 28.3535 19.4732 28.6926 19.7232 28.9426C19.9733 29.1927 20.3124 29.3332 20.666 29.3332H22.666C23.0196 29.3332 23.3588 29.1927 23.6088 28.9426C23.8589 28.6926 23.9993 28.3535 23.9993 27.9998V25.8865C24.4089 25.6898 24.7821 25.4251 25.1033 25.1038C26.522 23.6865 26.654 21.4852 26.666 17.3332L28.7993 15.7332C28.9649 15.609 29.0993 15.4479 29.1919 15.2628C29.2845 15.0776 29.3327 14.8735 29.3327 14.6665V13.3332C29.3327 12.9795 29.1922 12.6404 28.9422 12.3904C28.6921 12.1403 28.353 11.9998 27.9993 11.9998H26.666C26.6527 7.84784 26.522 5.6465 25.1033 4.22917C23.542 2.6665 21.0273 2.6665 15.9993 2.6665ZM7.33268 12.6665C7.33268 14.5518 7.33268 15.4945 7.91935 16.0798C8.50468 16.6665 9.44735 16.6665 11.3327 16.6665H20.666C22.5513 16.6665 23.494 16.6665 24.0793 16.0798C24.666 15.4945 24.666 14.5518 24.666 12.6665V9.33317C24.666 7.44784 24.666 6.50517 24.0793 5.91984C23.4953 5.33317 22.5527 5.33317 20.666 5.33317H11.3327C9.44735 5.33317 8.50468 5.33317 7.91935 5.91984C7.33268 6.50384 7.33268 7.4465 7.33268 9.33317V12.6665ZM8.33268 21.3332C8.33268 21.068 8.43804 20.8136 8.62558 20.6261C8.81311 20.4385 9.06747 20.3332 9.33268 20.3332H11.3327C11.5979 20.3332 11.8523 20.4385 12.0398 20.6261C12.2273 20.8136 12.3327 21.068 12.3327 21.3332C12.3327 21.5984 12.2273 21.8527 12.0398 22.0403C11.8523 22.2278 11.5979 22.3332 11.3327 22.3332H9.33268C9.06747 22.3332 8.81311 22.2278 8.62558 22.0403C8.43804 21.8527 8.33268 21.5984 8.33268 21.3332ZM23.666 21.3332C23.666 21.068 23.5607 20.8136 23.3731 20.6261C23.1856 20.4385 22.9312 20.3332 22.666 20.3332H20.666C20.4008 20.3332 20.1464 20.4385 19.9589 20.6261C19.7714 20.8136 19.666 21.068 19.666 21.3332C19.666 21.5984 19.7714 21.8527 19.9589 22.0403C20.1464 22.2278 20.4008 22.3332 20.666 22.3332H22.666C22.9312 22.3332 23.1856 22.2278 23.3731 22.0403C23.5607 21.8527 23.666 21.5984 23.666 21.3332Z" fill="#2196F3"/>
</svg>
