<svg width="32" height="32" viewBox="0 0 32 32" fill="none" xmlns="http://www.w3.org/2000/svg">
<g clip-path="url(#clip0_1377_65541)">
<path d="M15.3434 4.17812C14.9356 4.34218 4.96058 9.86406 4.49183 10.1875C4.37464 10.2672 4.25277 10.4125 4.16839 10.5766C4.05589 10.7969 4.04183 10.8719 4.06527 11.0453C4.12621 11.4344 4.45902 11.7625 4.87621 11.8422C5.05902 11.8797 5.46683 11.7766 5.78089 11.6172L6.01527 11.5V19.75V28H15.9996H25.984V19.75V11.5L26.2793 11.6453C26.509 11.7625 26.645 11.8 26.9262 11.8187C27.3809 11.8469 27.6481 11.7391 27.8543 11.4484C27.9903 11.2656 27.9996 11.2234 27.9996 10.8391V10.4312L27.8028 10.2156C27.6293 10.0328 26.8887 9.62031 22.3981 7.20156C19.5387 5.65937 16.9746 4.30937 16.7028 4.20156C16.0793 3.94843 15.9293 3.94843 15.3434 4.17812ZM19.9184 8.15312C22.0559 9.32968 23.8512 10.3187 23.9121 10.3562L24.0153 10.4219V18.2031V25.9844H22.6465C21.2778 25.9844 21.2731 25.9844 21.4606 25.8953C21.695 25.7922 21.8871 25.5719 21.9528 25.3375C21.9762 25.2437 21.9996 24.9062 21.9996 24.5922V24.0156L22.1871 23.9875C22.4731 23.9406 22.7684 23.7297 22.8856 23.4906C22.9793 23.2937 22.984 23.2141 22.984 21.9906C22.984 20.8703 22.9746 20.6594 22.8996 20.4203C22.6887 19.7547 22.2106 19.2812 21.5262 19.075L21.1887 18.9719L20.5981 16.9937L20.0075 15.0156H15.9996H11.9918L11.4012 16.9937L10.8106 18.9719L10.4731 19.075C9.78871 19.2812 9.31058 19.7547 9.09965 20.4203C9.02465 20.6594 9.01527 20.8703 9.01527 21.9906C9.01527 23.2141 9.01996 23.2937 9.11371 23.4906C9.2309 23.7297 9.52621 23.9406 9.81215 23.9875L9.99965 24.0156V24.5922C9.99965 24.9062 10.0231 25.2437 10.0465 25.3375C10.1121 25.5719 10.3043 25.7922 10.5387 25.8953C10.7262 25.9844 10.7215 25.9844 9.35746 25.9844H7.98402V18.2031V10.4219L8.09183 10.3562C8.26996 10.2437 15.9715 6.01562 16.0043 6.01562C16.0184 6.01562 17.7809 6.97656 19.9184 8.15312ZM19.6934 17.4672C19.9043 18.2687 20.0778 18.9437 20.0778 18.9625C20.0778 18.9859 18.2637 19 16.0465 19C13.8293 19 12.0153 18.9906 12.0153 18.9719C12.0153 18.9531 12.8309 16.2109 12.8825 16.0562C12.8965 16.0141 13.5856 16 16.1028 16H19.3043L19.6934 17.4672ZM21.3293 20.0547C21.6106 20.1391 21.8731 20.4016 21.9481 20.6734C21.9762 20.7766 21.9996 21.3109 21.9996 21.9156V22.9844H15.9996H9.99965V21.9156C9.99965 21.3109 10.0231 20.7766 10.0512 20.6734C10.1215 20.4109 10.3887 20.1391 10.6512 20.0594C10.984 19.9562 20.9825 19.9516 21.3293 20.0547ZM12.9996 24.5078V25H11.9918H10.984V24.5078V24.0156H11.9918H12.9996V24.5078ZM18.0153 24.6484C18.0153 25.1828 18.0293 25.3141 18.1043 25.4594C18.2075 25.6562 18.3481 25.7969 18.5543 25.9047C18.6856 25.975 18.484 25.9797 15.9996 25.9797C13.5153 25.9797 13.3137 25.975 13.445 25.9047C13.6512 25.7969 13.7918 25.6562 13.895 25.4594C13.97 25.3141 13.984 25.1828 13.984 24.6484V24.0156H15.9996H18.0153V24.6484ZM21.0153 24.5078V25H20.0075H18.9996V24.5078V24.0156H20.0075H21.0153V24.5078Z" fill="#2196F3"/>
<path d="M11.204 21.1094C11.0259 21.25 10.9602 21.4844 11.0493 21.6859C11.1196 21.8594 11.3259 22 11.4993 22C11.6727 22 11.879 21.8594 11.9493 21.6859C12.0852 21.3672 11.8509 21.0156 11.4993 21.0156C11.3962 21.0156 11.2743 21.0531 11.204 21.1094Z" fill="#2196F3"/>
<path d="M13.2203 21.0676C13.1125 21.1285 13 21.3582 13 21.5082C13 21.6863 13.1125 21.8785 13.2578 21.9441C13.4313 22.0238 18.5688 22.0238 18.7422 21.9441C18.8875 21.8785 19 21.6863 19 21.5082C19 21.3488 18.8828 21.1238 18.7703 21.0629C18.6438 20.9973 13.3375 21.002 13.2203 21.0676Z" fill="#2196F3"/>
<path d="M20.204 21.1094C20.0259 21.25 19.9602 21.4844 20.0493 21.6859C20.1196 21.8594 20.3259 22 20.4993 22C20.6727 22 20.879 21.8594 20.9493 21.6859C21.0852 21.3672 20.8509 21.0156 20.4993 21.0156C20.3962 21.0156 20.2743 21.0531 20.204 21.1094Z" fill="#2196F3"/>
</g>
<defs>
<clipPath id="clip0_1377_65541">
<rect width="24" height="24" fill="white" transform="translate(4 4)"/>
</clipPath>
</defs>
</svg>
