<svg width="16" height="16" viewBox="0 0 16 16" fill="none" xmlns="http://www.w3.org/2000/svg">
<path d="M8.84375 7.997C8.84375 8.16388 8.79426 8.32701 8.70155 8.46576C8.60884 8.60452 8.47706 8.71266 8.32289 8.77652C8.16871 8.84039 7.99906 8.85709 7.83539 8.82454C7.67172 8.79198 7.52138 8.71162 7.40338 8.59362C7.28538 8.47562 7.20502 8.32528 7.17246 8.16161C7.13991 7.99794 7.15662 7.82829 7.22048 7.67411C7.28434 7.51994 7.39248 7.38816 7.53124 7.29545C7.66999 7.20274 7.83312 7.15325 8 7.15325C8.22378 7.15325 8.43839 7.24215 8.59662 7.40038C8.75486 7.55861 8.84375 7.77322 8.84375 7.997ZM4.90625 7.15325C4.73937 7.15325 4.57624 7.20274 4.43749 7.29545C4.29873 7.38816 4.19059 7.51994 4.12673 7.67411C4.06286 7.82829 4.04616 7.99794 4.07871 8.16161C4.11127 8.32528 4.19163 8.47562 4.30963 8.59362C4.42763 8.71162 4.57797 8.79198 4.74164 8.82454C4.90531 8.85709 5.07496 8.84039 5.22914 8.77652C5.38331 8.71266 5.51509 8.60452 5.6078 8.46576C5.70052 8.32701 5.75 8.16388 5.75 7.997C5.75 7.77322 5.66111 7.55861 5.50287 7.40038C5.34464 7.24215 5.13003 7.15325 4.90625 7.15325ZM11.0938 7.15325C10.9269 7.15325 10.7637 7.20274 10.625 7.29545C10.4862 7.38816 10.3781 7.51994 10.3142 7.67411C10.2504 7.82829 10.2337 7.99794 10.2662 8.16161C10.2988 8.32528 10.3791 8.47562 10.4971 8.59362C10.6151 8.71162 10.7655 8.79198 10.9291 8.82454C11.0928 8.85709 11.2625 8.84039 11.4166 8.77652C11.5708 8.71266 11.7026 8.60452 11.7953 8.46576C11.888 8.32701 11.9375 8.16388 11.9375 7.997C11.9375 7.77322 11.8486 7.55861 11.6904 7.40038C11.5321 7.24215 11.3175 7.15325 11.0938 7.15325ZM15.3125 7.997C15.3128 9.25949 14.9862 10.5005 14.3645 11.5994C13.7429 12.6982 12.8473 13.6173 11.765 14.2673C10.6827 14.9174 9.4506 15.2761 8.18854 15.3087C6.92647 15.3412 5.67748 15.0465 4.56312 14.4531L2.16898 15.2511C1.97076 15.3172 1.75805 15.3268 1.55468 15.2788C1.35132 15.2309 1.16533 15.1272 1.01758 14.9794C0.869831 14.8317 0.766148 14.6457 0.718154 14.4423C0.670161 14.239 0.679755 14.0262 0.745859 13.828L1.54391 11.4339C1.02229 10.4532 0.730951 9.36654 0.691998 8.25643C0.653045 7.14633 0.867504 6.04194 1.3191 5.02709C1.77069 4.01225 2.44754 3.11362 3.29829 2.39942C4.14903 1.68521 5.1513 1.17421 6.22902 0.905194C7.30674 0.636177 8.43158 0.616218 9.51816 0.84683C10.6047 1.07744 11.6245 1.55257 12.5001 2.23614C13.3756 2.91971 14.0839 3.79376 14.5712 4.79194C15.0585 5.79013 15.312 6.88621 15.3125 7.997ZM14.1875 7.997C14.1872 7.04787 13.9686 6.11152 13.5486 5.2604C13.1285 4.40928 12.5183 3.6662 11.7651 3.08865C11.0119 2.5111 10.136 2.11457 9.205 1.92973C8.27404 1.74489 7.31304 1.77669 6.39634 2.02269C5.47964 2.26868 4.63182 2.72227 3.91847 3.34835C3.20512 3.97444 2.64536 4.75624 2.28251 5.63328C1.91966 6.51031 1.76343 7.45907 1.82593 8.40614C1.88842 9.35321 2.16795 10.2732 2.64289 11.095C2.68275 11.164 2.7075 11.2406 2.7155 11.3199C2.7235 11.3992 2.71457 11.4792 2.6893 11.5548L1.8125 14.1845L4.44219 13.3077C4.49946 13.2882 4.55956 13.2782 4.62008 13.2782C4.71887 13.2783 4.81587 13.3045 4.90133 13.3541C5.84197 13.8983 6.90936 14.1852 7.99609 14.1859C9.08283 14.1866 10.1506 13.9011 11.0919 13.358C12.0332 12.815 12.8149 12.0336 13.3584 11.0925C13.9018 10.1514 14.1877 9.08374 14.1875 7.997Z" fill="white"/>
</svg>
