<svg width="32" height="32" viewBox="0 0 32 32" fill="none" xmlns="http://www.w3.org/2000/svg">
<path d="M26.3862 9.54231V13.9762C26.3862 14.2701 26.2694 14.5521 26.0615 14.76C25.8536 14.9678 25.5717 15.0846 25.2777 15.0846C24.9837 15.0846 24.7018 14.9678 24.4939 14.76C24.286 14.5521 24.1692 14.2701 24.1692 13.9762V10.6508H20.8438C20.5499 10.6508 20.2679 10.534 20.06 10.3261C19.8522 10.1182 19.7354 9.83629 19.7354 9.54231C19.7354 9.24833 19.8522 8.96639 20.06 8.75851C20.2679 8.55063 20.5499 8.43385 20.8438 8.43385H25.2777C25.5717 8.43385 25.8536 8.55063 26.0615 8.75851C26.2694 8.96639 26.3862 9.24833 26.3862 9.54231ZM11.9762 21.7354H8.65077V18.41C8.65077 18.116 8.53398 17.8341 8.32611 17.6262C8.11823 17.4183 7.83629 17.3015 7.54231 17.3015C7.24833 17.3015 6.96638 17.4183 6.75851 17.6262C6.55063 17.8341 6.43385 18.116 6.43385 18.41V22.8438C6.43385 23.1378 6.55063 23.4198 6.75851 23.6277C6.96638 23.8355 7.24833 23.9523 7.54231 23.9523H11.9762C12.2701 23.9523 12.5521 23.8355 12.76 23.6277C12.9678 23.4198 13.0846 23.1378 13.0846 22.8438C13.0846 22.5499 12.9678 22.2679 12.76 22.06C12.5521 21.8522 12.2701 21.7354 11.9762 21.7354ZM30.82 6.21692V26.1692C30.82 26.7572 30.5864 27.3211 30.1707 27.7368C29.7549 28.1526 29.191 28.3862 28.6031 28.3862H4.21692C3.62896 28.3862 3.06508 28.1526 2.64932 27.7368C2.23357 27.3211 2 26.7572 2 26.1692V6.21692C2 5.62896 2.23357 5.06508 2.64932 4.64932C3.06508 4.23357 3.62896 4 4.21692 4H28.6031C29.191 4 29.7549 4.23357 30.1707 4.64932C30.5864 5.06508 30.82 5.62896 30.82 6.21692ZM28.6031 26.1692V6.21692H4.21692V26.1692H28.6031Z" fill="#2196F3"/>
</svg>
