<svg width="18" height="24" viewBox="0 0 18 24" fill="none" xmlns="http://www.w3.org/2000/svg">
<path d="M8.98096 0C4.01578 0 0 3.85825 0 8.62867C0 13.7689 5.67084 20.8567 8.00588 23.5562C8.51908 24.1479 9.45567 24.1479 9.96886 23.5562C12.2911 20.8567 17.962 13.7689 17.962 8.62867C17.962 3.85825 13.9461 0 8.98096 0ZM8.98096 11.7103C7.21043 11.7103 5.77347 10.3298 5.77347 8.62867C5.77347 6.92759 7.21043 5.547 8.98096 5.547C10.7515 5.547 12.1884 6.92759 12.1884 8.62867C12.1884 10.3298 10.7515 11.7103 8.98096 11.7103Z" fill="#2196F3"/>
</svg>
