<svg width="18" height="18" viewBox="0 0 18 18" fill="none" xmlns="http://www.w3.org/2000/svg">
<path fill-rule="evenodd" clip-rule="evenodd" d="M16.0909 4.06248C16.1622 4.17064 16.1939 4.30007 16.1808 4.42892C16.1677 4.55778 16.1105 4.67816 16.0189 4.76973L9.12418 11.6637C9.05364 11.7342 8.96564 11.7847 8.86918 11.81L5.99743 12.56C5.9025 12.5847 5.80275 12.5842 5.70807 12.5585C5.6134 12.5328 5.52709 12.4828 5.45772 12.4134C5.38835 12.3441 5.33833 12.2578 5.31262 12.1631C5.28692 12.0684 5.28642 11.9687 5.31118 11.8737L6.06118 9.00273C6.08307 8.91655 6.12437 8.83651 6.18193 8.76873L13.1022 1.85298C13.2076 1.74764 13.3506 1.68848 13.4997 1.68848C13.6487 1.68848 13.7917 1.74764 13.8972 1.85298L16.0189 3.97398C16.0458 4.00099 16.07 4.03064 16.0909 4.06248ZM14.8257 4.37148L13.4997 3.04623L7.11118 9.43473L6.64243 11.2295L8.43718 10.7607L14.8257 4.37148Z" fill="white"/>
<path d="M14.7312 12.8697C14.9362 11.1176 15.0016 9.35208 14.9269 7.58967C14.9253 7.54815 14.9322 7.50674 14.9473 7.46803C14.9624 7.42931 14.9853 7.39413 15.0147 7.36467L15.7527 6.62667C15.7728 6.60639 15.7984 6.59236 15.8264 6.58628C15.8543 6.58019 15.8834 6.58231 15.9102 6.59237C15.937 6.60243 15.9603 6.62 15.9773 6.64299C15.9943 6.66597 16.0043 6.69338 16.0062 6.72192C16.1451 8.81535 16.0923 10.9171 15.8487 13.0009C15.6717 14.5174 14.4537 15.7062 12.9439 15.8749C10.3229 16.1652 7.6779 16.1652 5.05691 15.8749C3.54791 15.7062 2.32916 14.5174 2.15216 13.0009C1.84121 10.3425 1.84121 7.65686 2.15216 4.99842C2.32916 3.48192 3.54716 2.29317 5.05691 2.12442C7.04619 1.90383 9.05045 1.8504 11.0487 1.96467C11.0773 1.96672 11.1047 1.97693 11.1276 1.99408C11.1506 2.01123 11.1682 2.0346 11.1783 2.06144C11.1884 2.08827 11.1906 2.11743 11.1846 2.14548C11.1787 2.17352 11.1648 2.19927 11.1447 2.21967L10.3999 2.96367C10.3707 2.99273 10.3359 3.01551 10.2976 3.0306C10.2593 3.04569 10.2183 3.05278 10.1772 3.05142C8.50972 2.99474 6.84038 3.05866 5.18216 3.24267C4.69761 3.2963 4.2453 3.51171 3.89827 3.85411C3.55125 4.19651 3.32979 4.64589 3.26966 5.12967C2.96894 7.70091 2.96894 10.2984 3.26966 12.8697C3.32979 13.3535 3.55125 13.8028 3.89827 14.1452C4.2453 14.4876 4.69761 14.703 5.18216 14.7567C7.69841 15.0379 10.3024 15.0379 12.8194 14.7567C13.304 14.703 13.7563 14.4876 14.1033 14.1452C14.4503 13.8028 14.671 13.3535 14.7312 12.8697Z" fill="white"/>
</svg>
