<svg width="26" height="33" viewBox="0 0 26 33" fill="none" xmlns="http://www.w3.org/2000/svg">
<path d="M23.108 12.5061H20.7175C20.7175 12.2413 20.6336 11.9874 20.4841 11.8001C20.3347 11.6129 20.132 11.5077 19.9207 11.5077H13.5461C13.3348 11.5077 13.1321 11.6129 12.9826 11.8001C12.8332 11.9874 12.7493 12.2413 12.7493 12.5061H6.37465V7.01493C6.37465 6.61774 6.50058 6.23683 6.72473 5.95597C6.94888 5.67512 7.25289 5.51734 7.56989 5.51734C7.85002 5.51591 8.12228 5.63345 8.34224 5.85081C8.5622 6.06817 8.71689 6.3725 8.78107 6.71416C8.82484 6.97146 8.94789 7.19671 9.12347 7.34096C9.29906 7.4852 9.51299 7.53679 9.71876 7.4845C9.92453 7.43221 10.1055 7.28027 10.2224 7.06171C10.3392 6.84315 10.3825 6.57563 10.3428 6.3173C10.2076 5.52285 9.85797 4.81103 9.35293 4.30166C8.84789 3.79228 8.21822 3.51644 7.56989 3.52055C6.83023 3.52055 6.12087 3.88871 5.59785 4.54403C5.07483 5.19936 4.781 6.08816 4.781 7.01493V12.5061H2.39053C1.96786 12.5061 1.56251 12.7165 1.26364 13.0909C0.964777 13.4654 0.796875 13.9733 0.796875 14.5029V18.4965C0.798457 20.3494 1.38662 22.1258 2.43232 23.4361C3.47801 24.7463 4.89582 25.4832 6.37465 25.4852V27.482C6.37465 27.7468 6.4586 28.0007 6.60804 28.188C6.75747 28.3752 6.96015 28.4804 7.17148 28.4804C7.38281 28.4804 7.58548 28.3752 7.73492 28.188C7.88435 28.0007 7.9683 27.7468 7.9683 27.482V25.4852H17.5302V27.482C17.5302 27.7468 17.6142 28.0007 17.7636 28.188C17.913 28.3752 18.1157 28.4804 18.327 28.4804C18.5384 28.4804 18.741 28.3752 18.8905 28.188C19.0399 28.0007 19.1239 27.7468 19.1239 27.482V25.4852C20.6027 25.4832 22.0205 24.7463 23.0662 23.4361C24.1119 22.1258 24.7001 20.3494 24.7016 18.4965V14.5029C24.7016 13.9733 24.5337 13.4654 24.2349 13.0909C23.936 12.7165 23.5306 12.5061 23.108 12.5061ZM19.1239 13.5045V17.4981H14.3429V13.5045H19.1239ZM23.108 18.4965C23.108 19.152 23.0049 19.8011 22.8047 20.4068C22.6045 21.0125 22.311 21.5628 21.9411 22.0263C21.5711 22.4899 21.1319 22.8576 20.6485 23.1084C20.1651 23.3593 19.6471 23.4884 19.1239 23.4884H6.37465C5.318 23.4884 4.30462 22.9625 3.55745 22.0263C2.81028 21.0901 2.39053 19.8204 2.39053 18.4965V14.5029H12.7493V18.4965C12.7493 18.7612 12.8332 19.0152 12.9826 19.2024C13.1321 19.3897 13.3348 19.4948 13.5461 19.4948H19.9207C20.132 19.4948 20.3347 19.3897 20.4841 19.2024C20.6336 19.0152 20.7175 18.7612 20.7175 18.4965V14.5029H23.108V18.4965Z" fill="#2196F3"/>
</svg>
