<svg width="18" height="21" viewBox="0 0 18 21" fill="none" xmlns="http://www.w3.org/2000/svg">
<path d="M14.2496 13.5011C13.7494 13.5009 13.2542 13.6011 12.7935 13.7958C12.3327 13.9905 11.9157 14.2756 11.5671 14.6343L7.24632 11.8569C7.5862 10.9853 7.5862 10.0177 7.24632 9.14607L11.5671 6.36866C12.2161 7.03355 13.0889 7.43374 14.0161 7.49164C14.9434 7.54955 15.8592 7.26104 16.5858 6.68206C17.3125 6.10308 17.7983 5.27486 17.9491 4.35799C18.0999 3.44112 17.9049 2.50092 17.402 1.71967C16.899 0.938413 16.1239 0.371768 15.2269 0.129593C14.3299 -0.112583 13.375 -0.0130362 12.5472 0.408933C11.7195 0.830903 11.0779 1.54523 10.7468 2.41343C10.4158 3.28163 10.4188 4.24184 10.7554 5.1079L6.43465 7.88531C5.91435 7.35108 5.24657 6.98417 4.51667 6.83147C3.78678 6.67878 3.02794 6.74723 2.33715 7.02809C1.64636 7.30895 1.05501 7.78945 0.638692 8.40818C0.222373 9.0269 0 9.75573 0 10.5015C0 11.2473 0.222373 11.9761 0.638692 12.5948C1.05501 13.2135 1.64636 13.6941 2.33715 13.9749C3.02794 14.2558 3.78678 14.3242 4.51667 14.1715C5.24657 14.0188 5.91435 13.6519 6.43465 13.1177L10.7554 15.8951C10.466 16.6417 10.4231 17.4615 10.6332 18.2342C10.8433 19.0069 11.2952 19.6921 11.9228 20.1894C12.5504 20.6867 13.3207 20.97 14.1209 20.9977C14.9212 21.0255 15.7093 20.7963 16.3698 20.3437C17.0304 19.8911 17.5287 19.2389 17.7918 18.4826C18.0549 17.7263 18.069 16.9056 17.832 16.1407C17.595 15.3758 17.1193 14.7068 16.4747 14.2319C15.83 13.7569 15.0503 13.5008 14.2496 13.5011ZM14.2496 1.50279C14.6944 1.50279 15.1294 1.63473 15.4993 1.88193C15.8692 2.12913 16.1575 2.48048 16.3278 2.89155C16.498 3.30263 16.5426 3.75496 16.4558 4.19136C16.369 4.62775 16.1547 5.02861 15.8401 5.34323C15.5256 5.65785 15.1247 5.87211 14.6884 5.95892C14.252 6.04572 13.7998 6.00117 13.3887 5.8309C12.9777 5.66062 12.6264 5.37228 12.3792 5.00232C12.132 4.63236 12.0001 4.19741 12.0001 3.75247C12.0001 3.15581 12.2371 2.5836 12.659 2.1617C13.0808 1.73981 13.653 1.50279 14.2496 1.50279ZM3.75221 12.7512C3.30731 12.7512 2.87241 12.6192 2.50249 12.372C2.13257 12.1248 1.84426 11.7735 1.674 11.3624C1.50375 10.9513 1.4592 10.499 1.546 10.0626C1.63279 9.62622 1.84703 9.22536 2.16162 8.91074C2.47621 8.59612 2.87702 8.38185 3.31336 8.29505C3.74971 8.20825 4.202 8.2528 4.61303 8.42307C5.02406 8.59334 5.37537 8.88169 5.62254 9.25165C5.86971 9.6216 6.00164 10.0566 6.00164 10.5015C6.00164 11.0982 5.76465 11.6704 5.34279 12.0923C4.92094 12.5142 4.34879 12.7512 3.75221 12.7512ZM14.2496 19.5002C13.8047 19.5002 13.3698 19.3683 12.9998 19.1211C12.6299 18.8739 12.3416 18.5225 12.1713 18.1114C12.0011 17.7004 11.9565 17.248 12.0433 16.8116C12.1301 16.3752 12.3444 15.9744 12.659 15.6598C12.9736 15.3451 13.3744 15.1309 13.8107 15.0441C14.2471 14.9573 14.6993 15.0018 15.1104 15.1721C15.5214 15.3424 15.8727 15.6307 16.1199 16.0007C16.3671 16.3706 16.499 16.8056 16.499 17.2505C16.499 17.8472 16.262 18.4194 15.8401 18.8413C15.4183 19.2632 14.8461 19.5002 14.2496 19.5002Z" fill="#2196F3"/>
</svg>
