<svg width="25" height="23" viewBox="0 0 25 23" fill="none" xmlns="http://www.w3.org/2000/svg">
<path d="M21.2215 7.08859V4.99197C21.2215 3.66801 20.8017 2.39829 20.0545 1.46211C19.3074 0.525938 18.294 0 17.2373 0H7.67542C6.61877 0 5.60539 0.525938 4.85822 1.46211C4.11105 2.39829 3.6913 3.66801 3.6913 4.99197V7.08859C2.79065 7.31774 1.98093 7.92997 1.39932 8.82154C0.81772 9.71312 0.5 10.8292 0.5 11.9807C0.5 13.1322 0.81772 14.2483 1.39932 15.1399C1.98093 16.0315 2.79065 16.6437 3.6913 16.8728V20.9663C3.6913 21.4958 3.8592 22.0037 4.15807 22.3782C4.45693 22.7527 4.86228 22.963 5.28495 22.963H19.6278C20.0505 22.963 20.4558 22.7527 20.7547 22.3782C21.0536 22.0037 21.2215 21.4958 21.2215 20.9663V16.8728C22.1221 16.6437 22.9318 16.0315 23.5134 15.1399C24.095 14.2483 24.4128 13.1322 24.4128 11.9807C24.4128 10.8292 24.095 9.71312 23.5134 8.82154C22.9318 7.92997 22.1221 7.31774 21.2215 7.08859ZM7.67542 1.99679H17.2373C17.8713 1.99679 18.4793 2.31235 18.9277 2.87405C19.376 3.43576 19.6278 4.1976 19.6278 4.99197V7.08859C18.7285 7.32027 17.9204 7.93336 17.3398 8.8245C16.7593 9.71565 16.4416 10.8304 16.4405 11.9807H8.47225C8.47113 10.8304 8.1535 9.71565 7.5729 8.8245C6.99231 7.93336 6.18425 7.32027 5.28495 7.08859V4.99197C5.28495 4.1976 5.5368 3.43576 5.9851 2.87405C6.4334 2.31235 7.04143 1.99679 7.67542 1.99679ZM20.4635 14.9759H20.4246C20.2133 14.9759 20.0106 15.0811 19.8612 15.2683C19.7118 15.4556 19.6278 15.7095 19.6278 15.9743V20.9663H5.28495V15.9743C5.28495 15.7095 5.201 15.4556 5.05156 15.2683C4.90213 15.0811 4.69945 14.9759 4.48812 14.9759H4.44928C3.97821 14.9663 3.51992 14.7825 3.13195 14.4476C2.74398 14.1127 2.44364 13.6417 2.26865 13.0936C2.09367 12.5455 2.05183 11.9449 2.14841 11.3671C2.24499 10.7894 2.47567 10.2602 2.81148 9.8462C3.14729 9.43217 3.57325 9.15171 4.03587 9.04003C4.49848 8.92835 4.97712 8.99044 5.41166 9.21849C5.84621 9.44655 6.21728 9.83041 6.47827 10.3219C6.73926 10.8133 6.87854 11.3904 6.8786 11.9807V16.9727C6.8786 17.2375 6.96255 17.4914 7.11198 17.6787C7.26142 17.8659 7.46409 17.9711 7.67542 17.9711C7.88675 17.9711 8.08943 17.8659 8.23886 17.6787C8.3883 17.4914 8.47225 17.2375 8.47225 16.9727V13.9775H16.4405V16.9727C16.4405 17.2375 16.5245 17.4914 16.6739 17.6787C16.8233 17.8659 17.026 17.9711 17.2373 17.9711C17.4487 17.9711 17.6513 17.8659 17.8008 17.6787C17.9502 17.4914 18.0342 17.2375 18.0342 16.9727V11.9807C18.0342 11.3904 18.1735 10.8133 18.4345 10.3219C18.6955 9.83041 19.0665 9.44655 19.5011 9.21849C19.9356 8.99044 20.4143 8.92835 20.8769 9.04003C21.3395 9.15171 21.7655 9.43217 22.1013 9.8462C22.4371 10.2602 22.6678 10.7894 22.7643 11.3671C22.8609 11.9449 22.8191 12.5455 22.6441 13.0936C22.4691 13.6417 22.1688 14.1127 21.7808 14.4476C21.3928 14.7825 20.9345 14.9663 20.4635 14.9759Z" fill="#2196F3"/>
</svg>
