<svg width="22" height="22" viewBox="0 0 22 22" fill="none" xmlns="http://www.w3.org/2000/svg">
<path d="M21.4298 9.59097L12.4178 0.567126C11.6676 -0.184026 10.3473 -0.194041 9.58714 0.567126L0.58513 9.58095C-0.195043 10.3622 -0.195043 11.6241 0.58513 12.4053L9.58714 21.4191C9.97722 21.8097 10.4873 22 10.9975 22C11.5076 22 12.0177 21.8097 12.4078 21.4191L21.3998 12.4153C22.1899 11.6541 22.1999 10.3922 21.4298 9.59097ZM11.0075 20.0069L2.00545 10.9931L11.0075 1.97929L20.0095 10.9931L11.0075 20.0069ZM6.99656 10.0016V14.0077H8.99701V11.0031H12.9979V13.507L16.4987 10.0016L12.9979 6.49622V9.00006H7.99678C7.44666 9.00006 6.99656 9.45075 6.99656 10.0016Z" fill="#2196F3"/>
</svg>
