<svg width="24" height="30" viewBox="0 0 24 30" fill="none" xmlns="http://www.w3.org/2000/svg">
<path d="M19.4421 10.9565L19.8188 11.0524C19.9968 11.0977 20.1714 11.1631 20.3407 11.248L20.5648 10.801C20.9486 10.9934 21.3034 11.2672 21.6135 11.6103L21.2426 11.9455C21.3701 12.0866 21.4898 12.2421 21.6002 12.4113C21.6609 12.5043 21.7182 12.6007 21.772 12.7002L22.2118 12.4622C22.3301 12.6809 22.4325 12.9113 22.5182 13.1507L22.0474 13.3191C22.1231 13.5308 22.1845 13.7509 22.2308 13.9771L22.7207 13.8768C22.7707 14.121 22.8045 14.3708 22.8214 14.6239L22.3225 14.6571C22.3301 14.771 22.3339 14.8857 22.3339 15.0008C22.3339 15.1159 22.3301 15.2305 22.3225 15.3444L22.8214 15.3777C22.8045 15.6307 22.7707 15.8806 22.7207 16.1248L22.2308 16.0245C22.1845 16.2506 22.1231 16.4708 22.0474 16.6824L22.5182 16.8508C22.4325 17.0902 22.3301 17.3207 22.2118 17.5394L21.772 17.3014C21.7182 17.4008 21.6609 17.4972 21.6002 17.5903C21.4898 17.7595 21.3701 17.915 21.2426 18.056L21.6135 18.3913C21.3034 18.7344 20.9486 19.0081 20.5648 19.2006L20.3407 18.7536C20.1714 18.8384 19.9968 18.9039 19.8188 18.9492L19.4421 19.045V19.4337V19.8974H19.9421V20.8247H19.4421V21.752H19.9421V22.6793H19.4421V23.143C19.4421 23.2331 19.4352 23.3222 19.4219 23.409L19.9161 23.4849C19.8805 23.7167 19.809 23.9376 19.7058 24.135L19.2627 23.9032C19.223 23.9791 19.1779 24.0485 19.1284 24.1105C19.0836 24.1666 19.0364 24.2153 18.9878 24.2569L19.3131 24.6366C19.1558 24.7713 18.9788 24.8657 18.7924 24.9144L18.6662 24.4306C18.6105 24.4451 18.5543 24.4523 18.4981 24.4523H17.9565V24.9523H16.8735V24.4523H15.7904V24.9523H14.7074V24.4523H13.6243V24.9523H12.5412V24.4523H11.4582V24.9523H10.3751V24.4523H9.29207V24.9523H8.20902V24.4523H7.12596V24.9523H6.0429V24.4523H5.50137C5.4451 24.4523 5.3889 24.4451 5.33323 24.4306L5.207 24.9144C5.02063 24.8657 4.8436 24.7713 4.68631 24.6366L5.0116 24.2569C4.96306 24.2153 4.91582 24.1666 4.87105 24.1105L4.48026 24.4224L4.87105 24.1105C4.82154 24.0485 4.77641 23.9791 4.73671 23.9032L4.29368 24.135C4.19043 23.9376 4.11892 23.7167 4.08331 23.4849L4.57751 23.409C4.56419 23.3222 4.5573 23.2331 4.5573 23.143V22.6793H4.0573V21.752H4.5573V20.8247H4.0573V19.8974H4.5573V19.4337V19.045L4.18058 18.9492C4.00259 18.9039 3.82802 18.8384 3.65873 18.7536L3.43466 19.2006C3.05083 19.0081 2.696 18.7344 2.3859 18.3913L2.75686 18.056C2.62938 17.915 2.50958 17.7594 2.39922 17.5903C2.33852 17.4972 2.2812 17.4008 2.22739 17.3014L1.78765 17.5394C1.66931 17.3207 1.56691 17.0902 1.48128 16.8508L1.95207 16.6824C1.87635 16.4708 1.81489 16.2506 1.76859 16.0245L1.27875 16.1248C1.22876 15.8806 1.19496 15.6307 1.17808 15.3777L1.67697 15.3444C1.66937 15.2305 1.66553 15.1159 1.66553 15.0008C1.66553 14.8857 1.66937 14.771 1.67697 14.6571L1.17808 14.6239C1.19496 14.3708 1.22876 14.121 1.27875 13.8768L1.76859 13.9771C1.81489 13.7509 1.87635 13.5308 1.95207 13.3191L1.48128 13.1507C1.56691 12.9113 1.66931 12.6809 1.78766 12.4622L2.22739 12.7002C2.2812 12.6007 2.33852 12.5043 2.39922 12.4113C2.50958 12.2421 2.62938 12.0866 2.75686 11.9455L2.3859 11.6103C2.696 11.2672 3.05083 10.9934 3.43466 10.801L3.65873 11.248C3.82802 11.1631 4.00259 11.0977 4.18058 11.0524L4.5573 10.9565V10.5678V10.0929H4.0573V9.14293H4.5573V8.66797C4.5573 8.5369 4.56228 8.40652 4.5721 8.27722L4.07353 8.23936C4.09543 7.95104 4.13927 7.66742 4.20386 7.39217L4.69064 7.50639C4.75073 7.25028 4.83038 7.00313 4.92804 6.76846L4.46643 6.57634C4.57788 6.30854 4.71097 6.05417 4.86428 5.81749L5.28393 6.08932C5.35348 5.98196 5.42741 5.87914 5.50549 5.78131C5.6458 5.60551 5.79659 5.44943 5.95512 5.31362L5.62982 4.93391C6.02306 4.59702 6.46562 4.36107 6.93155 4.2395L7.05778 4.7233C7.25762 4.67116 7.46172 4.64453 7.66749 4.64453H8.20902V4.14453H9.29208V4.64453H10.3751V4.14453H11.4582V4.64453H12.5412V4.14453H13.6243V4.64453H14.7074V4.14453H15.7904V4.64453H16.3319C16.5377 4.64453 16.7418 4.67116 16.9417 4.7233L17.0679 4.2395C17.5338 4.36107 17.9764 4.59702 18.3696 4.93391L18.0443 5.31362C18.2028 5.44943 18.3536 5.60551 18.4939 5.78131C18.572 5.87914 18.646 5.98196 18.7155 6.08932L19.1352 5.81749C19.2885 6.05417 19.4216 6.30854 19.533 6.57634L19.0714 6.76846C19.1691 7.00313 19.2487 7.25028 19.3088 7.50639L19.7956 7.39217C19.8602 7.66742 19.904 7.95104 19.9259 8.23936L19.4273 8.27722C19.4372 8.40652 19.4421 8.5369 19.4421 8.66797V9.14293H19.9421V10.0929H19.4421V10.5678V10.9565ZM18.6228 11.052L18.9981 10.9553V10.5678V10.0929H18.4981V9.14293H18.9981V8.66797C18.9981 8.4692 18.9829 8.27217 18.9533 8.07923L18.459 8.15513C18.4056 7.80732 18.2984 7.47596 18.1435 7.17995L18.5865 6.94816C18.4918 6.76708 18.3809 6.59546 18.2544 6.43694C18.1399 6.2935 18.0146 6.16326 17.8798 6.04782L17.5545 6.42753C17.3186 6.2254 17.0531 6.08383 16.7735 6.01089L16.8997 5.52708C16.7151 5.47891 16.5248 5.45391 16.3319 5.45391H15.7904V5.95391H14.7074V5.45391H13.6243V5.95391H12.5412V5.45391H11.4582V5.95391H10.3751V5.45391H9.29208V5.95391H8.20902V5.45391H7.66749C7.47461 5.45391 7.28431 5.47891 7.09969 5.52708L7.22592 6.01089C6.94637 6.08383 6.68083 6.2254 6.44489 6.42753L6.1196 6.04782C5.98484 6.16326 5.8595 6.2935 5.74502 6.43694C5.6185 6.59547 5.50766 6.76708 5.41292 6.94816L5.85594 7.17995C5.70107 7.47596 5.5938 7.80732 5.54039 8.15513L5.04618 8.07923C5.01655 8.27217 5.00137 8.4692 5.00137 8.66797V9.14293H5.50137V10.0929H5.00137V10.5678V10.9553L5.37664 11.052C5.55445 11.0978 5.72883 11.1637 5.89791 11.249L6.123 10.8025C6.50616 10.9957 6.8603 11.2698 7.16982 11.613L6.79851 11.9479C6.92581 12.089 7.04544 12.2446 7.15566 12.4137C7.21626 12.5068 7.2735 12.6031 7.32724 12.7025L7.76705 12.4646C7.88522 12.6832 7.9875 12.9134 8.07307 13.1526L7.6023 13.321C7.67797 13.5325 7.73944 13.7525 7.78581 13.9784L8.2756 13.8779C8.32566 14.1218 8.35958 14.3714 8.37665 14.6242L7.87779 14.6579C7.88548 14.7717 7.88941 14.8863 7.88953 15.0013L7.89001 15.5008H8.38953H8.8408V15.0008H9.74335V15.5008H10.6459V15.0008H11.5484V15.5008H12.451V15.0008H13.3535V15.5008H14.2561V15.0008H15.1586V15.5008H15.6099H16.1094L16.1099 15.0013C16.11 14.8863 16.114 14.7717 16.1216 14.6579L15.6228 14.6242C15.6398 14.3714 15.6738 14.1218 15.7238 13.8779L16.2136 13.9784C16.26 13.7525 16.3215 13.5325 16.3971 13.321L15.9264 13.1526C16.0119 12.9134 16.1142 12.6832 16.2324 12.4646L16.6722 12.7025C16.7259 12.6031 16.7832 12.5068 16.8438 12.4137C16.954 12.2446 17.0736 12.089 17.2009 11.9479L16.8296 11.613C17.1391 11.2698 17.4933 10.9957 17.8764 10.8025L18.1015 11.249C18.2706 11.1637 18.445 11.0978 18.6228 11.052ZM19.2553 18.2149L19.2655 18.2147C19.4068 18.2119 19.5468 18.1956 19.6842 18.1665L19.5808 17.6773C19.7908 17.6329 19.9945 17.5498 20.1853 17.4309L20.4499 17.8551C20.5634 17.7843 20.6723 17.7039 20.7757 17.6147C20.8881 17.5177 20.9928 17.4113 21.0893 17.297L20.7074 16.9743C20.8613 16.7922 20.9931 16.5827 21.0986 16.3526L21.5531 16.5609C21.612 16.4323 21.6637 16.2988 21.7076 16.1613C21.7539 16.0163 21.7911 15.8683 21.8194 15.7185L21.3281 15.6258C21.3767 15.3679 21.395 15.1025 21.3823 14.838L21.8817 14.814C21.8745 14.663 21.8584 14.512 21.8334 14.3623C21.8091 14.2171 21.7766 14.0744 21.7362 13.9352L21.256 14.0744C21.1838 13.8252 21.0828 13.5906 20.9563 13.3782L21.3859 13.1224C21.3084 12.9923 21.2223 12.8682 21.1277 12.7516C21.0408 12.6445 20.9477 12.5447 20.8488 12.4531L20.5088 12.8197C20.3379 12.6612 20.1494 12.5351 19.9493 12.4455L20.1537 11.9892C20.0227 11.9305 19.8869 11.8838 19.7472 11.8501C19.6125 11.8175 19.476 11.7976 19.3391 11.7903L19.3125 12.2895C19.0992 12.2781 18.8857 12.3063 18.6789 12.3731L18.5252 11.8974C18.3971 11.9388 18.272 11.9915 18.1509 12.0551C18.0215 12.123 17.8982 12.2024 17.7818 12.292L18.0867 12.6883C17.906 12.8272 17.7426 12.9987 17.6016 13.1973L17.1939 12.9079C17.1143 13.0201 17.0412 13.1388 16.9751 13.2631C16.904 13.397 16.8418 13.5361 16.7886 13.6791L17.2571 13.8536C17.1677 14.0937 17.1068 14.349 17.0765 14.6112L16.5798 14.5537C16.5627 14.7013 16.554 14.8506 16.554 15.0007V15.0008V15.5662H17.054V16.6971H16.554V17.8279H17.054V18.9588H16.554V19.5242C16.554 19.5566 16.5515 19.5884 16.5468 19.6193L17.041 19.6952C17.0232 19.8111 16.9874 19.9216 16.9358 20.0202L16.4928 19.7884C16.4799 19.8129 16.466 19.8341 16.4517 19.852C16.4388 19.8682 16.4261 19.8811 16.4142 19.8913L16.7395 20.271C16.6608 20.3384 16.5723 20.3856 16.4791 20.4099L16.3529 19.9261C16.3453 19.9281 16.3384 19.9289 16.3319 19.9289C16.3263 19.9289 16.3203 19.9283 16.3138 19.9268C16.3129 19.9266 16.3119 19.9264 16.311 19.9261L16.1848 20.4099C16.0916 20.3856 16.0031 20.3384 15.9244 20.271L16.2497 19.8913C16.2378 19.8811 16.2251 19.8682 16.2122 19.852C16.1979 19.8341 16.1839 19.8129 16.1711 19.7884L15.7281 20.0202C15.6765 19.9216 15.6407 19.8111 15.6229 19.6952L16.1171 19.6193C16.1124 19.5884 16.1099 19.5566 16.1099 19.5242V18.8457H15.6099V17.4887H16.1099V16.8102V16.3102H15.6099H15.1586V16.8102H15.1099H14.2561V16.3102H13.3535V16.8102H12.451V16.3102H11.5484V16.8102H10.6459V16.3102H9.74335V16.8102H8.88953H8.8408V16.3102H8.38953H7.88953V16.8102V17.4887H8.38953V18.8457H7.88953V19.5242C7.88953 19.5566 7.88705 19.5884 7.88232 19.6193L8.37652 19.6952C8.35872 19.8111 8.32296 19.9216 8.27134 20.0202L7.82831 19.7884C7.81549 19.8129 7.80156 19.8341 7.78725 19.852C7.77434 19.8682 7.76161 19.8811 7.74973 19.8913L8.07502 20.271C7.99637 20.3384 7.90786 20.3856 7.81468 20.4099L7.68845 19.9261C7.68083 19.9281 7.67394 19.9289 7.66749 19.9289C7.66104 19.9289 7.65414 19.9281 7.64653 19.9261L7.5203 20.4099C7.42711 20.3856 7.3386 20.3384 7.25996 20.271L7.58525 19.8913C7.57337 19.8811 7.56064 19.8682 7.54773 19.852C7.53342 19.8341 7.51949 19.8129 7.50667 19.7884L7.06364 20.0202C7.01202 19.9216 6.97626 19.8111 6.95845 19.6952L7.45266 19.6193C7.44793 19.5884 7.44545 19.5566 7.44545 19.5242V18.9588H6.94545V17.8279H7.44545V16.6971H6.94545V15.5662H7.44545V15.0008V15.0007C7.44544 14.8506 7.43676 14.7013 7.41966 14.5537L6.92298 14.6112C6.8926 14.349 6.83171 14.0937 6.7423 13.8536L7.21087 13.6791C7.15763 13.5361 7.0954 13.397 7.02429 13.2631C6.95825 13.1388 6.88517 13.0201 6.80551 12.9079L6.39781 13.1973C6.25685 12.9987 6.09339 12.8272 5.91274 12.6883L6.21762 12.292C6.10124 12.2024 5.97796 12.123 5.84855 12.0551C5.72741 11.9915 5.60233 11.9388 5.47428 11.8974L5.32049 12.3731C5.11376 12.3063 4.90026 12.2781 4.68698 12.2895L4.66029 11.7903C4.5234 11.7976 4.38696 11.8175 4.25219 11.8501C4.11258 11.8838 3.97673 11.9305 3.84575 11.9892L4.05015 12.4455C3.85005 12.5351 3.66149 12.6612 3.4906 12.8197L3.1506 12.4531C3.05177 12.5447 2.95861 12.6445 2.87173 12.7516C2.77716 12.8682 2.69101 12.9923 2.61354 13.1224L3.04315 13.3782C2.91667 13.5906 2.81566 13.8252 2.74341 14.0744L2.26319 13.9352C2.22283 14.0744 2.19035 14.2171 2.16607 14.3623C2.14104 14.512 2.12497 14.663 2.11771 14.814L2.61714 14.838C2.60443 15.1025 2.6227 15.3679 2.67137 15.6258L2.18004 15.7185C2.20831 15.8683 2.24558 16.0163 2.29187 16.1613C2.33578 16.2988 2.38739 16.4323 2.44633 16.5609L2.90087 16.3526C3.00632 16.5827 3.13812 16.7922 3.29199 16.9743L2.91008 17.297C3.00667 17.4113 3.11138 17.5177 3.22374 17.6147L3.55045 17.2362L3.22374 17.6147C3.32717 17.7039 3.43602 17.7843 3.54956 17.8551L3.81414 17.4309C4.00491 17.5498 4.20864 17.6329 4.41868 17.6773L4.31519 18.1665C4.45266 18.1956 4.59268 18.2119 4.73396 18.2147L4.73396 18.2148H4.74414H4.75294V17.7148H4.77054V18.2148H4.77934C4.78498 18.2148 4.79096 18.2155 4.79747 18.2169C4.7984 18.2172 4.79934 18.2174 4.80029 18.2176L4.92653 17.7338C5.01971 17.7582 5.10822 17.8053 5.18687 17.8727L4.86157 18.2524C4.87346 18.2626 4.88619 18.2755 4.8991 18.2917C4.9134 18.3096 4.92734 18.3308 4.94016 18.3553L5.38318 18.1235C5.43481 18.2222 5.47056 18.3326 5.48837 18.4486L4.99417 18.5245C4.9989 18.5553 5.00137 18.5871 5.00137 18.6195V19.185H5.50137V20.3158H5.00137V21.4467H5.50137V22.5775H5.00137V23.143V23.643H5.50137H6.0429V23.143H7.12596V23.643H8.20902V23.143H9.29208V23.643H10.3751V23.143H11.4582V23.643H12.5412V23.143H13.6243V23.643H14.7074V23.143H15.7904V23.643H16.8735V23.143H17.9565V23.643H18.4981H18.9981V23.143V22.5775H18.4981V21.4467H18.9981V20.3158H18.4981V19.185H18.9981V18.6195C18.9981 18.5871 19.0005 18.5553 19.0053 18.5245L18.5111 18.4486C18.5289 18.3326 18.5646 18.2222 18.6162 18.1235L19.0593 18.3553C19.0721 18.3308 19.086 18.3096 19.1003 18.2917C19.1132 18.2755 19.126 18.2626 19.1379 18.2524L18.8126 17.8727C18.8912 17.8053 18.9797 17.7582 19.0729 17.7338L19.1991 18.2176C19.2068 18.2157 19.2137 18.2148 19.2201 18.2148H19.2289V17.7148H19.2465V18.2148H19.2553V18.2149Z" fill="white" fill-opacity="0.95" stroke="#E6E6E6" stroke-dasharray="1 1"/>
</svg>
