<svg width="25" height="30" viewBox="0 0 25 30" fill="none" xmlns="http://www.w3.org/2000/svg">
<path d="M20.4426 10.5678V8.66797C20.4426 7.46828 20.0623 6.31772 19.3852 5.46942C18.7082 4.62111 17.7899 4.14453 16.8324 4.14453H8.16798C7.21049 4.14453 6.29223 4.62111 5.61519 5.46942C4.93815 6.31772 4.55779 7.46828 4.55779 8.66797V10.5678C3.74168 10.7755 3.00795 11.3302 2.48093 12.1381C1.95392 12.946 1.66602 13.9574 1.66602 15.0008C1.66602 16.0442 1.95392 17.0555 2.48093 17.8634C3.00795 18.6713 3.74168 19.2261 4.55779 19.4337V23.143C4.55779 23.6228 4.70993 24.0831 4.98075 24.4224C5.25156 24.7617 5.61887 24.9523 6.00186 24.9523H18.9985C19.3815 24.9523 19.7488 24.7617 20.0197 24.4224C20.2905 24.0831 20.4426 23.6228 20.4426 23.143V19.4337C21.2587 19.2261 21.9925 18.6713 22.5195 17.8634C23.0465 17.0555 23.3344 16.0442 23.3344 15.0008C23.3344 13.9574 23.0465 12.946 22.5195 12.1381C21.9925 11.3302 21.2587 10.7755 20.4426 10.5678ZM8.16798 5.95391H16.8324C17.4069 5.95391 17.9579 6.23985 18.3641 6.74884C18.7703 7.25782 18.9985 7.94815 18.9985 8.66797V10.5678C18.1836 10.7777 17.4514 11.3333 16.9253 12.1408C16.3992 12.9483 16.1114 13.9584 16.1104 15.0008H8.89002C8.889 13.9584 8.60118 12.9483 8.07508 12.1408C7.54898 11.3333 6.81676 10.7777 6.00186 10.5678V8.66797C6.00186 7.94815 6.23008 7.25782 6.6363 6.74884C7.04253 6.23985 7.59349 5.95391 8.16798 5.95391ZM19.7558 17.7148H19.7206C19.5291 17.7148 19.3454 17.8102 19.21 17.9798C19.0746 18.1495 18.9985 18.3796 18.9985 18.6195V23.143H6.00186V18.6195C6.00186 18.3796 5.92579 18.1495 5.79038 17.9798C5.65497 17.8102 5.47132 17.7148 5.27982 17.7148H5.24463C4.81778 17.7062 4.40249 17.5396 4.05094 17.2362C3.69938 16.9327 3.42723 16.5058 3.26867 16.0092C3.11011 15.5126 3.0722 14.9683 3.15971 14.4448C3.24722 13.9212 3.45625 13.4418 3.76055 13.0666C4.06484 12.6914 4.45082 12.4373 4.87002 12.3361C5.28921 12.2349 5.72293 12.2912 6.11669 12.4978C6.51045 12.7045 6.84669 13.0523 7.08319 13.4976C7.31968 13.9429 7.44588 14.4659 7.44594 15.0008V19.5242C7.44594 19.7642 7.52201 19.9943 7.65742 20.1639C7.79283 20.3336 7.97648 20.4289 8.16798 20.4289C8.35947 20.4289 8.54313 20.3336 8.67853 20.1639C8.81394 19.9943 8.89002 19.7642 8.89002 19.5242V16.8102H16.1104V19.5242C16.1104 19.7642 16.1865 19.9943 16.3219 20.1639C16.4573 20.3336 16.6409 20.4289 16.8324 20.4289C17.0239 20.4289 17.2076 20.3336 17.343 20.1639C17.4784 19.9943 17.5545 19.7642 17.5545 19.5242V15.0008C17.5545 14.4659 17.6807 13.9429 17.9172 13.4976C18.1537 13.0523 18.49 12.7045 18.8837 12.4978C19.2775 12.2912 19.7112 12.2349 20.1304 12.3361C20.5496 12.4373 20.9356 12.6914 21.2399 13.0666C21.5442 13.4418 21.7532 13.9212 21.8407 14.4448C21.9282 14.9683 21.8903 15.5126 21.7317 16.0092C21.5732 16.5058 21.301 16.9327 20.9495 17.2362C20.5979 17.5396 20.1826 17.7062 19.7558 17.7148Z" fill="#2196F3"/>
</svg>
